<svg width="781" height="440" viewBox="0 0 781 440" xmlns="http://www.w3.org/2000/svg" xmlns:xlink="http://www.w3.org/1999/xlink" overflow="hidden"><rect x="330.09" y="202.19" width="90.36" height="93.16" stroke="#FFAF10" stroke-width="2" stroke-miterlimit="10" fill="none"/><line x1="344.21" y1="221.34" x2="356.68" y2="221.34" stroke="#FFAF10" stroke-width="2" stroke-miterlimit="10" fill="none"/><line x1="365.39" y1="221.34" x2="405.67" y2="221.34" stroke="#FFAF10" stroke-width="2" stroke-miterlimit="10" fill="none"/><line x1="344.21" y1="231.23" x2="356.68" y2="231.23" stroke="#FFAF10" stroke-width="2" stroke-miterlimit="10" fill="none"/><line x1="365.39" y1="231.23" x2="405.67" y2="231.23" stroke="#FFAF10" stroke-width="2" stroke-miterlimit="10" fill="none"/><line x1="344.21" y1="241.12" x2="356.68" y2="241.12" stroke="#FFAF10" stroke-width="2" stroke-miterlimit="10" fill="none"/><line x1="365.39" y1="241.12" x2="405.67" y2="241.12" stroke="#FFAF10" stroke-width="2" stroke-miterlimit="10" fill="none"/><line x1="344.21" y1="251.01" x2="356.68" y2="251.01" stroke="#FFAF10" stroke-width="2" stroke-miterlimit="10" fill="none"/><line x1="365.39" y1="251.01" x2="405.67" y2="251.01" stroke="#FFAF10" stroke-width="2" stroke-miterlimit="10" fill="none"/><line x1="621.92" y1="225.2" x2="638.04" y2="225.2" stroke="#60BCD8" stroke-width="2" stroke-miterlimit="10" fill="none"/><line x1="646.74" y1="225.2" x2="659.84" y2="225.2" stroke="#FFAF10" stroke-width="2" stroke-miterlimit="10" fill="none"/><line x1="621.92" y1="235.09" x2="638.04" y2="235.09" stroke="#60BCD8" stroke-width="2" stroke-miterlimit="10" fill="none"/><line x1="646.74" y1="235.09" x2="659.84" y2="235.09" stroke="#FFAF10" stroke-width="2" stroke-miterlimit="10" fill="none"/><line x1="621.92" y1="244.98" x2="638.04" y2="244.98" stroke="#60BCD8" stroke-width="2" stroke-miterlimit="10" fill="none"/><line x1="646.74" y1="244.98" x2="659.84" y2="244.98" stroke="#FFAF10" stroke-width="2" stroke-miterlimit="10" fill="none"/><line x1="621.92" y1="254.87" x2="638.04" y2="254.87" stroke="#60BCD8" stroke-width="2" stroke-miterlimit="10" fill="none"/><line x1="646.74" y1="254.87" x2="659.84" y2="254.87" stroke="#60BCD8" stroke-width="2" stroke-miterlimit="10" fill="none"/><line x1="669.24" y1="225.2" x2="695.51" y2="225.2" stroke="#FFAF10" stroke-width="2" stroke-miterlimit="10" fill="none"/><line x1="704.22" y1="225.2" x2="717.32" y2="225.2" stroke="#60BCD8" stroke-width="2" stroke-miterlimit="10" fill="none"/><line x1="669.24" y1="235.09" x2="695.51" y2="235.09" stroke="#FFAF10" stroke-width="2" stroke-miterlimit="10" fill="none"/><line x1="704.22" y1="235.09" x2="717.32" y2="235.09" stroke="#60BCD8" stroke-width="2" stroke-miterlimit="10" fill="none"/><line x1="669.24" y1="244.98" x2="695.51" y2="244.98" stroke="#FFAF10" stroke-width="2" stroke-miterlimit="10" fill="none"/><line x1="704.22" y1="244.98" x2="717.32" y2="244.98" stroke="#60BCD8" stroke-width="2" stroke-miterlimit="10" fill="none"/><line x1="669.24" y1="254.87" x2="695.51" y2="254.87" stroke="#60BCD8" stroke-width="2" stroke-miterlimit="10" fill="none"/><line x1="704.22" y1="254.87" x2="717.32" y2="254.87" stroke="#60BCD8" stroke-width="2" stroke-miterlimit="10" fill="none"/><line x1="621.92" y1="185.24" x2="638.04" y2="185.24" stroke="#60BCD8" stroke-width="2" stroke-miterlimit="10" fill="none"/><line x1="646.74" y1="185.24" x2="659.84" y2="185.24" stroke="#60BCD8" stroke-width="2" stroke-miterlimit="10" fill="none"/><line x1="621.92" y1="195.13" x2="638.04" y2="195.13" stroke="#60BCD8" stroke-width="2" stroke-miterlimit="10" fill="none"/><line x1="646.74" y1="195.13" x2="659.84" y2="195.13" stroke="#60BCD8" stroke-width="2" stroke-miterlimit="10" fill="none"/><line x1="621.92" y1="205.02" x2="638.04" y2="205.02" stroke="#60BCD8" stroke-width="2" stroke-miterlimit="10" fill="none"/><line x1="646.74" y1="205.02" x2="659.84" y2="205.02" stroke="#60BCD8" stroke-width="2" stroke-miterlimit="10" fill="none"/><line x1="621.92" y1="214.91" x2="638.04" y2="214.91" stroke="#60BCD8" stroke-width="2" stroke-miterlimit="10" fill="none"/><line x1="646.74" y1="214.91" x2="659.84" y2="214.91" stroke="#FFAF10" stroke-width="2" stroke-miterlimit="10" fill="none"/><line x1="669.24" y1="185.24" x2="695.51" y2="185.24" stroke="#60BCD8" stroke-width="2" stroke-miterlimit="10" fill="none"/><line x1="704.22" y1="185.24" x2="717.32" y2="185.24" stroke="#60BCD8" stroke-width="2" stroke-miterlimit="10" fill="none"/><line x1="669.24" y1="195.13" x2="695.51" y2="195.13" stroke="#60BCD8" stroke-width="2" stroke-miterlimit="10" fill="none"/><line x1="704.22" y1="195.13" x2="717.32" y2="195.13" stroke="#60BCD8" stroke-width="2" stroke-miterlimit="10" fill="none"/><line x1="669.24" y1="205.02" x2="695.51" y2="205.02" stroke="#60BCD8" stroke-width="2" stroke-miterlimit="10" fill="none"/><line x1="704.22" y1="205.02" x2="717.32" y2="205.02" stroke="#60BCD8" stroke-width="2" stroke-miterlimit="10" fill="none"/><line x1="669.24" y1="214.91" x2="695.51" y2="214.91" stroke="#FFAF10" stroke-width="2" stroke-miterlimit="10" fill="none"/><line x1="704.22" y1="214.91" x2="717.32" y2="214.91" stroke="#60BCD8" stroke-width="2" stroke-miterlimit="10" fill="none"/><line x1="621.92" y1="264.77" x2="638.04" y2="264.77" stroke="#60BCD8" stroke-width="2" stroke-miterlimit="10" fill="none"/><line x1="646.74" y1="264.77" x2="659.84" y2="264.77" stroke="#60BCD8" stroke-width="2" stroke-miterlimit="10" fill="none"/><line x1="621.92" y1="274.66" x2="638.04" y2="274.66" stroke="#60BCD8" stroke-width="2" stroke-miterlimit="10" fill="none"/><line x1="646.74" y1="274.66" x2="659.84" y2="274.66" stroke="#60BCD8" stroke-width="2" stroke-miterlimit="10" fill="none"/><line x1="621.92" y1="284.55" x2="638.04" y2="284.55" stroke="#60BCD8" stroke-width="2" stroke-miterlimit="10" fill="none"/><line x1="646.74" y1="284.55" x2="659.84" y2="284.55" stroke="#60BCD8" stroke-width="2" stroke-miterlimit="10" fill="none"/><line x1="669.24" y1="264.77" x2="695.51" y2="264.77" stroke="#60BCD8" stroke-width="2" stroke-miterlimit="10" fill="none"/><line x1="704.22" y1="264.77" x2="717.32" y2="264.77" stroke="#60BCD8" stroke-width="2" stroke-miterlimit="10" fill="none"/><line x1="669.24" y1="274.66" x2="695.51" y2="274.66" stroke="#60BCD8" stroke-width="2" stroke-miterlimit="10" fill="none"/><line x1="704.22" y1="274.66" x2="717.32" y2="274.66" stroke="#60BCD8" stroke-width="2" stroke-miterlimit="10" fill="none"/><line x1="669.24" y1="284.55" x2="695.51" y2="284.55" stroke="#60BCD8" stroke-width="2" stroke-miterlimit="10" fill="none"/><line x1="704.22" y1="284.55" x2="717.32" y2="284.55" stroke="#60BCD8" stroke-width="2" stroke-miterlimit="10" fill="none"/><path d="M628 262.8C628 272.14 627.84 267.09 627.71 273.35 627.55 280.64 606.88 286.56 581.19 286.56 555.5 286.56 534.67 280.64 534.67 273.35 534.67 270.16 534.96 265.5 534.96 262.8" stroke="#60BCD8" stroke-width="2" stroke-miterlimit="10" fill="#D0F1F7"/><ellipse cx="581.45" cy="262.8" rx="46.52" ry="13.22" stroke="#60BCD8" stroke-width="2" stroke-miterlimit="10" fill="#FFFFFF"/><path d="M628 241.6C628 250.94 627.84 245.89 627.71 252.15 627.55 259.44 606.88 265.36 581.19 265.36 555.5 265.36 534.67 259.44 534.67 252.15 534.67 248.96 534.96 244.3 534.96 241.6" stroke="#60BCD8" stroke-width="2" stroke-miterlimit="10" fill="#D0F1F7"/><ellipse cx="581.45" cy="241.6" rx="46.52" ry="13.22" stroke="#60BCD8" stroke-width="2" stroke-miterlimit="10" fill="#FFFFFF"/><path d="M628 219.74C628 229.08 627.84 224.02 627.71 230.28 627.55 237.58 606.88 243.5 581.19 243.5 555.5 243.5 534.67 237.58 534.67 230.28 534.67 227.1 534.96 222.43 534.96 219.74" stroke="#60BCD8" stroke-width="2" stroke-miterlimit="10" fill="#D0F1F7"/><ellipse cx="581.45" cy="219.74" rx="46.52" ry="13.22" stroke="#60BCD8" stroke-width="2" stroke-miterlimit="10" fill="#FFFFFF"/><path d="M628 196.84C628 206.18 627.84 201.12 627.71 207.38 627.55 214.68 606.88 220.6 581.19 220.6 555.5 220.6 534.67 214.68 534.67 207.38 534.67 204.2 534.96 199.53 534.96 196.84" stroke="#60BCD8" stroke-width="2" stroke-miterlimit="10" fill="#D0F1F7"/><ellipse cx="581.45" cy="196.84" rx="46.52" ry="13.22" stroke="#60BCD8" stroke-width="2" stroke-miterlimit="10" fill="#FFFFFF"/><path d="M94.13 146.34C90.44 145.76 91.38 149.93 91.07 157.17 90.8042 160.386 92.2615 163.502 94.9 165.36" stroke="#4C5054" stroke-width="2" stroke-miterlimit="10" fill="none"/><path d="M106.57 150.42C101.07 153.67 100.65 158.86 101.4 164.98 101.61 166.67 96.07 163.98 92.4 166.33 88.15 181.73 101.57 184.92 101.57 186.92L101.57 197.53C101.57 202.15 116.82 213.17 129.82 213.17 142.82 213.17 156.57 200.17 156.57 197.53 156.57 194.89 156.32 190.67 156.57 186.67 166.32 182.17 167.57 166.92 164.82 166.33 162.287 165.698 159.68 165.416 157.07 165.49 157.07 158.07 155.32 150.7 147.32 150.7L112.82 150.7C101.18 150.7 95.58 148.22 93.02 145.25 91.7224 143.779 91.0106 141.882 91.02 139.92 91.02 135.42 95.77 133.82 88.6 129.06 92.6 127.9 101.6 129.53 103.52 134.06 105.39 130.53 110.99 119.91 105.27 114.06 110.52 115.81 119.69 124.64 118.1 134.81 123.68 130.06 127.67 115.18 126.18 111.1 132.82 116.31 136.28 127.81 134.61 136.93 139.36 136.77 147.02 128.31 144.72 117.31 150.72 124.06 154.81 131.31 153 139.62 158.27 141.06 161.41 135.06 162.27 130.06 171.11 151.18 162 165.78 162 165.78" stroke="#4C5054" stroke-width="2" stroke-miterlimit="10" fill="none"/><path d="M112.57 208.1C113.023 212.445 113.023 216.825 112.57 221.17 111.82 228.42 101.82 229.17 87.57 232.17 78.99 233.33 61.32 268.92 61.32 282.73 61.32 289.23 80.03 323.06 80.03 323.06" stroke="#4C5054" stroke-width="2" stroke-miterlimit="10" fill="none"/><path d="M145.1 208.1C144.647 212.445 144.647 216.825 145.1 221.17 145.85 228.42 155.85 229.17 170.1 232.17 186.99 238.71 194.31 275.49 197.66 287.32 195.83 297.32 178.46 323.06 178.46 323.06" stroke="#4C5054" stroke-width="2" stroke-miterlimit="10" fill="none"/><path d="M128.58 228.92C128.98 228.92 129.37 228.92 129.75 228.92 137.25 228.76 141.47 227.01 145.75 223.56 148.08 226.16 152.6 229.68 154.69 228.93 156.78 228.18 143.55 238.68 128.54 237.68 113.53 236.68 107.54 232.49 105.28 228.21 108.17 226.98 111.17 225.94 111.85 223.56 116.12 228.17 123.07 229.25 128.58 228.92Z" stroke="#4C5054" stroke-width="2" stroke-miterlimit="10" fill="#4C5054"/><path d="M166.42 258.38 94.75 258.38 94.57 247.87 166.42 246.83 166.42 258.38Z" fill="#4C5054"/><path d="M169.32 271.43 91.27 271.43 91.06 267.86 168.19 267.86 169.32 271.43Z" fill="#4C5054"/><path d="M100.69 164.44C105.6 162.28 119.55 164.44 128.54 169.73 134.11 163.98 151.4 161.81 157.34 164.18 157.366 164.848 157.708 165.464 158.26 165.84 154.71 167.23 148.71 175.84 143.44 177.15 141.08 177.73 129.78 175.1 127.44 175.59 123.093 176.575 118.648 177.065 114.19 177.05 107.71 177.24 100.71 166.32 100.71 166.32Z" stroke="#4C5054" stroke-width="2" stroke-miterlimit="10" fill="#4C5054"/><path d="M183.14 315.78 191.59 315.78 178.44 343.53 80.64 343.53 65.58 315.78 74.96 315.78" stroke="#4C5054" stroke-width="2" stroke-miterlimit="10" fill="none"/><path d="M72.02 271.23 186.47 271.23 175.29 343.53 83.19 343.53 72.02 271.23Z" stroke="#4C5054" stroke-width="2" stroke-miterlimit="10" fill="#FFFFFF"/><path d="M65.58 315.78 80.64 347.76 178.44 347.76 191.59 315.78" stroke="#4C5054" stroke-width="2" stroke-miterlimit="10" fill="none"/><path d="M127.4 192C125.57 192.17 120.57 194.1 118.15 193.27" stroke="#4C5054" stroke-width="2" stroke-miterlimit="10" fill="#4C5054"/><path d="M129.49 192C131.32 192 135.74 194.23 138.74 193.48" stroke="#4C5054" stroke-width="2" stroke-miterlimit="10" fill="#4C5054"/><line x1="124.02" y1="199" x2="133.14" y2="199" stroke="#4C5054" stroke-width="2" stroke-miterlimit="10" fill="none"/><path d="M77.3 244.15C80.15 249.75 92.53 258.21 94.75 258.38 96.97 258.55 97.65 248.64 97.65 248.64 90.22 244.86 84.82 240.5 83 235.5Z" fill="#4C5054"/><path d="M71.27 252.63C75.9 258.55 95.4 269.42 97.65 268.83 97.15 270.42 94.74 271.43 93.9 271.43 94.24 271.79 76.65 270.5 76.65 270.5 76.65 270.5 65.65 265.1 66.65 262.66 67.81 259.85 71.68 252.58 71.27 252.63Z" fill="#4C5054"/><path d="M62.36 275.49C63.78 276.66 71.94 279.81 73.3 279.49 73.24 280.29 74.4 289.13 74.4 289.13 74.4 289.13 63.17 289.61 61.58 287.28 61.82 284.5 62.36 275.49 62.36 275.49Z" fill="#4C5054"/><path d="M67.86 299.64C73.26 299.73 76.19 298.23 76.05 297.35 75.91 296.47 77.22 304.91 77.22 304.91 77.22 304.91 80.82 309.11 72.9 309.69 70.16 307.15 67.86 299.64 67.86 299.64Z" fill="#4C5054"/><path d="M181.94 244.15C179.08 249.75 168.64 258.21 166.42 258.38 164.2 258.55 160.58 249.55 160.58 249.55 168.08 247.38 174.42 240.5 176.21 235.5Z" fill="#4C5054"/><path d="M187.22 253.83C182.58 259.75 167.58 269 165.33 268.42 165.84 270 164.5 271.42 165.33 271.42 165 271.78 182.58 270.49 182.58 270.49 182.58 270.49 191.83 266.04 190.83 263.61 189.68 260.8 186.8 253.78 187.22 253.83Z" fill="#4C5054"/><path d="M194.67 276.25C193.25 277.42 187.29 279.81 185.94 279.53 186 280.33 184.83 289.17 184.83 289.17 184.83 289.17 196.07 289.65 197.66 287.32 197.42 284.5 194.67 276.25 194.67 276.25Z" fill="#4C5054"/><path d="M192.89 299.08C187.5 299.18 183.05 298.23 183.18 297.35 183.31 296.47 182.01 304.91 182.01 304.91 182.01 304.91 179.45 308.36 187.37 308.91 190.11 306.4 192.89 299.08 192.89 299.08Z" fill="#4C5054"/><path d="M298.82 278.19 278.54 278.19 278.54 192.72 267.34 192.72 267.34 136.24 254.52 136.24 254.52 97.58 242.72 97.58 242.72 109.33 272.57 109.33 272.57 44.91" stroke="#CBD0D1" stroke-miterlimit="10" fill="none"/><path d="M185.94 279.53 220.32 279.53 220.32 165.36 207.32 165.36 207.32 179.57 227.98 179.57 227.98 117.91 173.65 117.91 173.65 92.91 193.96 92.91 193.96 79.83 54.19 79.83 54.19 53.02" stroke="#CBD0D1" stroke-miterlimit="10" fill="none"/><path d="M581.15 192.8 581.15 145.99 572.32 145.99 572.32 160.11 598.65 160.11 598.65 111.11" stroke="#CBD0D1" stroke-miterlimit="10" fill="none"/><path d="M448.65 277.99 465.91 277.99 465.91 210.05 494.35 210.05 494.35 181.32 478.35 181.32 478.82 148.76 496.32 148.76 496.32 119.58" stroke="#CBD0D1" stroke-miterlimit="10" fill="none"/><path d="M736.9 230.64 755.51 230.64 755.51 341.09 506.33 342.76 464.01 343.05 464.01 309.69 453.35 309.69" stroke="#D60000" stroke-miterlimit="10" fill="none"/><rect x="344.21" y="267.16" width="63.05" height="19.82" fill="#FCF1E0"/><path d="M214.32 249.03 220.32 240.22 226.32 249.22 214.32 249.03Z" fill="#CBD0D1"/><path d="M294.51 271.99 303.32 277.99 294.32 283.99 294.51 271.99Z" fill="#CBD0D1"/><path d="M284.57 203.79 278.57 212.6 272.57 203.6 284.57 203.79Z" fill="#CBD0D1"/><path d="M459.91 247.81 465.91 239 471.91 248 459.91 247.81Z" fill="#CBD0D1"/><path d="M587.3 188.49 581.3 197.3 575.3 188.3 587.3 188.49Z" fill="#CBD0D1"/><path d="M761.32 318.02 755.32 326.83 749.32 317.83 761.32 318.02Z" fill="#D60000"/><path d="M528.65 349.05 519.84 343.05 528.84 337.05 528.65 349.05Z" fill="#D60000"/><line x1="621.92" y1="294.49" x2="638.04" y2="294.49" stroke="#60BCD8" stroke-width="2" stroke-miterlimit="10" fill="none"/><line x1="646.74" y1="294.49" x2="659.84" y2="294.49" stroke="#60BCD8" stroke-width="2" stroke-miterlimit="10" fill="none"/><line x1="621.92" y1="304.38" x2="638.04" y2="304.38" stroke="#60BCD8" stroke-width="2" stroke-miterlimit="10" fill="none"/><line x1="646.74" y1="304.38" x2="659.84" y2="304.38" stroke="#60BCD8" stroke-width="2" stroke-miterlimit="10" fill="none"/><line x1="669.24" y1="294.49" x2="695.51" y2="294.49" stroke="#60BCD8" stroke-width="2" stroke-miterlimit="10" fill="none"/><line x1="704.22" y1="294.49" x2="717.32" y2="294.49" stroke="#60BCD8" stroke-width="2" stroke-miterlimit="10" fill="none"/><line x1="669.24" y1="304.38" x2="695.51" y2="304.38" stroke="#60BCD8" stroke-width="2" stroke-miterlimit="10" fill="none"/><line x1="704.22" y1="304.38" x2="717.32" y2="304.38" stroke="#60BCD8" stroke-width="2" stroke-miterlimit="10" fill="none"/><line x1="723.77" y1="225.2" x2="736.87" y2="225.2" stroke="#D60000" stroke-width="2" stroke-miterlimit="10" fill="none"/><line x1="723.77" y1="235.09" x2="736.87" y2="235.09" stroke="#D60000" stroke-width="2" stroke-miterlimit="10" fill="none"/><line x1="723.77" y1="244.98" x2="736.87" y2="244.98" stroke="#D60000" stroke-width="2" stroke-miterlimit="10" fill="none"/><line x1="723.77" y1="254.87" x2="736.87" y2="254.87" stroke="#D60000" stroke-width="2" stroke-miterlimit="10" fill="none"/><line x1="723.77" y1="195.13" x2="736.87" y2="195.13" stroke="#D60000" stroke-width="2" stroke-miterlimit="10" fill="none"/><line x1="723.77" y1="205.02" x2="736.87" y2="205.02" stroke="#D60000" stroke-width="2" stroke-miterlimit="10" fill="none"/><line x1="723.77" y1="214.91" x2="736.87" y2="214.91" stroke="#D60000" stroke-width="2" stroke-miterlimit="10" fill="none"/><line x1="723.77" y1="264.77" x2="736.87" y2="264.77" stroke="#D60000" stroke-width="2" stroke-miterlimit="10" fill="none"/><line x1="723.77" y1="274.66" x2="736.87" y2="274.66" stroke="#D60000" stroke-width="2" stroke-miterlimit="10" fill="none"/><line x1="723.77" y1="284.55" x2="736.87" y2="284.55" stroke="#D60000" stroke-width="2" stroke-miterlimit="10" fill="none"/><line x1="723.77" y1="294.49" x2="736.87" y2="294.49" stroke="#D60000" stroke-width="2" stroke-miterlimit="10" fill="none"/><path d="M723.77 185.24 736.87 185.24 736.87 304.38 723.77 304.38" stroke="#D60000" stroke-width="2" stroke-miterlimit="10" fill="none"/><path d="M457.47 314.94 448.65 308.94 457.65 302.94 457.47 314.94Z" fill="#D60000"/><path d="M292.82 322.52 286.82 331.33 280.82 322.33 292.82 322.52Z" fill="#D60000"/><path d="M133.79 406.91 124.98 400.91 133.98 394.91 133.79 406.91Z" fill="#D60000"/><path d="M40.95 358.11 46.95 349.3 52.95 358.3 40.95 358.11Z" fill="#D60000"/><rect x="304.51" y="163.35" width="143.11" height="22.57" stroke="#FFAF10" stroke-width="2" stroke-miterlimit="10" fill="#FCF1E0"/><line x1="380.3" y1="174.55" x2="391.2" y2="174.55" stroke="#FFAF10" stroke-width="2" stroke-miterlimit="10" fill="none"/><line x1="396.36" y1="174.55" x2="407.26" y2="174.55" stroke="#FFAF10" stroke-width="2" stroke-miterlimit="10" fill="none"/><line x1="412.31" y1="174.55" x2="423.2" y2="174.55" stroke="#FFAF10" stroke-width="2" stroke-miterlimit="10" fill="none"/><line x1="428.37" y1="174.55" x2="439.26" y2="174.55" stroke="#FFAF10" stroke-width="2" stroke-miterlimit="10" fill="none"/><ellipse cx="325.61" cy="174.64" rx="13.4" ry="5.26" stroke="#FFAF10" stroke-width="2" stroke-miterlimit="10" fill="#FFFFFF"/><path d="M360 278.42C360.007 278.762 359.946 279.102 359.82 279.42 359.694 279.707 359.506 279.963 359.27 280.17 359.01 280.39 358.707 280.554 358.38 280.65 357.991 280.767 357.586 280.825 357.18 280.82 356.793 280.821 356.408 280.781 356.03 280.7 355.683 280.616 355.348 280.492 355.03 280.33L355.03 278.7 355.57 278.95 356.13 279.17 356.69 279.32C356.878 279.356 357.069 279.373 357.26 279.37 357.425 279.373 357.59 279.353 357.75 279.31 357.874 279.279 357.987 279.217 358.08 279.13 358.161 279.054 358.225 278.962 358.27 278.86 358.309 278.744 358.325 278.622 358.32 278.5 358.322 278.361 358.291 278.224 358.23 278.1 358.157 277.974 358.062 277.863 357.95 277.77 357.822 277.65 357.677 277.549 357.52 277.47L356.97 277.16C356.8 277.07 356.6 276.96 356.39 276.83 356.168 276.703 355.966 276.545 355.79 276.36 355.595 276.161 355.432 275.931 355.31 275.68 355.175 275.364 355.11 275.023 355.12 274.68 355.112 274.338 355.174 273.998 355.3 273.68 355.42 273.4 355.597 273.148 355.82 272.94 356.059 272.734 356.338 272.581 356.64 272.49 356.985 272.378 357.347 272.324 357.71 272.33 357.906 272.315 358.104 272.315 358.3 272.33 358.48 272.33 358.67 272.39 358.86 272.44 359.05 272.49 359.23 272.55 359.41 272.62 359.608 272.692 359.801 272.776 359.99 272.87L359.43 274.22 358.96 274.01 358.53 273.86 358.13 273.77C357.994 273.76 357.857 273.76 357.72 273.77 357.475 273.752 357.233 273.835 357.05 274 356.893 274.167 356.81 274.391 356.82 274.62 356.816 274.747 356.84 274.873 356.89 274.99 356.947 275.104 357.025 275.206 357.12 275.29 357.239 275.397 357.37 275.491 357.51 275.57 357.68 275.67 357.87 275.78 358.11 275.9 358.35 276.02 358.64 276.21 358.88 276.36 359.105 276.507 359.31 276.681 359.49 276.88 359.659 277.067 359.791 277.284 359.88 277.52 359.983 277.808 360.024 278.115 360 278.42Z" fill="#FFAF10"/><path d="M367.74 272.5 367.74 277.8C367.746 278.205 367.682 278.607 367.55 278.99 367.296 279.735 366.713 280.321 365.97 280.58 365.525 280.741 365.053 280.819 364.58 280.81 364.124 280.821 363.669 280.746 363.24 280.59 362.863 280.47 362.52 280.261 362.24 279.98 361.969 279.697 361.767 279.354 361.65 278.98 361.505 278.583 361.434 278.163 361.44 277.74L361.44 272.5 363.18 272.5 363.18 277.65C363.175 277.913 363.205 278.175 363.27 278.43 363.317 278.623 363.406 278.804 363.53 278.96 363.653 279.091 363.803 279.193 363.97 279.26 364.17 279.324 364.38 279.354 364.59 279.35 364.99 279.387 365.384 279.231 365.65 278.93 365.896 278.547 366.011 278.094 365.98 277.64L365.98 272.5Z" fill="#FFAF10"/><path d="M369.75 272.5 372.15 272.5C372.606 272.491 373.061 272.528 373.51 272.61 373.862 272.664 374.201 272.783 374.51 272.96 374.76 273.117 374.964 273.338 375.1 273.6 375.245 273.913 375.313 274.256 375.3 274.6 375.302 274.82 375.271 275.039 375.21 275.25 375.161 275.442 375.08 275.625 374.97 275.79 374.862 275.941 374.726 276.07 374.57 276.17 374.408 276.272 374.228 276.343 374.04 276.38L374.04 276.38C374.235 276.427 374.426 276.49 374.61 276.57 374.983 276.755 375.265 277.083 375.39 277.48 375.472 277.745 375.509 278.022 375.5 278.3 375.508 278.643 375.443 278.984 375.31 279.3 375.18 279.588 374.989 279.844 374.75 280.05 374.482 280.261 374.177 280.421 373.85 280.52 373.466 280.628 373.069 280.682 372.67 280.68L369.77 280.68ZM371.49 275.75 372.39 275.75C372.575 275.754 372.76 275.734 372.94 275.69 373.069 275.657 373.188 275.595 373.29 275.51 373.38 275.434 373.446 275.333 373.48 275.22 373.527 275.085 373.548 274.943 373.54 274.8 373.568 274.541 373.458 274.287 373.25 274.13 372.968 273.969 372.644 273.896 372.32 273.92L371.49 273.92ZM371.49 277.13 371.49 279.26 372.49 279.26C372.687 279.268 372.883 279.241 373.07 279.18 373.347 279.099 373.564 278.885 373.65 278.61 373.691 278.46 373.711 278.305 373.71 278.15 373.713 278.008 373.692 277.866 373.65 277.73 373.612 277.606 373.539 277.495 373.44 277.41 373.327 277.312 373.194 277.24 373.05 277.2 372.854 277.147 372.652 277.124 372.45 277.13Z" fill="#FFAF10"/><path d="M380.43 280.7 378.63 274.26 378.58 274.26C378.58 274.61 378.58 274.94 378.63 275.26 378.63 275.4 378.63 275.54 378.63 275.69 378.63 275.84 378.63 275.98 378.63 276.12 378.63 276.26 378.63 276.4 378.63 276.53L378.63 280.7 377.08 280.7 377.08 272.5 379.45 272.5 381.22 278.77 381.22 278.77 383.11 272.5 385.47 272.5 385.47 280.7 383.85 280.7 383.85 276.49C383.85 276.36 383.85 276.23 383.85 276.09 383.85 275.95 383.85 275.81 383.85 275.67 383.85 275.53 383.85 275.39 383.85 275.26 383.85 274.94 383.85 274.62 383.85 274.26L383.85 274.26 381.85 280.68Z" fill="#FFAF10"/><path d="M390.68 280.7 387 280.7 387 279.7 388 279.24 388 273.93 387 273.47 387 272.47 390.73 272.47 390.73 273.47 389.73 273.93 389.73 279.24 390.73 279.7Z" fill="#FFAF10"/><path d="M395.08 280.7 393.34 280.7 393.34 273.94 391.28 273.94 391.28 272.5 397.13 272.5 397.13 273.94 395.08 273.94Z" fill="#FFAF10"/><path d="M80.82 334.08 46.95 334.08 46.95 379.59 71.72 379.59 71.72 401.74" stroke="#D60000" stroke-miterlimit="10" fill="none"/><path d="M304.01 309.69 286.82 309.69 286.82 349.3 210.65 349.3 210.65 400.91 71.72 401.74" stroke="#D60000" stroke-miterlimit="10" fill="none"/><path d="M142.4 312.15 142.75 312.08 142.75 312.08C143.1 312.02 143.44 311.98 143.75 311.94L143.93 311.94 144.3 311.89 144.3 311.89 144.63 311.83 144.63 311.83C144.902 311.775 145.166 311.692 145.42 311.58 145.818 311.393 146.13 311.06 146.29 310.65 146.61 310.016 146.371 309.243 145.75 308.9 145.759 308.692 145.739 308.483 145.69 308.28 145.604 307.662 145.167 307.151 144.57 306.97 144.435 306.939 144.298 306.922 144.16 306.92 143.557 306.944 143.001 307.252 142.66 307.75 142.259 308.221 141.77 308.608 141.22 308.89L140.48 309.24 140.48 309.24 139.96 309.48C139.48 309.7 138.96 309.93 138.44 310.16 138.72 305.83 140.65 302.16 138.61 299.36 136.57 296.56 132.81 295.85 129.22 295.78L128.36 295.78C126.553 295.786 124.76 296.087 123.05 296.67L122.86 296.74C121.506 297.232 120.315 298.091 119.42 299.22 117.74 301.44 119.01 304.15 119.71 307.27L119.79 307.63C119.962 308.406 120.062 309.196 120.09 309.99 120.1 310.163 120.1 310.337 120.09 310.51L120.09 310.56C120.079 311.385 120.275 312.2 120.66 312.93 119.118 312.221 117.523 311.633 115.89 311.17 113.96 310.67 112.33 310.98 112.23 309.34 112.295 308.987 112.561 308.705 112.91 308.62 113.004 308.884 113.179 309.111 113.41 309.27 112.821 308.719 112.79 307.796 113.34 307.206 113.468 307.07 113.621 306.959 113.79 306.88 115.04 306.64 114.97 307.88 116.72 308.88 117.72 309.4 118.83 309.97 120.09 310.56L120.09 310.56C120.1 310.39 120.1 310.22 120.09 310.05 118.92 309.5 117.85 308.96 116.97 308.48 116.781 308.382 116.6 308.268 116.43 308.14L116.28 308.02C116.029 307.798 115.795 307.557 115.58 307.3 115.257 306.787 114.714 306.454 114.11 306.4 113.97 306.386 113.83 306.386 113.69 306.4 113.092 306.563 112.639 307.052 112.52 307.66 112.469 307.863 112.443 308.071 112.44 308.28 112.027 308.499 111.755 308.914 111.72 309.38 111.728 310.056 112.115 310.67 112.72 310.97 113.268 311.214 113.853 311.366 114.45 311.42 114.89 311.49 115.34 311.56 115.82 311.68 117.653 312.215 119.445 312.883 121.18 313.68L121.18 313.68C121.688 314.343 122.276 314.94 122.93 315.46L123.01 315.52 123.32 315.78 123.5 315.96 123.38 316.01 122.55 316.3 122.44 316.3C120.808 316.881 119.137 317.349 117.44 317.7 116.55 317.852 115.652 317.956 114.75 318.01 114.023 318.007 113.3 318.122 112.61 318.35 111.95 318.626 111.523 319.275 111.53 319.99 111.497 320.502 111.662 321.006 111.99 321.4 112.186 321.629 112.442 321.799 112.73 321.89 112.69 322.132 112.69 322.378 112.73 322.62 112.812 323.159 113.168 323.617 113.67 323.83 113.95 323.945 114.248 324.01 114.55 324.02 114.751 324.032 114.952 324.001 115.14 323.93L115.5 323.77C115.863 323.527 116.198 323.245 116.5 322.93 117.183 322.219 117.964 321.609 118.82 321.12 120.153 320.391 121.541 319.766 122.97 319.25L123.97 318.86 124.41 318.71 124.41 318.71 124.77 318.58 124.86 318.58C124.86 318.58 125.33 319.03 125.49 319.14 126.541 319.81 127.776 320.132 129.02 320.06 131.14 320.06 132.27 319.54 133.02 318.8L133.02 318.8C134.2 319.28 135.38 319.8 136.47 320.29 136.96 320.52 138.24 321.21 138.24 321.21L138.81 321.55C139.642 322.079 140.399 322.718 141.06 323.45 141.67 324.1 142.16 324.61 142.97 324.62 143.271 324.626 143.57 324.571 143.85 324.46 144.216 324.332 144.517 324.066 144.69 323.72 144.792 323.516 144.86 323.296 144.89 323.07 144.905 322.9 144.905 322.73 144.89 322.56L144.89 322.56 144.89 322.56C145.161 322.478 145.406 322.327 145.6 322.12 145.945 321.741 146.131 321.243 146.12 320.73 146.154 320.02 145.76 319.358 145.12 319.05 144.444 318.795 143.732 318.65 143.01 318.62L142.54 318.62 141.79 318.53 141.51 318.53 141.51 318.53C141.14 318.47 140.75 318.4 140.33 318.3 139.224 318.032 138.136 317.698 137.07 317.3L136.3 317.02 134.51 316.33 134.51 316.33C134.559 316.251 134.62 316.18 134.69 316.12 134.919 315.929 135.16 315.752 135.41 315.59 135.77 315.34 136.75 314.54 136.75 314.54 136.973 314.332 137.178 314.105 137.36 313.86L137.36 313.86 138.36 313.48 138.47 313.48C139.06 313.26 139.64 313.06 140.18 312.88L140.26 312.88C141.15 312.46 141.81 312.28 142.4 312.15ZM124.4 318.26 124.4 318.26 123.8 318.48 123.28 318.68 122.84 318.84 122.84 318.84C121.66 319.3 120.52 319.77 119.52 320.27 119.52 320.27 119.52 320.27 119.36 320.35L118.69 320.71C115.82 322.36 115.69 324.1 113.98 323.4 112.98 323.01 113.21 321.4 113.84 320.82 113.602 320.993 113.421 321.233 113.32 321.51 112.609 321.46 112.074 320.843 112.124 320.132 112.126 320.112 112.128 320.091 112.13 320.07 112.28 318.18 114.13 318.83 117.34 318.29L117.48 318.29 117.62 318.29C119.753 317.827 121.849 317.205 123.89 316.43L123.97 316.43 123.97 316.52C124.27 316.99 124.42 317.59 124.75 318.18L124.75 318.18ZM129.12 319.31 129.2 319.2C129.168 319.241 129.131 319.278 129.09 319.31ZM136.32 317.38 136.87 317.58 136.87 317.58 137.08 317.65 137.08 317.65 137.19 317.65 137.19 317.65 137.63 317.81C138.531 318.129 139.449 318.4 140.38 318.62 140.94 318.75 141.46 318.83 141.94 318.9L142.38 318.96 143.38 319.06 143.45 319.06C144.95 319.23 145.78 319.39 145.84 320.65 145.89 321.366 145.35 321.987 144.634 322.038 144.619 322.039 144.605 322.039 144.59 322.04 144.502 321.76 144.326 321.515 144.09 321.34 144.546 321.876 144.687 322.613 144.46 323.28L144.46 323.28C144.354 323.552 144.135 323.763 143.86 323.86 142.08 324.49 142.06 322.76 139.26 321L138.61 320.61C138.15 320.35 136.67 319.61 136.67 319.61 135.67 319.14 134.6 318.69 133.54 318.26 133.891 317.713 134.195 317.138 134.45 316.54ZM136.52 314.2 136.52 314.2ZM138 310.39 138 310.96C138 311.1 138 311.24 138 311.38 138.014 312.05 137.826 312.708 137.46 313.27 137.204 313.673 136.863 314.014 136.46 314.27 135.55 314.83 134.52 315.02 134.14 315.38 134.006 315.524 133.891 315.686 133.8 315.86 133.72 316.012 133.65 316.169 133.59 316.33 133.47 316.668 133.298 316.985 133.08 317.27 133.118 317.581 133.101 317.895 133.03 318.2 132.957 318.352 132.828 318.47 132.67 318.53L132.56 318.53 132.44 318.53C132.353 318.346 132.319 318.142 132.34 317.94L132.34 317.86 132.28 317.86 132.28 317.86C132.295 318.043 132.295 318.227 132.28 318.41 132.34 318.84 131.72 319.21 131.68 318.17 131.68 318.12 131.68 318.08 131.68 318.03L131.57 318.03 131.57 318.11C131.57 318.62 131.72 319.11 131.22 319.2 130.72 319.29 130.81 318.83 130.86 318.15L130.56 318.15C130.56 318.71 130.84 319.38 130.07 319.37 129.964 319.372 129.859 319.355 129.76 319.32 129.49 319.21 129.51 318.77 129.51 318.77 129.51 318.6 129.51 318.4 129.56 318.18L129.25 318.18C129.25 318.67 129.46 319.18 128.96 319.33L128.76 319.33C128.04 319.33 128.19 318.86 128.25 318.11L128.03 318.11C128.03 318.64 128.11 319.23 127.67 319.11 127.23 318.99 127.27 318.66 127.31 317.98L127.21 317.98C127.21 318.42 127.21 318.81 126.91 318.74 126.61 318.67 126.59 318.44 126.61 318.01 126.605 317.943 126.605 317.877 126.61 317.81L126.55 317.81C126.556 317.89 126.556 317.97 126.55 318.05 126.55 318.73 126.16 318.35 125.99 318.25 125.831 318.154 125.73 317.986 125.72 317.8L125.72 317.58C125.726 317.49 125.726 317.4 125.72 317.31 125.537 317.124 125.382 316.911 125.26 316.68L125.26 316.68C125.15 316.47 125.06 316.25 124.95 316.04 124.87 315.885 124.776 315.738 124.67 315.6L124.6 315.51C124.28 315.15 123.37 314.83 122.53 314.23 122.142 313.956 121.804 313.618 121.53 313.23 121.101 312.597 120.887 311.844 120.92 311.08 120.925 311.003 120.925 310.927 120.92 310.85 120.92 310.66 120.92 310.47 120.92 310.28L120.92 309.94C121.037 309.159 121.242 308.395 121.53 307.66L121.53 307.66C121.53 307.57 121.61 307.47 121.65 307.37L121.72 307.22 121.72 307.22C122.79 304.98 122.97 303.22 122.58 302.16L122.3 301.82C122.14 302.19 121.85 303.68 121.3 305.55L121.3 305.74C121.17 306.23 121.03 306.74 120.87 307.25 120.876 307.286 120.876 307.324 120.87 307.36L120.73 307.9 120.67 308.18C120.67 308.07 120.67 307.96 120.59 307.85L120.45 307.25C119.79 304.59 118.92 302.25 120.36 300.31 120.92 299.576 121.596 298.938 122.36 298.42 122.36 298.42 123.43 297.74 123.7 297.61 126.992 295.911 130.873 295.783 134.27 297.26 134.353 297.253 134.433 297.291 134.48 297.36 136.018 298.029 137.355 299.087 138.36 300.43 138.533 300.678 138.681 300.942 138.8 301.22L138.91 301.48C139.6 303.39 138.97 305.64 138.52 308.19 138.52 307.99 138.44 307.79 138.38 307.59 137.86 305.59 137.54 303.79 137.38 302.8L137.31 302.47C137.23 302.13 137.17 301.97 137.12 302.04 137.049 302.152 136.985 302.269 136.93 302.39 136.838 302.655 136.765 302.925 136.71 303.2 136.612 304.694 136.908 306.187 137.57 307.53 137.937 308.394 138.173 309.307 138.27 310.24 138.185 310.299 138.095 310.349 138 310.39ZM138.85 312.72 138.67 312.78 138 313C138.333 312.321 138.507 311.576 138.51 310.82 138.51 310.82 138.51 310.74 138.51 310.69L138.51 310.69 139.79 310.13 140.45 309.83 141.54 309.31C143.33 308.42 143.31 307.15 144.54 307.44 145.255 307.812 145.533 308.694 145.161 309.409 145.075 309.573 144.96 309.719 144.82 309.84 145.056 309.688 145.241 309.469 145.35 309.21 145.69 309.312 145.942 309.599 146 309.95 145.91 310.89 145.34 311.17 144.51 311.32L143.9 311.4C143.53 311.4 143.13 311.49 142.71 311.56L142.71 311.56 142.28 311.64C141.104 311.924 139.948 312.285 138.82 312.72Z" fill="#4C5054"/><path d="M130.75 314.58 130.62 313.88C130.39 312.67 129.62 311.63 129.25 311.62 128.88 311.61 128.25 312.4 127.91 313.38 127.91 313.52 127.83 313.67 127.8 313.83L127.8 313.88C127.649 314.557 127.559 315.247 127.53 315.94 127.53 316.4 127.69 316.35 127.91 316.11L128.11 315.87 128.2 315.76 128.2 315.76 128.2 315.7 128.2 315.7 128.29 315.58C128.59 315.19 128.91 314.8 129.16 314.81 129.41 314.82 129.58 315.05 129.82 315.33L130.02 315.59C130.58 316.33 131.02 317.08 130.81 315.17 130.81 315 130.78 314.8 130.75 314.58Z" fill="#4C5054"/><path d="M128.34 308.09C128.18 307.17 127.2 307.16 124.43 306.66 124.284 306.64 124.136 306.64 123.99 306.66L123.91 306.66 123.7 306.71 123.45 306.81C122.447 307.448 121.86 308.572 121.91 309.76L121.91 309.76C121.92 309.958 121.94 310.154 121.97 310.35L121.97 310.35 121.97 310.35C121.989 310.496 122.023 310.64 122.07 310.78 122.07 310.78 122.07 310.83 122.07 310.85 122.154 311.097 122.286 311.325 122.46 311.52 122.653 311.739 122.892 311.913 123.16 312.03 123.644 312.193 124.15 312.28 124.66 312.29 124.844 312.287 125.028 312.271 125.21 312.24L125.33 312.24C125.58 312.195 125.827 312.135 126.07 312.06 127.746 311.531 128.734 309.803 128.34 308.09Z" fill="#4C5054"/><path d="M136.51 308.75 136.51 308.75C136.51 308.61 136.42 308.47 136.37 308.34L136.37 308.34 136.3 308.17C136.231 308.032 136.155 307.899 136.07 307.77L136.07 307.77 136.07 307.77C135.708 307.141 135.014 306.778 134.29 306.84L133.41 306.96 133.36 306.96 133.36 306.96 133.36 306.96 133.36 306.96C131.29 307.24 130.51 307.31 130.36 308.12 129.868 309.818 130.771 311.608 132.43 312.22 133.179 312.502 133.988 312.588 134.78 312.47 135.024 312.423 135.262 312.349 135.49 312.25L135.59 312.2 135.64 312.2 135.64 312.2C135.707 312.166 135.77 312.125 135.83 312.08 135.924 312.008 136.011 311.928 136.09 311.84L136.15 311.78C136.288 311.613 136.396 311.423 136.47 311.22 136.74 310.501 136.786 309.716 136.6 308.97Z" fill="#4C5054"/><ellipse cx="115.36" cy="171.01" rx="4.19" ry="2.28" fill="#FFFFFF"/><ellipse cx="141.8" cy="171.01" rx="4.19" ry="2.28" fill="#FFFFFF"/><line x1="342.32" y1="277.99" x2="340.82" y2="277.99" stroke="#DCE3E5" stroke-width="2" stroke-miterlimit="10" fill="none"/><line x1="337.8" y1="277.99" x2="309.14" y2="277.99" stroke="#DCE3E5" stroke-width="2" stroke-miterlimit="10" stroke-dasharray="3.02 3.02" fill="none"/><line x1="307.63" y1="277.99" x2="306.13" y2="277.99" stroke="#DCE3E5" stroke-width="2" stroke-miterlimit="10" fill="none"/><line x1="445.15" y1="278.19" x2="443.65" y2="278.19" stroke="#DCE3E5" stroke-width="2" stroke-miterlimit="10" fill="none"/><line x1="440.63" y1="278.19" x2="411.97" y2="278.19" stroke="#DCE3E5" stroke-width="2" stroke-miterlimit="10" stroke-dasharray="3.02 3.02" fill="none"/><line x1="410.46" y1="278.19" x2="408.96" y2="278.19" stroke="#DCE3E5" stroke-width="2" stroke-miterlimit="10" fill="none"/><line x1="446.46" y1="309.69" x2="444.96" y2="309.69" stroke="#D60000" stroke-width="2" stroke-miterlimit="10" fill="none"/><line x1="441.99" y1="309.69" x2="306.99" y2="309.69" stroke="#D60000" stroke-width="2" stroke-miterlimit="10" stroke-dasharray="2.97 2.97" fill="none"/><line x1="305.51" y1="309.69" x2="304.01" y2="309.69" stroke="#D60000" stroke-width="2" stroke-miterlimit="10" fill="none"/><rect x="304.51" y="185.92" width="143.11" height="131.78" stroke="#FFAF10" stroke-width="2" stroke-miterlimit="10" fill="none"/><path d="M490.24 120.72 496.24 111.91 502.24 120.91 490.24 120.72Z" fill="#CBD0D1"/><path d="M157.06 165.49C157.06 158.07 155.31 150.7 147.31 150.7L112.81 150.7C101.17 150.7 95.57 148.22 93.01 145.25 91.7074 143.782 90.9949 141.883 91.01 139.92 91.01 135.42 95.75 133.82 88.59 129.06 92.59 127.9 101.59 129.53 103.5 134.06 105.38 130.53 110.98 119.91 105.25 114.06 110.5 115.81 119.67 124.64 118.09 134.81 123.67 130.06 127.65 115.18 126.17 111.1 132.8 116.31 136.26 127.81 134.59 136.93 139.34 136.77 147 128.31 144.71 117.31 150.71 124.06 154.79 131.31 152.99 139.62 158.25 141.06 161.39 135.06 162.25 130.06 171.1 151.18 161.99 165.78 161.99 165.78Z" fill="#4C5054"/><path d="M92.4 166.33C96.07 163.98 101.61 166.67 101.4 164.98 100.65 158.86 101.07 153.67 106.57 150.42L94.13 146.34C90.44 145.76 91.38 149.93 91.07 157.17 90.8042 160.386 92.2615 163.502 94.9 165.36" fill="#4C5054"/><path d="M48.19 57.33 54.19 48.52 60.19 57.52 48.19 57.33Z" fill="#CBD0D1"/><rect x="17.97" y="18.35" width="399.67" height="30" stroke="#4C5054" stroke-miterlimit="10" fill="#EBF0F2"/><rect x="294.32" y="67.51" width="468.44" height="42.66" stroke="#4C5054" stroke-miterlimit="10" fill="#EBF0F2"/><text fill="#333332" font-family="Courier-Bold,Courier" font-weight="700" font-size="14" transform="translate(21.97 35.92)">' UNION SELECT username, password FROM users--</text><text fill="#333332" font-family="Courier-Bold,Courier" font-weight="700" font-size="14" transform="translate(302.57 83.16)">SELECT name, description FROM products WHERE category <tspan x="0" y="16.8">= 'Gifts' UNION SELECT username, password FROM users--</tspan></text><rect x="586.75" y="330.91" rx="11.43" ry="11.43" width="133.09" height="24.27" stroke="#D60000" stroke-miterlimit="10" fill="#EDD6D6"/><text fill="#D60000" font-family="Arial-BoldMT,Arial" font-weight="700" font-size="14" transform="translate(614.31 347.36)">All passwords</text><path d="M601.64 336.92 601.16 341.27 605.57 340.04 605.96 343.04 601.96 343.33 604.59 346.83 601.91 348.26 600.07 344.57 598.45 348.24 595.66 346.83 598.27 343.33 594.27 343.02 594.73 340.02 599.04 341.25 598.56 336.9Z" fill="#D60000"/><rect x="487.85" y="374.79" rx="12.13" ry="12.13" width="145.73" height="24.27" stroke="#D60000" stroke-miterlimit="10" fill="#EDD6D6"/><text fill="#D60000" font-family="Arial-BoldMT,Arial" font-weight="700" font-size="14" transform="translate(524.17 391.23)">All usernames</text><path d="M509.52 386.4C510.915 385.557 511.751 384.03 511.71 382.4 512.019 380.252 510.528 378.26 508.379 377.951 506.231 377.642 504.239 379.133 503.93 381.281 503.877 381.652 503.877 382.029 503.93 382.4 503.884 384.104 504.8 385.69 506.3 386.5 504.13 389.39 499.91 386.69 499.9 395.5L516.38 395.5C516.38 388.19 511.73 389.52 509.52 386.4Z" stroke="#D60000" stroke-miterlimit="10" fill="none"/><path d="M508.14 395.9 506.74 394.24 507.56 388.35 506.79 387.29 507.58 386.61 508.26 386.61 509.1 387.25 508.43 388.31 509.68 394.21 508.14 395.9Z" fill="#D60000"/><path d="M633.58 386.93 742.43 386.93 742.43 341.15" stroke="#D60000" stroke-miterlimit="10" fill="none"/><path d="M487.85 386.93 464.05 386.93 464.05 343.05" stroke="#D60000" stroke-miterlimit="10" fill="none"/><path d="M692.2 392.93 683.39 386.93 692.39 380.93 692.2 392.93Z" fill="#D60000"/></svg>