<svg width="781" height="440" viewBox="0 0 781 440" xmlns="http://www.w3.org/2000/svg" xmlns:xlink="http://www.w3.org/1999/xlink" overflow="hidden"><defs><clipPath id="a"><path d="M487.26 287 459.26 230C459.26 230 449.26 234.88 448.32 234.88L440.74 250.88 459 283.68C459.359 284.564 458.94 285.572 458.06 285.94 457.772 286.056 457.458 286.094 457.15 286.05L421.55 283C409.644 280.88 397.456 280.88 385.55 283L350.37 286C349.401 286.075 348.555 285.35 348.48 284.381 348.456 284.078 348.512 283.775 348.64 283.5L366.78 242.73 355.78 239.65C354.87 239.65 344.84 234.77 344.84 234.77L319.84 286.98C315.73 295.506 315.18 305.317 318.31 314.25L318.31 314.25C320.97 321.81 326.24 327.3 338.45 335.18 344.352 339.019 350.86 341.832 357.7 343.5 386.647 350.462 416.807 350.678 445.85 344.13 457.04 341.62 464.16 338.72 470.85 334.97 483.52 327.86 486.06 321.81 488.72 314.25L488.72 314.25C491.862 305.332 491.337 295.531 487.26 287Z" fill="none"/></clipPath></defs><path d="M421.23 244.57C374 212.74 336.59 196.81 307 193.51 288.91 191.11 275.3 207.69 279 219.27 289.2 251.22 327.93 295.21 347 308.88 352.35 304.7 403.79 307.49 406.15 304.2 407.15 302.25 410.25 293.29 412.15 284.48L408.71 281.59C410.81 276 418.25 251 421.23 244.57Z" stroke="#4C5054" stroke-width="2.48" stroke-miterlimit="10" fill="#4C5054"/><path d="M503.83 183.16C503.639 182.954 503.379 182.826 503.1 182.8 485.34 180.67 424.19 202.3 378.1 237.8 379.52 240.42 395.85 260.8 400.73 265.24 396.95 268.45 393.27 271.56 389.73 274.51 391.59 283.32 394.67 292.28 395.73 294.23 398.08 297.52 443.02 301.36 448.37 305.54 467.43 291.87 512.67 241.24 522.87 209.3 525.89 199.78 517 184.82 503.83 183.16Z" stroke="#4C5054" stroke-width="2.48" stroke-miterlimit="10" fill="#4C5054"/><rect x="384.51" y="237.83" rx="1.48" width="33.36" height="17" fill="#EDEDED"/><path d="M337.19 247.93C335.318 247.919 333.805 246.402 333.8 244.53L336.16 171.32 464.86 171.69 467.77 244.53C467.77 246.408 466.248 247.93 464.37 247.93Z" stroke="#4C5054" stroke-width="2.02" stroke-miterlimit="10" fill="#FFFFFF"/><rect x="398.3" y="183.83" rx="0.52" width="6.2" height="5.88" fill="#CBD0D1"/><rect x="382.94" y="183.83" rx="0.52" width="6.2" height="5.88" fill="#CBD0D1"/><rect x="390.62" y="183.83" rx="0.52" width="6.2" height="5.88" fill="#CBD0D1"/><path d="M368.1 189.71C367.813 189.71 367.58 189.477 367.58 189.19L367.58 184.35C367.58 184.063 367.813 183.83 368.1 183.83L373.26 183.83C373.542 183.824 373.774 184.048 373.78 184.33 373.78 184.33 373.78 184.33 373.78 184.33L373.78 189.19C373.78 189.477 373.547 189.71 373.26 189.71Z" fill="#CBD0D1"/><rect x="375.26" y="183.83" rx="0.52" width="6.2" height="5.88" fill="#CBD0D1"/><rect x="405.98" y="183.83" rx="0.52" width="6.2" height="5.88" fill="#CBD0D1"/><path d="M421.86 189.71C421.573 189.71 421.34 189.477 421.34 189.19L421.34 184.35C421.34 184.063 421.573 183.83 421.86 183.83L427 183.83C427.136 183.828 427.266 183.882 427.36 183.98 427.458 184.078 427.512 184.211 427.51 184.35L427.51 189.19C427.51 189.477 427.277 189.71 426.99 189.71Z" fill="#CBD0D1"/><path d="M429.54 189.71C429.253 189.71 429.02 189.477 429.02 189.19L429.02 184.35C429.02 184.063 429.253 183.83 429.54 183.83L434.71 183.83C434.846 183.827 434.977 183.881 435.07 183.98 435.171 184.077 435.229 184.21 435.23 184.35L435.23 189.19C435.23 189.477 434.997 189.71 434.71 189.71Z" fill="#CBD0D1"/><path d="M414.18 189.71C413.893 189.71 413.66 189.477 413.66 189.19L413.66 184.35C413.66 184.063 413.893 183.83 414.18 183.83L419.35 183.83C419.486 183.827 419.617 183.881 419.71 183.98 419.808 184.078 419.862 184.211 419.86 184.35L419.86 189.19C419.86 189.477 419.627 189.71 419.34 189.71Z" fill="#CBD0D1"/><rect x="399.89" y="205.9" rx="0.52" width="6.2" height="5.88" fill="#CBD0D1"/><path d="M385.05 211.78C384.911 211.782 384.778 211.728 384.68 211.63 384.582 211.536 384.528 211.406 384.53 211.27L384.53 206.42C384.54 206.137 384.767 205.91 385.05 205.9L390.22 205.9C390.503 205.91 390.73 206.137 390.74 206.42L390.74 211.27C390.74 211.552 390.512 211.78 390.23 211.78L385.05 211.78Z" fill="#CBD0D1"/><rect x="392.21" y="205.9" rx="0.52" width="6.2" height="5.88" fill="#CBD0D1"/><rect x="376.85" y="205.9" rx="0.52" width="6.2" height="5.88" fill="#CBD0D1"/><rect x="407.57" y="205.9" rx="0.52" width="6.2" height="5.88" fill="#CBD0D1"/><path d="M431.94 197.07C431.802 197.067 431.671 197.014 431.57 196.92 431.472 196.822 431.418 196.689 431.42 196.55L431.42 191.71C431.42 191.423 431.653 191.19 431.94 191.19L437.1 191.19C437.387 191.19 437.62 191.423 437.62 191.71L437.62 196.55C437.62 196.837 437.387 197.07 437.1 197.07Z" fill="#CBD0D1"/><rect x="358.61" y="198.55" rx="0.52" width="6.2" height="5.88" fill="#CBD0D1"/><rect x="359.9" y="183.83" rx="0.52" width="6.2" height="5.88" fill="#CBD0D1"/><rect x="354.62" y="191.19" rx="0.52" width="6.2" height="5.88" fill="#CBD0D1"/><path d="M362 211.78C361.718 211.786 361.486 211.562 361.48 211.28 361.48 211.28 361.48 211.28 361.48 211.28L361.48 211.28 361.48 206.43C361.49 206.147 361.717 205.92 362 205.91L367.17 205.91C367.307 205.909 367.438 205.968 367.53 206.07 367.629 206.163 367.683 206.294 367.68 206.43L367.68 211.28C367.68 211.562 367.452 211.79 367.17 211.79L362 211.79Z" fill="#CBD0D1"/><rect x="369.17" y="205.9" rx="0.52" width="6.2" height="5.88" fill="#CBD0D1"/><rect x="366.29" y="198.55" rx="0.52" width="6.2" height="5.88" fill="#CBD0D1"/><rect x="393.02" y="191.19" rx="0.52" width="6.2" height="5.88" fill="#CBD0D1"/><rect x="400.7" y="191.19" rx="0.52" width="6.2" height="5.88" fill="#CBD0D1"/><rect x="385.34" y="191.19" rx="0.52" width="6.2" height="5.88" fill="#CBD0D1"/><path d="M408.9 197.07C408.613 197.07 408.38 196.837 408.38 196.55L408.38 191.71C408.38 191.423 408.613 191.19 408.9 191.19L414.06 191.19C414.347 191.19 414.58 191.423 414.58 191.71L414.58 196.55C414.582 196.689 414.528 196.822 414.43 196.92 414.329 197.014 414.198 197.067 414.06 197.07Z" fill="#CBD0D1"/><rect x="377.66" y="191.19" rx="0.52" width="6.2" height="5.88" fill="#CBD0D1"/><rect x="423.74" y="191.19" rx="0.52" width="6.2" height="5.88" fill="#CBD0D1"/><rect x="369.98" y="191.19" rx="0.52" width="6.2" height="5.88" fill="#CBD0D1"/><path d="M444.15 182.35C443.863 182.35 443.63 182.117 443.63 181.83L443.63 179.42C443.63 179.133 443.863 178.9 444.15 178.9L448.15 178.9C448.432 178.894 448.664 179.118 448.67 179.4 448.67 179.4 448.67 179.4 448.67 179.4L448.67 181.83C448.67 182.117 448.437 182.35 448.15 182.35Z" fill="#CBD0D1"/><rect x="437.1" y="178.9" rx="0.52" width="5.02" height="3.45" fill="#CBD0D1"/><rect x="416.06" y="191.19" rx="0.52" width="6.2" height="5.88" fill="#CBD0D1"/><path d="M374.49 204.43C374.35 204.429 374.217 204.371 374.12 204.27 374.022 204.176 373.968 204.046 373.97 203.91L373.97 199.06C373.981 198.779 374.209 198.555 374.49 198.55L379.66 198.55C379.941 198.555 380.169 198.779 380.18 199.06L380.18 203.91C380.17 204.193 379.943 204.42 379.66 204.43Z" fill="#CBD0D1"/><path d="M412.89 204.43C412.75 204.429 412.617 204.371 412.52 204.27 412.422 204.176 412.368 204.046 412.37 203.91L412.37 199.06C412.37 198.778 412.598 198.55 412.88 198.55L418.05 198.55C418.332 198.544 418.564 198.768 418.57 199.05 418.57 199.05 418.57 199.05 418.57 199.05L418.57 199.05 418.57 203.9C418.56 204.183 418.333 204.41 418.05 204.42Z" fill="#CBD0D1"/><path d="M405.21 204.43C404.927 204.42 404.7 204.193 404.69 203.91L404.69 199.06C404.69 198.778 404.918 198.55 405.2 198.55L410.37 198.55C410.509 198.548 410.642 198.602 410.74 198.7 410.838 198.794 410.892 198.924 410.89 199.06L410.89 203.91C410.88 204.193 410.653 204.42 410.37 204.43Z" fill="#CBD0D1"/><path d="M420.57 204.43C420.287 204.42 420.06 204.193 420.05 203.91L420.05 199.06C420.05 198.778 420.278 198.55 420.56 198.55L425.73 198.55C426.012 198.544 426.244 198.768 426.25 199.05 426.25 199.05 426.25 199.05 426.25 199.05L426.25 199.05 426.25 203.9C426.24 204.183 426.013 204.41 425.73 204.42Z" fill="#CBD0D1"/><rect x="397.01" y="198.55" rx="0.52" width="6.2" height="5.88" fill="#CBD0D1"/><rect x="427.74" y="198.55" rx="0.52" width="6.2" height="5.88" fill="#CBD0D1"/><rect x="389.33" y="198.55" rx="0.52" width="6.2" height="5.88" fill="#CBD0D1"/><rect x="362.3" y="191.19" rx="0.52" width="6.2" height="5.88" fill="#CBD0D1"/><path d="M415.77 211.78C415.631 211.782 415.498 211.728 415.4 211.63 415.308 211.532 415.254 211.404 415.25 211.27L415.25 206.42C415.26 206.137 415.487 205.91 415.77 205.9L420.94 205.9C421.223 205.91 421.45 206.137 421.46 206.42L421.46 211.27C421.46 211.552 421.232 211.78 420.95 211.78L415.77 211.78Z" fill="#CBD0D1"/><path d="M382.17 204.43C382.03 204.429 381.897 204.371 381.8 204.27 381.702 204.176 381.648 204.046 381.65 203.91L381.65 199.06C381.661 198.779 381.889 198.555 382.17 198.55L387.34 198.55C387.622 198.544 387.854 198.768 387.86 199.05 387.86 199.05 387.86 199.05 387.86 199.05L387.86 199.05 387.86 203.9C387.85 204.183 387.623 204.41 387.34 204.42Z" fill="#CBD0D1"/><path d="M430.65 219.61C430.511 219.612 430.378 219.558 430.28 219.46 430.182 219.366 430.128 219.236 430.13 219.1L430.13 217.48C430.13 217.193 430.363 216.96 430.65 216.96L437.41 216.96C437.697 216.96 437.93 217.193 437.93 217.48L437.93 219.09C437.93 219.377 437.697 219.61 437.41 219.61Z" fill="#CBD0D1"/><rect x="422.93" y="205.9" rx="0.52" width="6.2" height="5.88" fill="#CBD0D1"/><rect x="376.37" y="213.26" rx="0.52" width="36.92" height="6.35" fill="#CBD0D1"/><path d="M415.29 219.61C415.151 219.612 415.018 219.558 414.92 219.46 414.822 219.366 414.768 219.236 414.77 219.1L414.77 213.78C414.77 213.493 415.003 213.26 415.29 213.26L420.46 213.26C420.742 213.26 420.97 213.488 420.97 213.77L420.97 213.77 420.97 219.08C420.97 219.367 420.737 219.6 420.45 219.6Z" fill="#CBD0D1"/><rect x="422.45" y="213.26" rx="0.52" width="6.2" height="6.35" fill="#CBD0D1"/><rect x="439.41" y="216.96" rx="0.52" width="7.8" height="2.65" fill="#CBD0D1"/><path d="M439.93 215.48C439.791 215.482 439.658 215.428 439.56 215.33 439.466 215.229 439.413 215.098 439.41 214.96L439.41 213.78C439.41 213.493 439.643 213.26 439.93 213.26L446.7 213.26C446.834 213.264 446.962 213.318 447.06 213.41 447.158 213.508 447.212 213.641 447.21 213.78L447.21 215C447.21 215.287 446.977 215.52 446.69 215.52Z" fill="#CBD0D1"/><path d="M361.53 219.61C361.243 219.61 361.01 219.377 361.01 219.09L361.01 213.78C361.01 213.493 361.243 213.26 361.53 213.26L366.69 213.26C366.977 213.26 367.21 213.493 367.21 213.78L367.21 219.1C367.212 219.236 367.158 219.366 367.06 219.46 366.962 219.558 366.829 219.612 366.69 219.61Z" fill="#CBD0D1"/><path d="M345.26 211.78 345.26 206.42C345.265 206.131 345.501 205.9 345.79 205.9L359.5 205.9C359.781 205.911 360.005 206.139 360.01 206.42L360.01 211.27C360.01 211.552 359.782 211.78 359.5 211.78L345.26 211.78Z" fill="#CBD0D1"/><path d="M345.27 204.43 345.27 199.06C345.27 198.778 345.498 198.55 345.78 198.55L356.62 198.55C356.901 198.555 357.129 198.779 357.14 199.06L357.14 203.91C357.13 204.193 356.903 204.42 356.62 204.43Z" fill="#CBD0D1"/><rect x="353.33" y="213.26" rx="0.52" width="6.2" height="6.35" fill="#CBD0D1"/><rect x="345.26" y="213.26" rx="0.52" width="6.59" height="6.35" fill="#CBD0D1"/><path d="M450.68 182.35C450.393 182.35 450.16 182.117 450.16 181.83L450.16 179.42C450.16 179.133 450.393 178.9 450.68 178.9L455 178.9C455.282 178.894 455.514 179.118 455.52 179.4 455.52 179.4 455.52 179.4 455.52 179.4L455.52 181.83C455.52 182.117 455.287 182.35 455 182.35Z" fill="#CBD0D1"/><path d="M345.27 197.07 345.27 191.71C345.27 191.423 345.503 191.19 345.79 191.19L352.62 191.19C352.907 191.19 353.14 191.423 353.14 191.71L353.14 196.55C353.14 196.837 352.907 197.07 352.62 197.07Z" fill="#CBD0D1"/><path d="M345.79 182.35C345.651 182.352 345.518 182.298 345.42 182.2 345.326 182.099 345.273 181.968 345.27 181.83L345.27 179.42C345.27 179.133 345.503 178.9 345.79 178.9L350.21 178.9C350.497 178.9 350.73 179.133 350.73 179.42L350.73 181.83C350.73 182.117 350.497 182.35 350.21 182.35Z" fill="#CBD0D1"/><rect x="448.69" y="216.96" rx="0.52" width="6.82" height="2.65" fill="#CBD0D1"/><path d="M444.9 189.71C444.613 189.71 444.38 189.477 444.38 189.19L444.38 184.35C444.38 184.063 444.613 183.83 444.9 183.83L455.52 183.83 455.52 189.19C455.52 189.477 455.287 189.71 455 189.71Z" fill="#CBD0D1"/><path d="M438.81 211.78C438.523 211.78 438.29 211.547 438.29 211.26L438.29 206.42C438.3 206.137 438.527 205.91 438.81 205.9L455.06 205.9C455.303 205.894 455.504 206.087 455.51 206.33 455.51 206.337 455.51 206.343 455.51 206.35L455.51 211.26C455.51 211.547 455.277 211.78 454.99 211.78Z" fill="#CBD0D1"/><path d="M443.61 204.43C443.327 204.42 443.1 204.193 443.09 203.91L443.09 199.06C443.09 198.778 443.318 198.55 443.6 198.55L455.5 198.55 455.5 203.91C455.5 204.197 455.267 204.43 454.98 204.43Z" fill="#CBD0D1"/><path d="M447.3 197.07C447.162 197.067 447.031 197.014 446.93 196.92 446.832 196.822 446.778 196.689 446.78 196.55L446.78 191.71C446.78 191.423 447.013 191.19 447.3 191.19L455.51 191.19 455.51 196.55C455.51 196.837 455.277 197.07 454.99 197.07Z" fill="#CBD0D1"/><rect x="368.69" y="213.26" rx="0.52" width="6.2" height="6.35" fill="#CBD0D1"/><rect x="436.7" y="183.83" rx="0.52" width="6.2" height="5.88" fill="#CBD0D1"/><path d="M424.57 182.35C424.283 182.35 424.05 182.117 424.05 181.83L424.05 179.42C424.05 179.133 424.283 178.9 424.57 178.9L428.57 178.9C428.706 178.898 428.836 178.952 428.93 179.05 429.028 179.148 429.082 179.281 429.08 179.42L429.08 181.83C429.08 182.117 428.847 182.35 428.56 182.35Z" fill="#CBD0D1"/><rect x="404.46" y="178.9" rx="0.52" width="5.02" height="3.45" fill="#CBD0D1"/><path d="M411.51 182.35C411.228 182.356 410.996 182.132 410.99 181.85 410.99 181.85 410.99 181.85 410.99 181.85L410.99 179.42C410.99 179.133 411.223 178.9 411.51 178.9L415.51 178.9C415.797 178.9 416.03 179.133 416.03 179.42L416.03 181.83C416.03 182.117 415.797 182.35 415.51 182.35Z" fill="#CBD0D1"/><rect x="417.52" y="178.9" rx="0.52" width="5.02" height="3.45" fill="#CBD0D1"/><path d="M431.1 182.35C430.818 182.356 430.586 182.132 430.58 181.85 430.58 181.85 430.58 181.85 430.58 181.85L430.58 179.42C430.58 179.133 430.813 178.9 431.1 178.9L435.1 178.9C435.387 178.9 435.62 179.133 435.62 179.42L435.62 181.83C435.62 182.117 435.387 182.35 435.1 182.35Z" fill="#CBD0D1"/><path d="M431.13 211.78C430.991 211.782 430.858 211.728 430.76 211.63 430.668 211.532 430.614 211.404 430.61 211.27L430.61 206.42C430.62 206.137 430.847 205.91 431.13 205.9L436.3 205.9C436.44 205.901 436.573 205.959 436.67 206.06 436.768 206.154 436.822 206.284 436.82 206.42L436.82 211.27C436.809 211.551 436.581 211.775 436.3 211.78Z" fill="#CBD0D1"/><path d="M439.62 197.07C439.482 197.067 439.351 197.014 439.25 196.92 439.152 196.822 439.098 196.689 439.1 196.55L439.1 191.71C439.1 191.423 439.333 191.19 439.62 191.19L444.78 191.19C445.067 191.19 445.3 191.423 445.3 191.71L445.3 196.55C445.3 196.837 445.067 197.07 444.78 197.07Z" fill="#CBD0D1"/><rect x="435.42" y="198.55" rx="0.52" width="6.2" height="5.88" fill="#CBD0D1"/><path d="M398.45 182.35C398.163 182.35 397.93 182.117 397.93 181.83L397.93 179.42C397.924 179.138 398.148 178.906 398.43 178.9 398.43 178.9 398.43 178.9 398.43 178.9L402.43 178.9C402.712 178.894 402.944 179.118 402.95 179.4 402.95 179.4 402.95 179.4 402.95 179.4L402.95 181.83C402.95 182.117 402.717 182.35 402.43 182.35Z" fill="#CBD0D1"/><rect x="358.77" y="178.9" rx="0.52" width="5.01" height="3.45" fill="#CBD0D1"/><rect x="352.24" y="178.9" rx="0.52" width="5.02" height="3.45" fill="#CBD0D1"/><rect x="365.29" y="178.9" rx="0.52" width="5.02" height="3.45" fill="#CBD0D1"/><rect x="352.22" y="183.83" rx="0.52" width="6.2" height="5.88" fill="#CBD0D1"/><rect x="391.41" y="178.9" rx="0.52" width="5.02" height="3.45" fill="#CBD0D1"/><path d="M345.27 189.71 345.27 184.35C345.27 184.063 345.503 183.83 345.79 183.83L350.22 183.83C350.507 183.83 350.74 184.063 350.74 184.35L350.74 189.19C350.74 189.477 350.507 189.71 350.22 189.71Z" fill="#CBD0D1"/><path d="M372.34 182.35C372.053 182.35 371.82 182.117 371.82 181.83L371.82 179.42C371.82 179.133 372.053 178.9 372.34 178.9L376.34 178.9C376.479 178.898 376.612 178.952 376.71 179.05 376.804 179.151 376.857 179.282 376.86 179.42L376.86 181.83C376.86 182.117 376.627 182.35 376.34 182.35Z" fill="#CBD0D1"/><rect x="384.88" y="178.9" rx="0.52" width="5.02" height="3.45" fill="#CBD0D1"/><path d="M378.87 182.35C378.583 182.35 378.35 182.117 378.35 181.83L378.35 179.42C378.35 179.133 378.583 178.9 378.87 178.9L382.87 178.9C383.006 178.897 383.137 178.951 383.23 179.05 383.331 179.147 383.389 179.28 383.39 179.42L383.39 181.83C383.39 182.117 383.157 182.35 382.87 182.35Z" fill="#CBD0D1"/><path d="M326.77 102.18 336.09 171.34 465 171.34 474.32 102.19Z" stroke="#4C5054" stroke-width="2.02" stroke-miterlimit="10" fill="#FFFFFF"/><path d="M456.69 165.46 345.46 165.46C344.012 165.46 342.792 164.378 342.62 162.94L336 112.94C335.812 111.366 336.936 109.938 338.51 109.75 338.51 109.75 338.51 109.75 338.51 109.75L338.85 109.75 462.85 109.75C464.43 109.75 465.71 111.03 465.71 112.61 465.71 112.73 465.71 112.84 465.71 112.96 464.43 123.32 460.71 153.7 459.61 162.96 459.421 164.418 458.16 165.498 456.69 165.46Z" stroke="#4C5054" stroke-width="2.02" stroke-miterlimit="10" fill="#FFFFFF"/><path d="M347.88 266.41C347.88 266.41 347.51 237.14 347.32 235.62L345.19 218.09C345.19 218.09 343.58 206.09 343.82 204.09 343.82 202.73 347.44 203.36 347.9 205.26 348.22 206.55 348.77 214.03 350.18 216.98 349.98 214.21 349.1 204.38 349.1 204.38L350.9 194.23C350.9 194.11 351.9 194.15 351.95 194.08 352.051 193.999 352.184 193.97 352.31 194 353.039 194.126 353.666 194.59 354 195.25L354.28 195.79 354.96 191.34C355.046 190.868 355.484 190.545 355.96 190.6L355.96 190.6C357.638 190.72 358.943 192.108 358.96 193.79L358.96 204.46C358.96 204.46 360.87 214.87 361.08 214.84 361.61 214.84 361.35 203.58 361.35 203.58L362.3 193.45C362.406 192.909 362.929 192.556 363.47 192.66L363.53 192.66C364.9 193.01 366.69 194.82 366.66 196.24L366.46 204.16 367.59 216C367.59 216 368.39 219 369.03 220.9 369.27 221.61 372.85 216.9 372.85 216.9L374.1 211.59C374.38 210.1 375.408 208.861 376.82 208.31L376.82 208.31C377.82 207.91 379.12 210.06 379.12 211.17L379.12 217.52C379.121 218.239 378.999 218.952 378.76 219.63L375.08 229.94C374.831 230.619 374.469 231.251 374.01 231.81L367.86 239.2C366.27 241.108 365.202 243.396 364.76 245.84L348.24 263.29Z" stroke="#4C5054" stroke-width="4.96" stroke-miterlimit="3" fill="#FFFFFF"/><path d="M347.88 266.41C347.88 266.41 347.51 237.14 347.32 235.62L345.19 218.09C345.19 218.09 343.58 206.09 343.82 204.09 343.82 202.73 347.44 203.36 347.9 205.26 348.112 207.547 348.178 209.845 348.1 212.14L350.9 194.23C350.9 194.11 351.9 194.15 351.95 194.08 352.051 193.999 352.184 193.97 352.31 194 353.039 194.126 353.666 194.59 354 195.25L354.28 195.79 354.96 191.34C355.046 190.868 355.484 190.545 355.96 190.6L355.96 190.6C357.638 190.72 358.943 192.108 358.96 193.79L358.96 213.79 360.15 205.49 362.34 193.49C362.446 192.949 362.969 192.596 363.51 192.7L363.57 192.7C364.94 193.05 366.73 194.86 366.7 196.28L366.5 204.2 367.59 216C367.59 216 368.39 219 369.03 220.9 369.27 221.61 372.85 216.9 372.85 216.9L374.1 211.59C374.38 210.1 375.408 208.861 376.82 208.31L376.82 208.31C377.82 207.91 379.12 210.06 379.12 211.17L379.12 217.52C379.121 218.239 378.999 218.952 378.76 219.63L375.08 229.94C374.831 230.619 374.469 231.251 374.01 231.81L367.86 239.2C366.27 241.108 365.202 243.396 364.76 245.84L348.24 263.29Z" fill="#FFFFFF"/><path d="M458.77 255.91C458.77 255.91 455.69 226.79 455.7 225.26L455.75 207.6C455.75 207.6 455.93 195.49 455.47 193.6 455.29 192.25 451.78 193.3 451.54 195.25 451.39 196.56 451.72 204.05 450.66 207.15 450.54 204.37 450.25 194.51 450.25 194.51L447.25 184.65C447.25 184.52 446.3 184.65 446.19 184.65 446.07 184.61 445.94 184.61 445.82 184.65 445.114 184.872 444.549 185.407 444.29 186.1L444.08 186.67 442.88 182.33C442.743 181.907 442.32 181.644 441.88 181.71L441.88 181.71C440.215 182.01 439.066 183.548 439.25 185.23L440.49 195.83C440.49 195.83 439.82 206.39 439.61 206.39 439.08 206.39 438.02 195.24 438.02 195.24L435.87 185.24C435.703 184.713 435.141 184.422 434.615 184.588 434.613 184.589 434.612 184.589 434.61 184.59L434.56 184.59 434.56 184.59C433.24 185.1 431.68 187.11 431.88 188.51L433.01 196.35 433.27 208.18C433.27 208.18 432.84 211.27 432.42 213.18 432.27 213.9 428.15 209.62 428.15 209.62L426.29 204.5C425.839 203.051 424.67 201.938 423.2 201.56L423.2 201.56C422.13 201.29 421.13 203.56 421.25 204.68L422 211C422.078 211.713 422.282 212.407 422.6 213.05L427.47 222.85C427.793 223.5 428.226 224.088 428.75 224.59L435.75 231.2C437.55 232.911 438.879 235.057 439.61 237.43L458 252.78Z" stroke="#4C5054" stroke-width="4.96" stroke-miterlimit="3" fill="#FFFFFF"/><path d="M458.77 255.91C458.77 255.91 455.69 226.79 455.7 225.26L455.75 207.6C455.75 207.6 455.93 195.49 455.47 193.6 455.29 192.25 451.78 193.3 451.54 195.25 451.39 196.56 451.83 202.46 451.83 202.46L447.27 184.65C447.27 184.52 446.32 184.65 446.21 184.65 446.09 184.61 445.96 184.61 445.84 184.65 445.134 184.872 444.569 185.407 444.31 186.1L444.1 186.67 442.9 182.33C442.763 181.907 442.34 181.644 441.9 181.71L441.9 181.71C440.235 182.01 439.086 183.548 439.27 185.23L442.38 202.41 442.01 201.89 435.89 185.29C435.723 184.763 435.161 184.472 434.635 184.638 434.633 184.639 434.632 184.639 434.63 184.64L434.58 184.64 434.58 184.64C433.26 185.15 431.7 187.16 431.9 188.56L433.03 196.4 433.29 208.23C433.29 208.23 432.86 211.32 432.44 213.23 432.29 213.95 428.17 209.67 428.17 209.67L426.31 204.55C425.859 203.101 424.69 201.988 423.22 201.61L423.22 201.61C422.15 201.34 421.15 203.61 421.22 204.73L422 211C422.078 211.713 422.282 212.407 422.6 213.05L427.47 222.85C427.793 223.5 428.226 224.088 428.75 224.59L435.75 231.2C437.55 232.911 438.879 235.057 439.61 237.43L458 252.78Z" fill="#FFFFFF"/><path d="M487.26 287 460.9 235.15C460.9 235.15 440.72 238.83 439.82 238.83L440.82 250.83 459.11 283.63C459.469 284.514 459.05 285.522 458.17 285.89 457.882 286.006 457.568 286.044 457.26 286L421.63 282.9C409.724 280.78 397.536 280.78 385.63 282.9L350.37 286C349.401 286.075 348.555 285.35 348.48 284.381 348.456 284.078 348.512 283.775 348.64 283.5L368.13 246.26 362.47 243.26C361.57 243.26 341.72 242.01 341.72 242.01L316.36 294.26C315.82 295.39 315.26 305.26 318.36 314.21L318.36 314.21C321.02 321.77 326.29 327.26 338.5 335.14 344.402 338.979 350.91 341.792 357.75 343.46 386.697 350.422 416.857 350.638 445.9 344.09 457.09 341.58 464.21 338.68 470.9 334.93 483.57 327.82 486.11 321.77 488.77 314.21L488.77 314.21C491.887 305.297 491.344 295.513 487.26 287Z" stroke="#4C5054" stroke-width="2.31" stroke-miterlimit="10" fill="#FFFFFF"/><g clip-path="url(#a)"><path d="M444.15 324C444.15 324 436.15 330 402.74 330 369.33 330 361.74 324 361.74 324 359.487 322.809 357.779 320.796 356.97 318.38 355.642 314.336 354.967 310.106 354.97 305.85 354.97 298.36 355.06 302.85 356.92 297.23 357.57 294.85 361.55 293.23 363.57 293.23L402.43 289.14 443.13 292.32C445.13 292.32 447.65 294.84 448.31 297.22 449.512 299.845 450.24 302.662 450.46 305.54 450.99 314.22 448.8 318.54 448.8 318.54 447.737 320.724 446.137 322.603 444.15 324Z" stroke="#4C5054" stroke-width="12.8" stroke-miterlimit="10" fill="none"/><path d="M470 335.13C470 335.13 457.32 348.62 403.52 348.62 349.72 348.62 335.06 335.23 335.06 335.23 331.63 333.47 328.41 330.6 327.37 327.11 327.37 327.11 326.64 325.64 326.64 315.27 326.69 308.835 327.75 302.447 329.78 296.34 330.651 293.041 333.58 290.701 336.99 290.58L403.13 284.66 468.71 289.25C471.97 289.25 477.62 293.49 478.71 296.94 478.71 296.94 480.55 300.74 480.55 313.31 480.55 325.88 477.88 326.23 477.88 326.23 476 329.54 473.07 333.37 470 335.13Z" stroke="#4C5054" stroke-width="13.16" stroke-miterlimit="10" fill="none"/><path d="M499.35 360.43C499.35 360.43 481.16 375.24 405.42 375.24 329.68 375.24 312.48 360.43 312.48 360.43 307.65 357.43 303.12 352.43 301.66 346.48 298.661 336.387 297.158 325.909 297.2 315.38 297.2 297.59 299.38 271.57 299.38 271.57 296.26 283.96 294.69 270.95 305.79 270.95L402.99 297.15 504.89 267.27C509.47 267.27 511.26 262.35 512.75 268.27 512.75 268.27 513.83 293.05 513.83 314.62 513.83 336.19 510.07 346.8 510.07 346.8 507.39 352.48 503.64 357.4 499.35 360.43Z" stroke="#4C5054" stroke-width="13.39" stroke-miterlimit="10" fill="none"/><path d="M329.32 255C331.51 256.64 370.04 260.94 370.04 260.94" stroke="#4C5054" stroke-width="13.39" stroke-miterlimit="10" fill="none"/><line x1="441.05" y1="259.29" x2="475.42" y2="250.9" stroke="#4C5054" stroke-width="13.39" stroke-miterlimit="10" fill="none"/></g><path d="M384.51 249.4 384.51 253.35C384.51 254.162 385.168 254.82 385.98 254.82L416.39 254.82C417.202 254.826 417.864 254.172 417.87 253.36 417.87 253.36 417.87 253.36 417.87 253.36L417.87 253.36 417.87 249.4Z" fill="#DADADA"/><path d="M355.2 255.9C363.28 249.17 368.37 242.51 369.92 228.13 381.1 182.25 443.72 209.9 440.64 233.96 440.15 237.8 439.64 241.39 439.12 244.82 441.52 248.93 446.67 252.61 450.48 256.12 452.06 257.57 449.87 272.96 445.26 275.91 441.9 278.06 430.81 277.43 430.36 280.91 429.23 289.54 423.92 299.41 423.61 302.39 421.71 320.39 384.08 321.92 381.61 301.64 380.91 295.91 376.51 289.54 375.39 280.91 374.94 277.47 360.51 278.54 357.15 276.39 352.55 273.4 351.55 258.94 355.2 255.9Z" stroke="#4C5054" stroke-width="2.35" stroke-miterlimit="10" fill="#FFFFFF"/><path d="M393.92 197.38C378.7 193.5 367.04 205.93 359.63 227.72 359.21 228.93 358.83 230.19 358.48 231.5 357.48 240.24 357.85 239.75 359.16 252.85 361.05 257.7 363.16 269.13 364.4 272.51 364.32 272.6 368.98 281.43 368.98 281.43 368.98 281.43 376.25 292.12 376.25 298.75 376.25 300.7 373.83 303.27 373.85 303.27 375.52 302.59 375.85 303.03 379.8 299.27 381.8 297.27 383.62 298.99 385.4 302.27 386.246 303.94 387.216 305.544 388.3 307.07 388.87 302.97 389.9 302.5 391.35 302.78 392.6 303.01 395.6 307.06 397.6 309.62 398.839 308.062 399.708 306.243 400.14 304.3 400.86 299.79 409.09 305.81 407.62 309.69 407.62 309.78 409.26 311.02 411.62 304.49 413.98 297.96 417.26 302.03 417.01 305.92 416.9 307.65 416.39 308.76 416.7 308.36 419.7 304.29 420.19 299.77 422.25 300.08 424.31 300.39 428.79 304.82 428.36 303.84 427.23 301.26 428.28 295.17 428.98 292.47 429.92 288.88 432.98 283.56 435.26 278.47 441.07 265.4 442.51 267.47 446.26 251.66 446.26 251.66 449.26 198.12 416.75 197.19 403.4 196.78 402 202 402 202 402 202 396.22 198 393.92 197.38Z" stroke="#4C5054" stroke-width="2.39" stroke-miterlimit="3" fill="#FFFFFF"/><line x1="402.06" y1="227.65" x2="401.95" y2="201.17" stroke="#4C5054" stroke-width="2.39" stroke-miterlimit="3" fill="none"/><path d="M401.88 211.28C400.51 208.59 396.29 204.39 389.19 207.57" stroke="#4C5054" stroke-width="2.39" stroke-miterlimit="3" fill="#FFFFFF"/><path d="M401.74 215.71C401.74 215.71 406.62 209.03 415.65 213.11" stroke="#4C5054" stroke-width="2.39" stroke-miterlimit="3" fill="#FFFFFF"/><path d="M401.83 207.42C401.83 207.42 403.36 202.8 412.78 204.62" stroke="#4C5054" stroke-width="2.39" stroke-miterlimit="3" fill="#FFFFFF"/><path d="M424.31 141.87 375.76 141.87 374.98 134.53 424.8 134.53 424.31 141.87Z" fill="#D0F1F7"/><path d="M423.67 152.13 376.98 152.13 376.23 145.07 424.14 145.07 423.67 152.13Z" fill="#D0F1F7"/><path d="M454.66 129.34 347.3 129.34 346.14 117.97 456.09 117.97 454.66 129.34Z" fill="#D0F1F7"/><path d="M451.45 158.77 456.37 117.78 345.94 117.78 351.05 158.77 451.45 158.77Z" stroke="#29ACE5" stroke-miterlimit="10" fill="none"/><path d="M580.8 160.35 580.8 185.58 552.39 185.58 552.39 223.81 572.1 223.81 572.1 248.22 538.42 248.22 538.42 269.19 554.71 269.19 587.05 269.19" stroke="#CBD0D1" stroke-miterlimit="10" fill="none"/><path d="M552.38 209.54 546.61 201.27 558.14 201.27 552.38 209.54Z" fill="#CBD0D1"/><path d="M588.94 269.21 580.66 274.98 580.66 263.45 588.94 269.21Z" fill="#CBD0D1"/><rect x="49.91" y="28.02" width="382.06" height="47.62" stroke="#0071BC" stroke-width="2" stroke-miterlimit="10" fill="#D0F1F7"/><g><text fill="#333332" font-family="Courier-Bold,Courier" font-weight="700" font-size="14" transform="translate(63.64 46.84)">badguy';update users set password='letmein'</text><text fill="#333332" font-family="Courier-Bold,Courier" font-weight="700" font-size="14" transform="translate(63.64 63.64)">where user='administrator'--</text></g><path d="M535.75 303.43 528.51 323.6C527.459 326.527 528.975 329.752 531.9 330.81L531.9 330.81 583.59 349.28C586.52 350.33 589.746 348.809 590.8 345.88L598.52 324.39C599.57 321.46 597.57 319.56 594.64 318.5L543 300C540.073 298.934 536.836 300.442 535.77 303.369 535.77 303.369 535.77 303.37 535.77 303.37Z" fill="#C6C6C6"/><path d="M591.73 346.13C590.728 348.912 587.663 350.357 584.88 349.36L529 329.1C526.217 328.094 524.77 325.029 525.76 322.24L533 302.08C534.002 299.298 537.067 297.853 539.85 298.85L595.77 319.12C598.07 319.94 600.58 321.57 599.48 324.64Z" stroke="#4C5054" stroke-width="2" stroke-miterlimit="10" fill="#FFFFFF"/><rect x="546.18" y="299.16" width="31.01" height="49.9" fill="#4C5054" transform="matrix(0.337917 -0.941176 0.941176 0.337917 66.84 743.23)"/><line x1="532.81" y1="318.2" x2="535.84" y2="310.07" stroke="#4C5054" stroke-width="2" stroke-linecap="round" stroke-miterlimit="10" fill="none"/><circle cx="589.8" cy="334.51" r="2.71" stroke="#4C5054" stroke-width="2" stroke-linecap="round" stroke-miterlimit="10" fill="none"/><path d="M233.65 338.59 233.91 332.28C233.928 331.783 234.21 331.332 234.65 331.1L278.32 308.24" stroke="#CBD0D1" stroke-width="2" stroke-miterlimit="10" fill="none"/><path d="M281.61 320 277.72 315.88C277.379 315.521 276.873 315.369 276.39 315.48L228.52 326.8" stroke="#CBD0D1" stroke-width="2" stroke-miterlimit="10" fill="none"/><path d="M250.85 321.44 251.27 321.02C252.866 319.423 255.127 318.68 257.36 319.02L257.36 319.02" stroke="#4C5054" stroke-width="2" stroke-miterlimit="10" fill="#FFFFFF"/><path d="M232.83 347.87 233.64 338.92 233.65 338.59" stroke="#4C5054" stroke-width="2" stroke-linecap="round" stroke-miterlimit="10" fill="none"/><path d="M288.76 326.95 282.28 320.72 281.85 320.28" stroke="#4C5054" stroke-width="2" stroke-linecap="round" stroke-miterlimit="10" fill="none"/><path d="M259.38 323.67C262.88 328.24 268.38 331.21 274.38 328.96 280.38 326.71 282.23 321.1 281.97 315.35 281.87 313.03 281.32 310.24 279.26 308.68 276.86 306.86 270.47 308.68 266.94 310.26 263.41 311.84 258.24 315.04 257.26 318.06 256.7 319.88 258 321.88 259.38 323.67Z" stroke="#4C5054" stroke-width="2" stroke-miterlimit="10" fill="none"/><path d="M252.9 326.09C253.26 331.83 251.06 337.7 245.04 339.95 239.02 342.2 233.95 339.17 230.38 334.66 228.93 332.84 227.52 330.37 228.05 327.85 228.67 324.85 234.7 322.09 238.38 320.96 242.06 319.83 248.08 318.85 250.81 320.49 252.44 321.47 252.76 323.84 252.9 326.09Z" stroke="#4C5054" stroke-width="2" stroke-miterlimit="10" fill="none"/><rect x="210.88" y="97.75" rx="4.07" width="20.46" height="8.15" fill="#4C5054" transform="matrix(0.898488 -0.438999 0.438999 0.898488 -22.25 107.4)"/><circle cx="203.75" cy="109.7" r="18.38" stroke="#4C5054" stroke-width="1.86" stroke-miterlimit="10" fill="#FFFFFF"/><circle cx="203.75" cy="109.7" r="12.89" fill="#4C5054"/><rect x="81.11" y="195.12" width="133.34" height="23.33" fill="#EDD6D6"/><rect x="81.11" y="229.07" width="133.34" height="23.33" fill="#EDD6D6"/><rect x="25.39" y="140.65" width="219.47" height="32.9" fill="#EDD6D6"/><rect x="24.45" y="141" width="221.56" height="136.87" stroke="#D60000" stroke-width="2" stroke-miterlimit="10" fill="none"/><text fill="#D60000" font-family="Arial-BoldMT,Arial" font-weight="700" font-size="18" transform="translate(106.74 164.04)">LOGIN</text><text fill="#D60000" font-family="Arial-BoldMT,Arial" font-weight="700" font-size="13.7" transform="translate(88.91 212.07)">administrator</text><text fill="#D60000" font-family="Arial-BoldMT,Arial" font-weight="700" font-size="13.7" transform="translate(88.91 245.72)">letmein</text><path d="M54.94 206.88C50.0136 206.869 46.0111 210.854 46 215.78L46 215.78 63.87 215.78C63.8535 210.86 59.8602 206.88 54.94 206.88Z" stroke="#D60000" stroke-width="2" stroke-miterlimit="10" fill="none"/><circle cx="54.94" cy="201.29" r="5.4" stroke="#D60000" stroke-width="2" stroke-miterlimit="10" fill="none"/><rect x="81.11" y="195.12" width="133.34" height="23.33" stroke="#D60000" stroke-width="2" stroke-miterlimit="10" fill="none"/><rect x="81.11" y="229.07" width="133.34" height="23.33" stroke="#D60000" stroke-width="2" stroke-miterlimit="10" fill="none"/><path d="M260.49 271.58C260.653 272.504 260.737 273.441 260.74 274.38 260.741 283.183 253.605 290.321 244.801 290.321 235.998 290.322 228.861 283.186 228.86 274.383 228.859 265.579 235.995 258.442 244.799 258.441 248.621 258.441 252.316 259.814 255.21 262.31" stroke="#D60000" stroke-width="2" stroke-miterlimit="10" fill="#FFFFFF"/><path d="M236.96 270.73 245.47 279.24 263.41 261.3" stroke="#D60000" stroke-width="2" stroke-miterlimit="10" fill="none"/><line x1="24.68" y1="173.76" x2="245.79" y2="173.76" stroke="#D60000" stroke-width="2" stroke-miterlimit="10" fill="none"/><rect x="47.78" y="237.69" width="14.72" height="14.72" stroke="#D60201" stroke-width="2" stroke-miterlimit="10" fill="none"/><path d="M58.92 237.43 58.92 232C58.92 229.912 57.2276 228.22 55.14 228.22 53.0524 228.22 51.36 229.912 51.36 232L51.36 232 51.36 233.39" stroke="#D60201" stroke-width="2" stroke-miterlimit="10" fill="none"/><circle cx="55.44" cy="243.31" r="2.47" fill="#D60201"/><line x1="55.44" y1="244.92" x2="55.44" y2="248.61" stroke="#D60201" stroke-width="2" stroke-linecap="round" stroke-miterlimit="10" fill="none"/><rect x="535.1" y="23.51" width="221.3" height="32.9" fill="#D0F1F7"/><path d="M756.54 64.13 756.54 160.58 534.98 160.58 534.98 23.71 756.54 23.71 756.54 64.13" stroke="#0071BC" stroke-width="2" stroke-miterlimit="10" fill="none"/><g><text fill="#0071BC" font-family="Arial-BoldMT,Arial" font-weight="700" font-size="18" transform="translate(547.1 46.86)">CRE</text><text fill="#0071BC" font-family="Arial-BoldMT,Arial" font-weight="700" font-size="18" letter-spacing="-0.11em" transform="translate(585.1 46.86)">A</text><text fill="#0071BC" font-family="Arial-BoldMT,Arial" font-weight="700" font-size="18" transform="translate(596.77 46.86)">TE</text><text fill="#0071BC" font-family="Arial-BoldMT,Arial" font-weight="700" font-size="18" letter-spacing="-0.04em" transform="translate(619.77 46.86)"></text><text fill="#0071BC" font-family="Arial-BoldMT,Arial" font-weight="700" font-size="18" transform="translate(624.1 46.86)">AN</text><text fill="#0071BC" font-family="Arial-BoldMT,Arial" font-weight="700" font-size="18" letter-spacing="-0.04em" transform="translate(650.1 46.86)"></text><text fill="#0071BC" font-family="Arial-BoldMT,Arial" font-weight="700" font-size="18" transform="translate(654.43 46.86)">ACCOUNT</text></g><path d="M565.47 89.6C560.544 89.6 556.55 93.5936 556.55 98.52L574.39 98.52C574.39 93.5936 570.396 89.6 565.47 89.6Z" stroke="#0071BC" stroke-width="2" stroke-miterlimit="10" fill="none"/><circle cx="565.47" cy="84.01" r="5.4" stroke="#0071BC" stroke-width="2" stroke-miterlimit="10" fill="none"/><rect x="591.64" y="77.84" width="133.34" height="23.33" stroke="#0071BC" stroke-width="2" stroke-miterlimit="10" fill="#D0F1F7"/><rect x="591.64" y="111.79" width="133.34" height="23.33" stroke="#0071BC" stroke-width="2" stroke-miterlimit="10" fill="#D0F1F7"/><line x1="535.21" y1="56.48" x2="756.32" y2="56.48" stroke="#0071BC" stroke-width="2" stroke-miterlimit="10" fill="none"/><rect x="557.95" y="120.05" width="14.72" height="14.72" stroke="#0071BC" stroke-width="2" stroke-miterlimit="10" fill="none"/><path d="M569.09 119.79 569.09 114.35C569.09 112.262 567.398 110.57 565.31 110.57 563.222 110.57 561.53 112.262 561.53 114.35L561.53 115.75" stroke="#0071BC" stroke-width="2" stroke-miterlimit="10" fill="none"/><circle cx="565.61" cy="125.68" r="2.47" fill="#0071BC"/><line x1="565.61" y1="127.28" x2="565.61" y2="130.97" stroke="#0071BC" stroke-width="2" stroke-linecap="round" stroke-miterlimit="10" fill="none"/><path d="M316.93 89.62 310.93 80.81 304.93 89.81 316.93 89.62Z" fill="#CBD0D1"/><path d="M333.5 165.29 291.51 165.29 291.51 132.84 305.88 132.84 305.88 147.2 278.21 147.2 278.21 94.73 258.35 94.73 258.35 115.18 310.57 115.18 310.57 88.06" stroke="#CBD0D1" stroke-miterlimit="10" fill="none"/><path d="M313.53 159.43 304.64 165.32 313.56 171.43 313.53 159.43Z" fill="#CBD0D1"/><rect x="159.84" y="366.92" width="515.37" height="42.48" stroke="#4C5054" stroke-width="1.32" stroke-miterlimit="10" fill="#EBF0F2"/><g><text fill="#333332" font-family="Courier-Bold,Courier" font-weight="700" font-size="14" transform="translate(170.52 384.07)">select * from user_options where user='badguy';update users</text><text fill="#333332" font-family="Courier-Bold,Courier" font-weight="700" font-size="14" transform="translate(170.52 400.87)">set password='letmein' where user='administrator'--</text></g><path d="M725.04 304.52 725.04 349.19 680.12 349.19 680.12 324.53 703.9 324.53 703.9 371.65 754.98 371.65 754.98 389.93 688.93 389.93" stroke="#CBD0D1" stroke-miterlimit="10" fill="none"/><path d="M684.82 390.04 693.09 384.27 693.09 395.8 684.82 390.04Z" fill="#CBD0D1"/><path d="M734.82 371.54 726.55 377.31 726.55 365.77 734.82 371.54Z" fill="#CBD0D1"/><path d="M724.9 331.04 719.14 322.76 730.67 322.76 724.9 331.04Z" fill="#CBD0D1"/><path d="M432.62 50.96 456.4 50.96 456.4 72.54 482.69 72.54 482.69 46.12 499.66 46.12 499.66 88.39 545.35 88.39" stroke="#0071BC" stroke-miterlimit="10" stroke-dasharray="6 6" fill="none"/><path d="M469.03 72.54 460.75 78.3 460.75 66.77 469.03 72.54Z" fill="#0071BC"/><path d="M550.57 88.34 542.3 94.11 542.3 82.58 550.57 88.34Z" fill="#0071BC"/><path d="M158.58 388.86 74.17 388.86 74.17 342 52.85 342 52.85 363.56 94.03 363.56 94.03 316.21 159.25 316.21 159.25 339.88 137.15 339.88 137.15 288.25" stroke="#D60000" stroke-miterlimit="10" fill="none"/><path d="M117.72 388.78 125.99 383.02 125.99 394.55 117.72 388.78Z" fill="#D60000"/><path d="M94.01 344.46 99.77 352.73 88.24 352.73 94.01 344.46Z" fill="#D60000"/><path d="M137.11 284.48 142.87 292.75 131.34 292.75 137.11 284.48Z" fill="#D60000"/><rect x="602.95" y="189.43" width="153.52" height="38.62" fill="#FCF1E0"/><rect x="602.95" y="189.43" width="153.52" height="115.47" stroke="#FFAF10" stroke-width="2" stroke-miterlimit="10" fill="none"/><rect x="653.42" y="235.37" width="50.6" height="4.48" fill="#FCF1E0"/><rect x="617.9" y="235.37" width="28.99" height="29.03" fill="#FCF1E0"/><rect x="617.9" y="269.4" width="28.99" height="25.02" fill="#FCF1E0"/><rect x="653.42" y="242.75" width="50.6" height="4.48" fill="#FCF1E0"/><text fill="#FFAF10" font-family="Arial-BoldMT,Arial" font-weight="700" font-size="18" transform="translate(653.45 214.77)">PROFILE</text><circle cx="632.67" cy="208.74" r="14.26" fill="#FFFFFF"/><path d="M632.46 208.3C628.594 208.3 625.46 211.434 625.46 215.3L639.37 215.3C639.37 211.469 636.291 208.349 632.46 208.3Z" stroke="#FFAF10" stroke-width="2" stroke-miterlimit="10" fill="none"/><circle cx="632.46" cy="203.95" r="4.2" stroke="#FFAF10" stroke-width="2" stroke-miterlimit="10" fill="none"/><rect x="653.42" y="252.53" width="87.44" height="17.88" fill="#FCF1E0"/><rect x="653.42" y="275.72" width="87.44" height="17.88" fill="#FCF1E0"/><line x1="602.85" y1="228.07" x2="756.55" y2="228.07" stroke="#FFAF10" stroke-width="2" stroke-miterlimit="10" fill="none"/><path d="M566.89 326C567.343 324.972 567.099 323.77 566.28 323 565.717 322.789 565.134 322.635 564.54 322.54 564.54 322.54 563.75 322.38 563.06 322.29 562.37 322.2 562.06 322.65 561.8 324.13 561.663 325.7 562.683 327.139 564.21 327.53 565.68 327.92 566.28 327.19 566.89 326Z" fill="#FFFFFF"/><path d="M560.56 325.3C560.56 325.3 559.62 325.17 558.85 326.65 558.08 328.13 557.85 328.65 557.99 328.72 558.13 328.79 558.66 328.37 558.99 328.18 559.32 327.99 559.46 327.82 559.7 327.91 559.94 328 560.18 329.02 560.28 329.25 560.38 329.48 560.28 329.48 560.49 329.51 560.863 328.707 561.064 327.835 561.08 326.95 561.14 326 560.89 325.43 560.56 325.3Z" fill="#FFFFFF"/><path d="M572 335.8C571.42 334.88 569.39 334.36 568.12 333.58 566.85 332.8 564.34 330.78 563.94 330.46 564.066 330.355 564.212 330.276 564.37 330.23 565.165 330.008 565.923 329.671 566.62 329.23L568.56 329.23C570.041 329.227 571.518 329.371 572.97 329.66 573.784 329.892 574.65 329.526 575.05 328.78 575.245 328.369 575.187 327.883 574.9 327.53 574.9 327.53 574.97 327.34 575.07 327.01 575.173 326.668 575.11 326.298 574.9 326.01 574.521 325.478 573.833 325.265 573.22 325.49 572.419 325.863 571.581 326.151 570.72 326.35 570.23 326.44 569 326.54 568.34 326.59 568.576 325.917 568.888 325.273 569.27 324.67 570.11 323.519 570.872 322.313 571.55 321.06 572.26 319.65 572.77 318.24 571.08 316.34 569.364 314.263 567.02 312.799 564.4 312.17L564.15 312.11C562.468 311.522 560.658 311.394 558.91 311.74 556.28 312.51 555.45 313.53 555.03 315.09 554.61 316.65 554.27 319.38 554.03 320.19 553.922 320.611 553.788 321.025 553.63 321.43 553.15 320.95 552.3 320.12 551.99 319.74 551.546 319.162 551.182 318.526 550.91 317.85 550.589 317.279 549.922 316.999 549.29 317.17 548.937 317.254 548.646 317.503 548.51 317.84 548.433 318.006 548.366 318.176 548.31 318.35 547.865 318.432 547.506 318.763 547.39 319.2 547.222 320.017 547.635 320.844 548.39 321.2 549.599 321.765 550.731 322.48 551.76 323.33L553.32 324.61C553.489 325.386 553.854 326.105 554.38 326.7 554.602 326.949 554.781 327.232 554.91 327.54 553.17 327.61 551.427 327.577 549.69 327.44 548.21 327.22 546.6 326.39 545.56 326.73 544.834 326.88 544.339 327.553 544.41 328.29 544.353 328.705 544.493 329.124 544.79 329.42L544.96 329.58C544.665 330.079 544.688 330.704 545.02 331.18 545.59 331.93 546.2 332.29 547.57 331.48 549.064 330.663 550.728 330.207 552.43 330.15 553.92 330.04 554.97 329.98 555.31 329.96 555.828 330.901 556.659 331.63 557.66 332.02L557.66 332.02 557.94 332.13 557.94 332.13C558.62 332.38 560.33 332.9 561.55 332.22L561.94 331.98C562.19 332.21 562.94 332.93 564.03 333.98 565.292 335.119 566.277 336.532 566.91 338.11 567.43 339.61 568.31 339.87 569.23 339.66 570.15 339.45 570.11 338.37 570.11 338.37 570.11 338.37 570.11 338.37 570.36 338.32 570.833 338.355 571.294 338.162 571.6 337.8 572.185 337.309 572.352 336.478 572 335.8ZM568.2 327.05C568.2 327.05 570.37 326.9 570.91 326.81 571.644 326.669 572.352 326.416 573.01 326.06 573.522 325.763 574.176 325.911 574.51 326.4 574.638 326.721 574.638 327.079 574.51 327.4 574.322 327.658 574.088 327.878 573.82 328.05 574.044 327.981 574.249 327.861 574.42 327.7 574.732 327.939 574.794 328.384 574.56 328.7 574.3 329.1 574.03 329.33 572.4 329.02 571.025 328.804 569.631 328.727 568.24 328.79L567.24 328.79 567.38 328.61C567.557 328.417 567.709 328.202 567.83 327.97 567.912 327.842 567.986 327.708 568.05 327.57ZM552.44 323.22C551.386 322.329 550.251 321.539 549.05 320.86 547.6 320.06 547.77 319.86 547.82 319.41 547.852 319.02 548.189 318.727 548.58 318.75 548.616 318.984 548.698 319.208 548.82 319.41 548.723 319.107 548.685 318.788 548.71 318.47 548.805 318.149 549.02 317.877 549.31 317.71 549.635 317.453 550.106 317.508 550.364 317.833 550.42 317.903 550.462 317.984 550.49 318.07 550.768 318.763 551.149 319.41 551.62 319.99 551.96 320.38 553.36 321.72 553.53 321.89L553.46 322.08C553.46 322.16 553.46 322.27 553.39 322.39L553.39 322.39C553.288 322.87 553.231 323.359 553.22 323.85ZM550.66 329.85C549.475 330.008 548.336 330.406 547.31 331.02 546.63 331.36 545.67 331.57 545.22 330.62 544.77 329.67 546.06 328.88 546.03 328.89 545.793 328.985 545.571 329.113 545.37 329.27 545.179 329.119 545.028 328.923 544.93 328.7 544.752 328.152 544.965 327.552 545.45 327.24 545.97 326.87 547.14 327.24 549.26 327.69 551.176 327.956 553.117 327.986 555.04 327.78 555.04 327.78 555.04 328.11 555.04 328.41 555.04 328.71 555.19 329.41 555.19 329.41 555.19 329.41 552.43 329.61 550.63 329.85ZM561.97 330.65 561.89 330.65C561.83 330.6 561.76 330.59 561.72 330.74 561.683 331.096 561.458 331.405 561.13 331.55 560.73 331.67 560.91 330.99 560.91 330.99L560.84 330.99C560.84 330.99 560.7 331.69 560.38 331.67 560.06 331.65 560.38 330.97 560.38 330.97L560.28 330.97C560.28 330.97 560.19 331.82 559.71 331.77 559.23 331.72 559.71 330.87 559.71 330.87L559.53 330.8C559.53 330.8 559.42 331.8 558.8 331.65 558.18 331.5 558.73 330.58 558.73 330.58L558.48 330.49C558.48 330.49 558.38 331.49 557.73 331.3 557.08 331.11 557.73 330.18 557.73 330.18L557.5 330.09C557.5 330.09 557.31 330.97 556.91 330.84 556.51 330.71 556.97 329.79 556.97 329.79L556.88 329.79C556.819 329.928 556.749 330.062 556.67 330.19 556.55 330.38 556.32 330.4 556.27 330.19 556.286 329.937 556.351 329.689 556.46 329.46L556.41 329.46 556.34 329.63C556.27 329.82 556.15 329.97 555.9 329.84 555.65 329.71 555.9 329.03 556 328.78 555.997 328.75 555.997 328.72 556 328.69 556 328.69 555.84 327.83 555.78 327.26 555.72 326.69 555.29 326.54 554.66 325.91 554.03 325.28 553.21 324.5 554.01 322.01 554.012 321.983 554.012 321.957 554.01 321.93L554.01 321.82 554.01 321.82C554.09 321.57 554.19 321.31 554.31 321.03 554.71 320.1 556 319.28 556.77 317.44 557.54 315.6 557.16 315.19 557.05 315.29 556.94 315.39 555.81 317.49 555.3 318.35 555.045 318.795 554.747 319.214 554.41 319.6 554.41 319.6 554.91 315.03 556.22 314.07 557.454 313.063 558.971 312.465 560.56 312.36 561.906 312.409 563.245 312.579 564.56 312.87 565.832 313.29 567.025 313.918 568.09 314.73 569.88 316.12 571.37 318.94 570.98 320.19 570.638 321.267 570.121 322.281 569.45 323.19L568.39 324.84C568.39 324.84 568.83 320.56 568.9 320 568.97 319.44 568.64 319.27 568.33 319.83 567.782 320.911 567.547 322.123 567.65 323.33 567.75 325.05 567.91 326.53 566.99 327.85 566.153 328.854 564.944 329.475 563.64 329.57 562.986 329.769 562.398 330.142 561.94 330.65ZM570.97 337.76C570.751 337.864 570.512 337.919 570.27 337.92 570.218 337.669 570.131 337.426 570.01 337.2 570.01 337.2 570.47 338.59 569.52 339.04 568.57 339.49 567.96 338.72 567.65 338.04 567.256 336.925 566.637 335.904 565.83 335.04 564.64 333.74 562.7 331.88 562.6 331.78 562.95 331.503 563.284 331.206 563.6 330.89 565.075 332.156 566.657 333.29 568.33 334.28 570.26 335.28 571.33 335.76 571.54 336.38 571.66 336.926 571.408 337.487 570.92 337.76Z" fill="#FFFFFF"/><path d="M560.43 321.36C559.85 320.98 559.14 320.6 559.14 320.6 558.623 320.295 558.077 320.04 557.51 319.84 556.383 319.903 555.419 320.674 555.11 321.76 554.84 323.04 554.82 323.98 556.19 324.64 557.604 325.304 559.29 324.857 560.19 323.58 561 322.28 561 321.74 560.43 321.36Z" fill="#FFFFFF"/></svg>