<svg width="781" height="440" viewBox="0 0 781 440" xmlns="http://www.w3.org/2000/svg" xmlns:xlink="http://www.w3.org/1999/xlink" overflow="hidden"><defs><clipPath id="a"><path d="M138.83 290.88 142.3 298.43 173.4 298.43 173.4 314.86 139.82 314.86C139.82 314.86 132.32 314.46 128.53 307.86 126.499 304.428 124.766 300.828 123.35 297.1Z" stroke="#4C5054" stroke-width="2" stroke-miterlimit="10" fill="none"/></clipPath></defs><rect x="447.87" y="70.45" width="264.49" height="15.49" fill="#4C5054"/><rect x="414.43" y="87.41" width="297.93" height="15.49" fill="#4C5054"/><rect x="608.97" y="104.38" width="40.14" height="15.49" fill="#4C5054"/><text fill="#4C5054" font-family="Courier-Bold,Courier" font-weight="700" font-size="13.88" transform="translate(417.2 65.63)">&lt;?xml version="1"?&gt;<tspan fill="#333332"><tspan xml:space="preserve" x="0" y="16.66">    </tspan><tspan fill="#FFFFFF" x="33.32" y="16.66">&lt;!DOCTYPE stockCheck [ &lt;!ENTITY</tspan><tspan fill="#70D16D" x="291.52" y="16.66"> </tspan></tspan><tspan fill="#FFFFFF"><tspan x="0" y="33.31">xxe SYSTEM "file:///etc/passwd"&gt; ]&gt;</tspan></tspan><tspan x="0" y="49.97">&lt;stockCheck&gt;&lt;productId&gt;</tspan><tspan fill="#FFFFFF" x="191.57" y="49.97">&amp;xxe;</tspan><tspan x="0" y="66.62">&lt;/productId&gt;&lt;/stockCheck</tspan></text><rect x="34.76" y="39.65" width="66.62" height="87.12" stroke="#4C5054" stroke-width="2" stroke-miterlimit="10" fill="none"/><rect x="259.85" y="98.01" width="48.1" height="70.31" fill="#4C5054" transform="matrix(6.12323e-17 -1 1 6.12323e-17 150.74 417.07)"/><rect x="251.99" y="89.31" width="63.83" height="87.69" stroke="#4C5054" stroke-width="2" stroke-miterlimit="10" fill="none" transform="matrix(6.12323e-17 -1 1 6.12323e-17 150.74 417.07)"/><rect x="67.69" y="48.78" width="0.76" height="0.13" fill="#D60000"/><rect x="67.97" y="49.07" width="0.2" height="0.1" fill="#D60000"/><rect x="44.39" y="48.61" width="47.35" height="69.85" fill="#4C5054"/><rect x="64.18" y="68.65" width="0.64" height="0.18" fill="#D60000"/><rect x="57.92" y="59.63" width="0.5" height="0.13" fill="#D60000"/><rect x="71.78" y="60.91" width="0.27" height="0.13" fill="#D60000"/><rect x="70.77" y="66.23" width="0.27" height="0.13" fill="#D60000"/><rect x="71.08" y="58.79" width="0.44" height="0.13" fill="#D60000"/><rect x="58.01" y="62.91" width="0.48" height="0.18" fill="#D60000"/><rect x="58.01" y="58.21" width="0.31" height="0.14" fill="#D60000"/><rect x="65.22" y="60.89" width="0.27" height="0.13" fill="#60BCD8"/><rect x="63.21" y="68.4" width="0.49" height="0.18" fill="#60BCD8"/><rect x="62.56" y="64.57" width="0.5" height="0.13" fill="#60BCD8"/><rect x="77.66" y="67.72" width="0.5" height="0.13" fill="#60BCD8"/><rect x="76.01" y="60.82" width="0.87" height="0.13" fill="#60BCD8"/><rect x="71.74" y="72.5" width="1.25" height="0.13" fill="#60BCD8"/><rect x="68.13" y="59.54" width="1.25" height="0.13" fill="#60BCD8"/><rect x="65.55" y="71.18" width="1.01" height="0.18" fill="#60BCD8"/><rect x="77.91" y="66.06" width="0.31" height="0.14" fill="#60BCD8"/><path d="M70.77 62.39C70.7802 62.2035 70.7802 62.0165 70.77 61.83L70.58 61.83C70.5527 61.5259 70.4992 61.2248 70.42 60.93L70.62 60.93C70.62 60.8 70.55 60.67 70.51 60.54L71 60.54C70.9538 60.383 70.897 60.2293 70.83 60.08L70.28 60.08 70.28 60.08C70.0332 59.4851 69.6958 58.9319 69.28 58.44L69.39 58.44 69.28 58.32 69.17 58.32C69.1 58.26 69.04 58.19 68.97 58.12L70.08 58.12 69.93 57.98 69.84 57.9 69.84 57.9 68.67 57.9C68.6349 57.8031 68.6349 57.6969 68.67 57.6 68.695 57.5676 68.695 57.5224 68.67 57.49 68.6373 57.4609 68.6002 57.4373 68.56 57.42 68.3001 57.4752 68.0356 57.5053 67.77 57.51L68 57.51 67.87 57.51 67.75 57.44 67.75 57.44 68 57.44C68.083 57.4505 68.167 57.4505 68.25 57.44L68.04 57.44 67.95 57.44C67.95 57.27 67.87 57.23 67.71 57.21 67.55 57.19 67.63 57.1 67.62 57.1 67.11 56.95 66.62 56.85 66.11 56.74 65.7348 56.6988 65.3574 56.6821 64.98 56.69L64.69 56.69C63.7191 56.7086 62.7677 56.9662 61.92 57.44L61.54 57.44C61.4299 57.4974 61.3231 57.5608 61.22 57.63L61.61 57.63C61.3896 57.7686 61.1791 57.9223 60.98 58.09L62 58.09 61.7 58.36 60.63 58.36 60.43 58.56 60.54 58.56 60.43 58.68 60.32 58.68 60.24 58.78 60.13 58.87C59.7569 58.9401 59.3793 58.9835 59 59 58.8811 59.0243 58.7707 59.0795 58.68 59.16 58.68 59.16 58.68 59.23 58.68 59.25 58.91 59.41 59.28 59.4 59.37 59.68 59.37 59.68 59.37 59.76 59.32 59.81 59.27 59.86 59.24 59.98 59.2 60.06L59.2 60.06 59.76 60.06C59.7 60.21 59.64 60.36 59.59 60.52L59.03 60.52C59.03 60.65 58.95 60.78 58.92 60.91L58.73 60.91C58.6556 61.2059 58.6021 61.5066 58.57 61.81L58.77 61.81C58.7598 61.9965 58.7598 62.1835 58.77 62.37L58.77 62.43 59 62.43C58.9997 62.7044 59.0198 62.9785 59.06 63.25L58.36 63.25C58.36 63.35 58.36 63.44 58.36 63.53L59.06 63.53C59.06 63.64 59.06 63.76 59.14 63.87L59 63.87 59 63.87C59.1086 64.2904 59.2664 64.6965 59.47 65.08 59.4907 65.1147 59.5075 65.1516 59.52 65.19 59.5293 65.2261 59.5293 65.2639 59.52 65.3 59.4263 65.4893 59.2973 65.659 59.14 65.8 59.0606 65.892 59.0708 66.0309 59.1628 66.1103 59.1827 66.1274 59.2054 66.1409 59.23 66.15 59.5225 66.2113 59.8212 66.2382 60.12 66.23 60.2 66.23 60.26 66.23 60.32 66.29L60.41 66.29 59.89 66.29C59.9266 66.3039 59.9605 66.3242 59.99 66.35 59.99 66.35 59.99 66.42 60.06 66.43L60.12 66.49 60.3 66.67 60.68 66.67 61.02 66.97 61.48 66.97 61.61 67.07 61.15 67.07 61.26 67.14 61.06 67.14 61.23 67.26 61.43 67.26C61.7946 67.5114 62.1872 67.7195 62.6 67.88L63.13 67.88 63.47 68 63 68C64.188 68.3732 65.462 68.3732 66.65 68L67.18 68 67.52 67.88 67 67.88C67.4639 67.6848 67.9379 67.5145 68.42 67.37L68.65 67.31 67.97 67.26 68.43 67.26 68.55 67.2 68.14 67.2 68.82 67.2C68.8255 67.1568 68.8255 67.1132 68.82 67.07L69.28 67.07C69.28 67.07 69.28 67 69.28 66.97L68.83 66.97C68.8047 66.9023 68.8047 66.8277 68.83 66.76L68.92 66.67 68.53 66.67 68.59 66.61C68.7 66.51 68.81 66.4 68.91 66.29L69.29 66.29C69.4773 66.0814 69.651 65.8609 69.81 65.63L69.88 65.51C70.06 65.22 70.39 65.12 70.66 64.92 70.6711 64.8945 70.6711 64.8655 70.66 64.84 70.59 64.63 70.36 64.49 70.45 64.24 70.45 64.24 70.45 64.15 70.45 64.11 70.45 64.07 70.5 63.93 70.53 63.83L70.53 63.83 70.72 63.83C70.72 63.72 70.78 63.6 70.8 63.49L70.1 63.49C70.1 63.4 70.1 63.31 70.1 63.21L70.8 63.21C70.8402 62.9385 70.8603 62.6644 70.86 62.39L70.67 62.39ZM68.05 66.76 68.05 66.76Z" fill="#D60000"/><path d="M76.81 65.91C76.8199 65.7268 76.8199 65.5432 76.81 65.36L76.62 65.36C76.5919 65.0528 76.5384 64.7484 76.46 64.45L76.66 64.45C76.66 64.32 76.59 64.19 76.55 64.07L77.1 64.07C77.0522 63.9103 76.9955 63.7533 76.93 63.6L76.37 63.6 76.37 63.6C76.1279 63.0027 75.7901 62.4488 75.37 61.96L75.48 61.96 75.37 61.84 75.26 61.84 75.06 61.64 76.16 61.64C76.1185 61.5885 76.0715 61.5415 76.02 61.5L75.93 61.42 75.85 61.36 74.66 61.36C74.5468 61.2717 74.5266 61.1083 74.6149 60.9951 74.6281 60.9783 74.6432 60.9631 74.66 60.95 74.6643 60.9269 74.6643 60.9031 74.66 60.88L74.46 60.88 74.02 60.88 74.02 60.88 74.24 60.88C74.18 60.88 74.13 60.88 74.07 60.82L73.91 60.82 73.91 60.82 74.21 60.76C74.0923 60.7239 73.9719 60.6971 73.85 60.68L73.73 60.68C73.73 60.68 73.83 60.68 73.87 60.6 73.91 60.52 73.87 60.6 73.87 60.6 73.87 60.6 73.56 60.51 73.45 60.44 73.08 60.23 72.64 60.33 72.24 60.22 72.1677 60.1386 72.0873 60.0649 72 60 71.6907 59.9706 71.3793 59.9706 71.07 60L70.4 60C69.5252 60.065 68.6752 60.321 67.91 60.75L67.52 60.75 67.21 60.93 67.6 60.93C67.3819 61.0719 67.1716 61.2255 66.97 61.39L68.08 61.39 67.78 61.67 66.67 61.67C66.5984 61.7316 66.5316 61.7984 66.47 61.87L66.58 61.87 66.47 61.99 66.36 61.99 66.27 62.09 66.17 62.18 66.06 62.26C65.6977 62.4095 65.3229 62.5266 64.94 62.61 64.88 62.61 64.74 62.66 64.79 62.75 64.94 63.02 65.39 62.94 65.48 63.25 65.4839 63.2899 65.4839 63.3301 65.48 63.37L65.37 63.63 65.37 63.63 65.93 63.63C65.87 63.79 65.81 63.94 65.76 64.1L65.2 64.1C65.2 64.22 65.12 64.35 65.09 64.48L64.9 64.48C64.8216 64.7784 64.7681 65.0828 64.74 65.39L64.94 65.39C64.9301 65.5732 64.9301 65.7568 64.94 65.94L64.94 66 65 66C65.008 66.2777 65.0314 66.5548 65.07 66.83L64.37 66.83C64.3652 66.9199 64.3652 67.0101 64.37 67.1L65.07 67.1C65.07 67.22 65.07 67.33 65.14 67.44L65 67.44 65 67.44C65.1114 67.8516 65.2656 68.2505 65.46 68.63L65.52 68.75C65.5144 68.8173 65.4862 68.8807 65.44 68.93 65.24 69.12 64.9 69.22 64.86 69.52 64.86 69.52 64.86 69.59 64.95 69.6 65.3 69.7 65.68 69.53 66.03 69.7L66.1 69.7C66.1769 69.7408 66.2505 69.7876 66.32 69.84L66.32 69.84C66.1807 69.8199 66.0393 69.8199 65.9 69.84 65.96 69.84 65.98 69.93 66.04 69.96L66.1 70.03 66.3 70.22 66.68 70.22 67.02 70.51 67.48 70.51 67.61 70.61 67.15 70.61 67.25 70.69 67.06 70.69 67.23 70.81 67.43 70.81C67.7971 71.0544 68.1894 71.2589 68.6 71.42L69.13 71.42C69.24 71.4688 69.3537 71.509 69.47 71.54L69 71.54C70.186 71.9265 71.464 71.9265 72.65 71.54L73.18 71.54 73.52 71.42 73 71.42C73.5128 71.2217 74.0461 71.0808 74.59 71 74.6354 70.9875 74.6768 70.9634 74.71 70.93L74.54 70.93C74.5666 70.918 74.588 70.8966 74.6 70.87L74.6 70.8 74.02 70.8 74.71 70.8C74.6808 70.7601 74.6573 70.7163 74.64 70.67L75.1 70.67C75.09 70.6374 75.09 70.6026 75.1 70.57L74.64 70.57C74.6497 70.5156 74.6825 70.4682 74.73 70.44L74.82 70.36 74.91 70.28 74.53 70.28C74.66 70.15 74.79 70.03 74.91 69.89L75.29 69.89C75.4773 69.6814 75.651 69.4609 75.81 69.23L75.88 69.11C76.07 68.78 76.46 68.74 76.73 68.51 76.7407 68.481 76.7407 68.449 76.73 68.42 76.63 68.23 76.36 68.09 76.48 67.85 76.48 67.85 76.48 67.76 76.48 67.71 76.48 67.66 76.48 67.53 76.56 67.44L76.56 67.44 76.75 67.44C76.75 67.33 76.75 67.22 76.83 67.1L76.13 67.1C76.13 67.01 76.13 66.92 76.13 66.83L76.82 66.83C76.9006 66.5582 76.9608 66.2808 77 66L76.81 66ZM66.46 69.91 66.46 69.91ZM74.46 70.91 73.76 70.91 73.7 70.91Z" fill="#60BCD8"/><path d="M73.92 61.84 73.37 61.84 73.37 61.84C73.126 61.2467 72.7883 60.6964 72.37 60.21L72.48 60.21 72.37 60.09 72.2 60.09 72 59.88 73.11 59.88 72.87 59.66 72.81 59.66 71.7 59.66 71.7 59.66C71.59 59.53 71.77 59.4 71.76 59.27 71.75 59.14 71.76 59.19 71.7 59.21 71.3937 59.2462 71.0832 59.2155 70.79 59.12 70.9366 59.127 71.0831 59.1031 71.22 59.05L70.99 59.05 70.89 59.05C70.81 59.05 70.96 58.98 70.89 58.93 70.82 58.88 70.57 58.82 70.49 58.75 70.22 58.5 69.76 58.64 69.39 58.51 68.7839 58.3701 68.1607 58.3195 67.54 58.36L67.4 58.36C66.5269 58.4272 65.6781 58.6794 64.91 59.1L64.53 59.1 64.21 59.29 64.6 59.29C64.3819 59.4319 64.1716 59.5855 63.97 59.75L65.1 59.75 64.8 60.02 63.69 60.02 63.49 60.23 63.6 60.23 63.49 60.35 63.38 60.35 63.28 60.45C62.99 60.76 62.52 60.76 62.14 60.91 62.02 60.96 61.74 60.99 61.79 61.09 61.92 61.35 62.39 61.3 62.5 61.6 62.5102 61.6427 62.5102 61.6873 62.5 61.73 62.45 61.81 62.42 61.9 62.38 61.98L62.38 61.98 62.94 61.98C62.88 62.13 62.82 62.29 62.77 62.44L62.21 62.44C62.21 62.57 62.13 62.7 62.1 62.83L61.91 62.83C61.8365 63.1261 61.783 63.4267 61.75 63.73L61.95 63.73C61.94 63.9165 61.94 64.1035 61.95 64.29L61.95 64.35 62.15 64.35C62.1497 64.6278 62.1698 64.9052 62.21 65.18L61.51 65.18C61.51 65.27 61.51 65.36 61.51 65.45L62.21 65.45C62.2308 65.5646 62.2575 65.6781 62.29 65.79L62.09 65.79 62.09 65.79C62.2003 66.2098 62.358 66.6158 62.56 67 62.5636 67.0332 62.5636 67.0668 62.56 67.1 62.56 67.16 62.56 67.24 62.56 67.26 62.3261 67.4001 62.1464 67.615 62.05 67.87 62.05 67.87 62.05 67.97 62.12 68 62.46 68.14 62.87 68 63.2 68.15L63.28 68.15 63.35 68.15 63 68.15 63.07 68.22 63.13 68.28C63.2117 68.3684 63.2985 68.4518 63.39 68.53L63.77 68.53C63.88 68.64 64 68.73 64.11 68.83L64.57 68.83 64.7 68.93 64.24 68.93 64.35 69.01 64.15 69.01 64.32 69.12 64.52 69.12C64.8846 69.3714 65.2772 69.5795 65.69 69.74L66.22 69.74 66.56 69.86 66 69.86C67.188 70.2332 68.462 70.2332 69.65 69.86L70.18 69.86 70.52 69.74 70 69.74C70.5589 69.4955 71.1421 69.3111 71.74 69.19 71.6467 69.185 71.5533 69.185 71.46 69.19 71.58 69.12 71.66 69.04 71.8 69.08 71.7824 69.0323 71.7624 68.9856 71.74 68.94L72.2 68.94 72.2 68.84 71.75 68.84C71.7363 68.7978 71.7363 68.7522 71.75 68.71 71.7714 68.6785 71.7985 68.6514 71.83 68.63L71.93 68.54 71.54 68.54 71.6 68.48C71.71 68.38 71.82 68.27 71.92 68.16L72.3 68.16C72.4873 67.9514 72.661 67.7309 72.82 67.5L72.89 67.38C73.06 67.05 73.44 67 73.7 66.76 73.7204 66.7372 73.7204 66.7028 73.7 66.68 73.61 66.5 73.38 66.34 73.47 66.12L73.47 65.98C73.47 65.89 73.47 65.8 73.55 65.71L73.55 65.71 73.74 65.71C73.7725 65.5981 73.7992 65.4846 73.82 65.37L73.12 65.37C73.12 65.28 73.12 65.19 73.17 65.1L74 65.1C74.0402 64.8252 74.0603 64.5478 74.06 64.27L73.87 64.27 73.87 64.21C73.88 64.0235 73.88 63.8365 73.87 63.65L73.68 63.65C73.6519 63.3461 73.5984 63.045 73.52 62.75L73.72 62.75C73.72 62.62 73.65 62.49 73.61 62.36L74.16 62.36C74.0917 62.1815 74.0115 62.0078 73.92 61.84Z" fill="#FFFFFF"/><rect x="58.03" y="102.73" width="0.64" height="0.18" fill="#D60000"/><rect x="57.85" y="99.18" width="0.5" height="0.13" fill="#D60000"/><rect x="64.21" y="108.46" width="0.5" height="0.13" fill="#D60000"/><rect x="56.59" y="100.52" width="0.76" height="0.13" fill="#D60000"/><rect x="57.67" y="105.18" width="1.01" height="0.13" fill="#D60000"/><rect x="72.99" y="107.11" width="0.48" height="0.18" fill="#D60000"/><rect x="72.79" y="98.47" width="0.31" height="0.14" fill="#D60000"/><rect x="73.51" y="104.53" width="0.31" height="0.14" fill="#D60000"/><rect x="64.21" y="95.3" width="0.75" height="0.14" fill="#D60000"/><rect x="62.62" y="105.54" width="0.27" height="0.13" fill="#60BCD8"/><rect x="79.04" y="106.17" width="0.49" height="0.18" fill="#60BCD8"/><rect x="78.08" y="100.37" width="0.87" height="0.13" fill="#60BCD8"/><rect x="62.2" y="110.14" width="0.87" height="0.13" fill="#60BCD8"/><rect x="78.67" y="102.71" width="0.87" height="0.13" fill="#60BCD8"/><rect x="62.63" y="100.94" width="0.76" height="0.13" fill="#60BCD8"/><rect x="66.25" y="98.49" width="1.25" height="0.13" fill="#60BCD8"/><rect x="73.61" y="112.42" width="1.25" height="0.13" fill="#60BCD8"/><rect x="77.47" y="109.44" width="1.25" height="0.13" fill="#60BCD8"/><path d="M71.12 99 70.81 99 70.81 98.46 71.12 98.46 71.12 97.46 70.92 97.46 70.92 97 71.12 97 71.12 96.6 70 96.6 70 96.38 71.12 96.38 71.12 96.25 72.18 96.25 72.18 96.12 71.12 96.12 71.12 96 59.12 96 59.12 96.21 60.19 96.21 60.19 96.34 59.15 96.34 59.15 96.47 58 96.47 58 96.69 59.12 96.69 59.12 97 59 97 59 97.41 59.2 97.41 59.2 98.41 58.9 98.41 58.9 99 59.2 99 59.2 99.52 60.61 99.52 60.61 99.67 59.15 99.67 59.15 100 59.79 100 59.79 100.28 59.15 100.28 59.15 101.15 60.4 101.15 60.4 101.55 59.15 101.55 59.15 102.22 59.05 102.22 59.05 102.33C59.05 102.61 59.35 102.68 59.53 102.82 59.555 102.863 59.555 102.917 59.53 102.96 59.36 103.17 59.09 103.26 59.04 103.55L59.04 103.8 59.78 103.8 59.78 104.16 59.04 104.16 59.04 104.66 58.16 104.66 58.16 104.88 59.04 104.88 59.04 105.77 58.88 105.77 58.88 106.49 59.04 106.49 59.04 106.63 59.72 106.63 59.72 106.85 59.04 106.85 59.04 107.19 58.71 107.19 58.71 107.5 59.04 107.5 59.04 107.91 71 107.91 71 107.5 70.67 107.5 70.67 107.19 71 107.19 71 106.85 71.67 106.85 71.67 106.63 71 106.63 71 106.49 70.83 106.49 70.83 105.77 71 105.77 71 104.88 70.12 104.88 70.12 104.66 71 104.66 71 104.16 71.73 104.16 71.73 103.8 71 103.8 71 103.2C71 102.95 71.28 102.86 71.42 102.68 71.56 102.5 71.21 102.36 71.1 102.21L71.21 102.21C71.1405 102.15 71.1004 102.062 71.1 101.97L71.1 101.55 72.35 101.55 72.35 101.15 71.12 101.15 71.12 100.28 71.75 100.28 71.75 100 71.12 100 71.12 99.67 72.53 99.67 72.53 99.52 71.12 99.52Z" fill="#D60000"/><path d="M77.16 110 77 110 77 109.29 77.16 109.29 77.16 108.4 76.29 108.4 76.29 108.18 77.16 108.18 77.16 107.68 77.9 107.68 77.9 107.31 77.16 107.31 77.16 106.72C77.16 106.42 77.5 106.33 77.56 106.08 77.62 105.83 77.37 105.85 77.27 105.73L77.39 105.73C77.3228 105.663 77.2805 105.575 77.27 105.48L77.27 105.06 78.52 105.06 78.52 104.67 77.27 104.67 77.27 103.79 77.9 103.79 77.9 103.52 77.27 103.52 77.27 103.19 78.67 103.19 78.67 103.04 77.27 103.04 77.27 102.52 77 102.52 77 102 77.31 102 77.31 101 77.1 101 77.1 100.59 77.31 100.59 77.31 100.18 76.15 100.18 76.15 100 77.27 100 77.27 99.86 78.33 99.86 78.33 99.74 77.27 99.74 77.27 99.52 65.27 99.52 65.27 99.74 66.33 99.74 66.33 99.86 65.3 99.86 65.3 100 64.18 100 64.18 100.21 65.3 100.21 65.3 100.62 65.1 100.62 65.1 101 65.3 101 65.3 102 65 102 65 102.54 65.31 102.54 65.31 103.06 66.72 103.06 66.72 103.21 65.3 103.21 65.3 103.54 65.93 103.54 65.93 103.81 65.3 103.81 65.3 104.69 66.55 104.69 66.55 105.08 65.3 105.08 65.3 105.75 65.2 105.75C65.1974 105.79 65.1974 105.83 65.2 105.87 65.28 106.06 65.5 106.11 65.65 106.25 65.6702 106.28 65.6702 106.32 65.65 106.35 65.52 106.59 65.18 106.7 65.17 107.01L65.17 107.33 65.9 107.33 65.9 107.7 65.2 107.7 65.2 108.2 64.32 108.2 64.32 108.42 65.2 108.42 65.2 109.31 65 109.31 65 110 65.17 110 65.17 110.15 65.84 110.15 65.84 110.36 65.2 110.36 65.2 110.71 64.87 110.71 64.87 111.01 65.2 111.01 65.2 111.42 77.2 111.42 77.2 111 76.88 111 76.88 110.7 77.2 110.7 77.2 110.35 77.88 110.35 77.88 110.14 77.2 110.14Z" fill="#60BCD8"/><path d="M74.19 100.77 73.89 100.77 73.89 100.24 74.19 100.24 74.19 99.24 74 99.24 74 98.8 74.2 98.8 74.2 98.4 73.07 98.4 73.07 98.18 74.19 98.18 74.19 98.05 75.26 98.05 75.26 97.92 74.19 97.92 74.19 97.71 62.19 97.71 62.19 97.92 63.26 97.92 63.26 98.05 62.22 98.05 62.22 98.18 61.11 98.18 61.11 98.4 62.22 98.4 62.22 98.8 62 98.8 62 99.21 62.2 99.21 62.2 100.21 61.9 100.21 61.9 100.74 62.2 100.74 62.2 101.26 63.61 101.26 63.61 101.41 62.22 101.41 62.22 101.75 62.86 101.75 62.86 102.02 62.22 102.02 62.22 102.9 63.48 102.9 63.48 103.29 62.22 103.29 62.22 104 62.12 104C62.1178 104.04 62.1178 104.08 62.12 104.12 62.12 104.36 62.42 104.41 62.59 104.56 62.6085 104.587 62.6085 104.623 62.59 104.65 62.46 104.9 62.08 105.01 62.09 105.33L62.09 105.58 62.83 105.58 62.83 105.94 62.09 105.94 62.09 106.45 61.22 106.45 61.22 106.66 62.09 106.66 62.09 107.55 62 107.55 62 108.27 62.16 108.27 62.16 108.41 62.84 108.41 62.84 108.63 62.16 108.63 62.16 109 61.8 109 61.8 109.3 62.12 109.3 62.12 109.71 74.12 109.71 74.12 109.3 73.79 109.3 73.79 109 74.12 109 74.12 108.65 74.8 108.65 74.8 108.43 74.12 108.43 74.12 108.29 73.96 108.29 73.96 107.57 74.12 107.57 74.12 106.68 73.24 106.68 73.24 106.47 74.12 106.47 74.12 105.96 74.86 105.96 74.86 105.6 74.12 105.6 74.12 105C74.12 104.71 74.44 104.62 74.52 104.37 74.6 104.12 74.32 104.13 74.21 104.02 74.2461 104.011 74.2839 104.011 74.32 104.02 74.2855 103.971 74.2585 103.917 74.24 103.86 74.24 103.86 74.24 103.86 74.24 103.78L74.24 103.36 75.5 103.36 75.5 102.97 74.19 102.97 74.19 102.09 74.83 102.09 74.83 101.82 74.19 101.82 74.19 101.48 75.6 101.48 75.6 101.33 74.19 101.33Z" fill="#FFFFFF"/><rect x="59.76" y="82.15" width="1.07" height="0.18" fill="#D60000"/><rect x="56.91" y="78.53" width="0.64" height="0.18" fill="#D60000"/><rect x="57.91" y="79.53" width="1.02" height="0.13" fill="#D60000"/><rect x="61.75" y="84.66" width="1.02" height="0.13" fill="#D60000"/><rect x="72.43" y="78.7" width="0.31" height="0.15" fill="#D60000"/><rect x="69.69" y="84.2" width="0.31" height="0.15" fill="#D60000"/><rect x="60.84" y="83.06" width="0.31" height="0.15" fill="#D60000"/><rect x="62.77" y="87.12" width="0.31" height="0.15" fill="#D60000"/><rect x="56.08" y="77.55" width="1.26" height="0.13" fill="#D60000"/><rect x="72.95" y="90.14" width="0.5" height="0.18" fill="#60BCD8"/><rect x="66.03" y="87.34" width="0.5" height="0.18" fill="#60BCD8"/><rect x="63.06" y="81.5" width="0.5" height="0.18" fill="#60BCD8"/><rect x="76.47" y="83.76" width="0.88" height="0.13" fill="#60BCD8"/><rect x="74.13" y="88.51" width="1" height="0.17" fill="#60BCD8"/><rect x="78.96" y="79.81" width="1.09" height="0.19" fill="#60BCD8"/><rect x="75.84" y="85.98" width="1.26" height="0.13" fill="#60BCD8"/><path d="M71.18 77.43 71.63 76.65 70.49 76.65 70.64 76.39 71.79 76.39 71.89 76.21 58 76.21 58.11 76.39 56.91 76.39 57.06 76.65 58.21 76.65 58.66 77.43 60.53 77.43 60.53 77.53 60.59 77.62 58.77 77.62 58.83 77.71 58.9 77.82C59.11 78.05 59.48 78.03 59.64 78.29 59.8 78.55 59.5 78.54 59.47 78.69 59.4553 78.7389 59.4553 78.7911 59.47 78.84 59.4657 78.8732 59.4657 78.9068 59.47 78.94L60 78.94 60.12 79.16 59.69 79.16 60.37 80.33 58.92 80.33 59.04 80.53 60.45 80.53 60.78 81.1 61.65 81.1 61.76 81.28 60.89 81.28 61.33 82.04 61.38 82.13C61.59 82.44 62.06 82.44 62.21 82.76 62.27 82.92 61.93 83.05 62.04 83.26L62.1 83.38 62.2 83.55 62.51 83.55 62.65 83.78 62.33 83.78 63.33 85.46 62.54 85.46 62.72 85.77 63.51 85.77 63.73 86.16 63.73 86.23C63.89 86.5 64.2 86.6 64.39 86.87 64.39 86.94 64.48 86.99 64.46 87.05 64.3804 87.2837 64.4298 87.5421 64.59 87.73L64.59 87.8 64.86 88.27 65.53 87.11 65.59 87.02C65.8224 86.7127 66.014 86.3765 66.16 86.02L66.22 85.91 66.31 85.76 65.52 85.76 65.69 85.45 66.48 85.45 67.48 83.77 67.8 83.77 67.94 83.54 67.62 83.54 67.72 83.37 67.78 83.25C67.8438 83.1873 67.9183 83.1365 68 83.1 68.23 82.88 68.7 82.85 68.73 82.54 68.73 82.4 68.49 82.25 68.57 82.05 68.5651 82.0236 68.5651 81.9964 68.57 81.97L68.95 81.29 69.82 81.29 69.93 81.11 69.06 81.11 69.39 80.54 68 80.54 68.12 80.34 69.54 80.34 70.21 79.17 70.65 79.17 70.77 78.95 70.34 78.95 70.4 78.85C70.58 78.51 71.01 78.49 71.26 78.2 71.26 78.2 71.26 78.2 71.26 78.13 71.26 78.06 71.02 77.9 71.06 77.72 71.0567 77.6901 71.0567 77.6599 71.06 77.63L72.93 77.63 73.04 77.43Z" fill="#D60000"/><path d="M77.23 81.15 79.09 81.15 79.2 81 77.34 81 77.79 80.22 76.64 80.22 76.79 79.95 77.94 79.95 78.05 79.77 64.11 79.77 64.21 79.95 63.06 79.95 63.22 80.22 64.37 80.22 64.82 81 66.68 81 66.74 81.1 66.79 81.19 64.93 81.19 64.99 81.29C65.13 81.5 65.39 81.56 65.6 81.67 65.81 81.78 65.82 81.76 65.8 81.88 65.78 82 65.51 82.2 65.63 82.42L65.69 82.52 66.12 82.52 66.25 82.73 65.82 82.73 66.49 83.91 65.08 83.91 65.19 84.11 66.61 84.11 66.94 84.68 67.8 84.68 67.91 84.86 67 84.86 67.44 85.62 67.5 85.71C67.68 85.97 68.01 86.05 68.28 86.25 68.3143 86.2621 68.338 86.2937 68.34 86.33 68.34 86.53 68.07 86.63 68.15 86.84L68.21 86.95 68.31 87.12 68.63 87.12 68.76 87.36 68.45 87.36 69.45 89.04 68.66 89.04 68.83 89.34 69.62 89.34 69.77 89.6 69.85 89.73C70.06 90.12 70.29 90.49 70.51 90.87L70.51 90.96 71.02 91.84 71.47 91.05 71.53 90.96C71.8352 90.7085 72.0351 90.3517 72.09 89.96 72.1039 89.9141 72.1241 89.8704 72.15 89.83L72.15 89.76 72.42 89.29 71.63 89.29 71.81 88.99 72.6 88.99 73.6 87.31 74 87.31 74.13 87.07 73.8 87.07 74.01 86.72C74.01 86.72 74.01 86.72 74.01 86.64 74.2314 86.4269 74.4932 86.2603 74.78 86.15 74.84 86.15 74.89 86.05 74.84 85.97 74.79 85.89 74.55 85.67 74.68 85.48L74.68 85.4 75.02 84.81 76 84.81 76.11 84.63 75.25 84.63 75.57 84.06 74.13 84.06 74.24 83.86 75.66 83.86 76.34 82.68 76.77 82.68 76.9 82.47 76.46 82.47 76.52 82.37C76.69 82.04 77.08 82.03 77.36 81.81 77.3649 81.7836 77.3649 81.7564 77.36 81.73 77.31 81.56 77.14 81.44 77.18 81.24 77.1948 81.209 77.2115 81.1789 77.23 81.15Z" fill="#60BCD8"/><path d="M74.26 79.2 74.71 78.42 73.56 78.42 73.72 78.15 74.87 78.15 75 78 61 78 61.1 78.18 60 78.18 60.15 78.45 61.3 78.45 61.75 79.23 63.6 79.23 63.66 79.32 63.71 79.42 61.85 79.42 61.91 79.52C62.09 79.79 62.46 79.82 62.69 80.05 62.722 80.0874 62.722 80.1426 62.69 80.18 62.61 80.32 62.47 80.47 62.56 80.64 62.5576 80.6733 62.5576 80.7067 62.56 80.74L63 80.74 63.12 80.96 62.69 80.96 63.37 82.13 62 82.13 62.12 82.33 63.53 82.33 63.86 82.9 64.73 82.9 64.83 83.09 64 83.09 64.44 83.85C64.4367 83.8799 64.4367 83.9101 64.44 83.94 64.6559 84.16 64.9145 84.3336 65.2 84.45 65.2635 84.5032 65.2719 84.5978 65.2187 84.6613 65.213 84.6681 65.2068 84.6743 65.2 84.68 65.0533 84.8048 65.0232 85.0197 65.13 85.18L65.13 85.27 65.13 85.35 65.45 85.35 65.59 85.58 65.27 85.58 66.27 87.27 65.48 87.27 65.66 87.57 66.44 87.57 66.67 87.96 66.67 88.03C66.9613 88.3027 67.1752 88.6478 67.29 89.03 67.3318 89.1775 67.3995 89.3163 67.49 89.44L67.49 89.52 68 90 68.56 89 68.62 88.91C68.7488 88.7697 68.8969 88.6484 69.06 88.55 69.1186 88.5022 69.1577 88.4346 69.17 88.36 69.1396 88.1947 69.1396 88.0253 69.17 87.86L69.24 87.73 69.39 87.47 68.61 87.47 68.78 87.17 69.57 87.17 70.57 85.48 70.89 85.48 71.03 85.25 70.71 85.25 70.87 84.96 70.87 84.9C71.08 84.65 71.4 84.55 71.63 84.32 71.6376 84.2973 71.6376 84.2727 71.63 84.25 71.54 84.05 71.39 83.85 71.55 83.66L71.55 83.57 71.89 82.99 72.76 82.99 72.86 82.8 72 82.8 72.33 82.23 71.05 82.23 71.17 82.03 72.58 82.03 73.26 80.86 73.69 80.86 73.82 80.64 73.39 80.64 73.39 80.54 73.47 80.44C73.64 80.21 73.92 80.13 74.13 79.95 74.159 79.9042 74.159 79.8458 74.13 79.8 74.0883 79.6774 74.0647 79.5494 74.06 79.42L74.06 79.32 76 79.32 76.11 79.13Z" fill="#FFFFFF"/><rect x="352.97" y="43.41" width="45.56" height="103.47" fill="#B8E8B5"/><rect x="539.44" y="-172.17" width="28.58" height="403.3" fill="#70D16D" transform="matrix(6.12323e-17 1 -1 6.12323e-17 583.21 -524.26)"/><circle cx="365.73" cy="29.27" r="3.2" fill="#FFFFFF"/><circle cx="375.72" cy="29.27" r="3.2" fill="#FFFFFF"/><circle cx="385.97" cy="29.27" r="3.2" fill="#FFFFFF"/><line x1="410.92" y1="29.97" x2="445.23" y2="29.97" stroke="#FFFFFF" stroke-width="2" stroke-miterlimit="10" fill="none"/><line x1="362.09" y1="59.35" x2="388.55" y2="59.35" stroke="#70D16D" stroke-width="2" stroke-miterlimit="10" fill="none"/><line x1="362.09" y1="70.21" x2="388.55" y2="70.21" stroke="#70D16D" stroke-width="2" stroke-miterlimit="10" fill="none"/><line x1="362.09" y1="81.06" x2="388.55" y2="81.06" stroke="#70D16D" stroke-width="2" stroke-miterlimit="10" fill="none"/><line x1="362.09" y1="91.91" x2="388.55" y2="91.91" stroke="#70D16D" stroke-width="2" stroke-miterlimit="10" fill="none"/><line x1="362.09" y1="102.77" x2="388.55" y2="102.77" stroke="#70D16D" stroke-width="2" stroke-miterlimit="10" fill="none"/><line x1="455.82" y1="29.97" x2="490.13" y2="29.97" stroke="#FFFFFF" stroke-width="2" stroke-miterlimit="10" fill="none"/><line x1="500.72" y1="29.97" x2="535.02" y2="29.97" stroke="#FFFFFF" stroke-width="2" stroke-miterlimit="10" fill="none"/><path d="M74.11 300.43 56.83 295.36 68.36 262.94 85.08 266.65 74.11 300.43Z" stroke="#4C5054" stroke-width="2" stroke-miterlimit="10" fill="#FFFFFF"/><path d="M143.73 409.07C143.856 411.923 141.645 414.337 138.792 414.462 135.94 414.588 133.526 412.377 133.4 409.525 133.393 409.373 133.393 409.221 133.4 409.07L133.4 389.73 143.73 389.73Z" stroke="#4C5054" stroke-width="2" stroke-miterlimit="10" fill="#FFFFFF"/><path d="M128.73 411.74C128.973 409.809 129.599 407.946 130.57 406.26 130.656 406.169 130.775 406.115 130.9 406.11 130.9 406.11 134.5 405.49 136.54 408.04 138.18 410.1 143.9 408.04 144.67 403.41 144.712 403.149 144.875 402.923 145.11 402.8 145.347 402.663 145.632 402.637 145.89 402.73 151.05 404.49 156.56 408.35 158.65 412.73 159.05 413.598 159.013 414.604 158.55 415.44 158.118 416.246 157.284 416.755 156.37 416.77L132.67 416.77C131.465 416.757 130.334 416.184 129.61 415.22 128.853 414.229 128.535 412.972 128.73 411.74Z" fill="#4C5054"/><path d="M152.12 406.76C152.385 406.341 152.94 406.216 153.36 406.48 153.83 406.762 154.267 407.098 154.66 407.48 156 408.79 156.51 408.76 159.23 408.76 161.5 408.76 162.69 404.05 165.46 402.49 166.17 402.1 166.99 401.959 167.79 402.09 175.54 403.44 181.2 407.72 184.13 412.73 184.634 413.576 184.587 414.641 184.01 415.44 183.372 416.298 182.359 416.793 181.29 416.77L155.08 416.77C153.656 416.786 152.286 416.227 151.28 415.22 150.345 414.302 149.932 412.977 150.18 411.69 150.514 409.94 151.172 408.268 152.12 406.76Z" stroke="#FFFFFF" stroke-width="2.84" stroke-miterlimit="10" fill="#4C5054"/><path d="M164.53 409.07C164.656 411.923 162.445 414.337 159.592 414.462 156.74 414.588 154.326 412.377 154.2 409.525 154.193 409.373 154.193 409.221 154.2 409.07L154.2 392.21 164.53 392.21Z" stroke="#4C5054" stroke-width="2" stroke-miterlimit="10" fill="#FFFFFF"/><path d="M152.12 406.76C152.385 406.341 152.94 406.216 153.36 406.48 153.83 406.762 154.267 407.098 154.66 407.48 155.9 408.596 157.59 409.069 159.23 408.76 161.49 408.47 162.69 404.05 165.46 402.49 166.17 402.1 166.99 401.959 167.79 402.09 175.54 403.44 181.2 407.72 184.13 412.73 184.634 413.576 184.587 414.641 184.01 415.44 183.372 416.298 182.359 416.793 181.29 416.77L155.08 416.77C153.656 416.786 152.286 416.227 151.28 415.22 150.345 414.302 149.932 412.977 150.18 411.69 150.514 409.94 151.172 408.268 152.12 406.76Z" fill="#4C5054"/><path d="M104.39 324.08 99.59 417 102.55 417 112.43 325.77 104.39 324.08Z" stroke="#4C5054" stroke-width="2" stroke-miterlimit="10" fill="#FFFFFF"/><path d="M77.2 343.43 131.5 343.43C135.688 343.386 139.121 346.742 139.17 350.93L139.17 394.77" stroke="#4C5054" stroke-width="17" stroke-miterlimit="10" fill="none"/><path d="M139.58 359.28 89.1 359.28C89.1 359.28 90.75 357.83 92.1 356.84 93.64 355.67 132.85 352.44 132.85 352.44 132.85 352.44 138.27 354.81 138.47 354.81 138.938 356.274 139.309 357.767 139.58 359.28Z" stroke="#4C5054" stroke-width="1.57" stroke-miterlimit="10" fill="#FFFFFF"/><path d="M155.81 309.34 163.55 257.23 225.53 257.71 213.46 309.49 155.81 309.34Z" stroke="#4C5054" stroke-width="2" stroke-miterlimit="10" fill="#FFFFFF"/><path d="M160.33 308.25 167.33 261.26 177.43 261.41 168.49 307.74 160.33 308.25Z" fill="#EDD6D6"/><path d="M166.13 266.97 167.33 261.26 220.29 261.67 218.84 267.54 166.13 266.97Z" fill="#D60000"/><path d="M161.05 305.33 167.33 261.26 220.29 261.67 209.81 305.46 161.05 305.33Z" stroke="#4C5054" stroke-width="2" stroke-miterlimit="10" fill="none"/><rect x="153.9" y="309.33" width="59.71" height="4.42" stroke="#4C5054" stroke-width="2" stroke-miterlimit="10" fill="#FFFFFF"/><path d="M191 303.44C191.897 304.251 191.967 305.636 191.156 306.533 191.154 306.535 191.152 306.538 191.15 306.54 190.729 307 190.134 307.261 189.51 307.26 189.353 307.255 189.203 307.321 189.1 307.44 188.992 307.556 188.938 307.712 188.95 307.87 189.014 308.489 188.814 309.106 188.4 309.57 187.981 310.031 187.383 310.29 186.76 310.28 186.6 310.281 186.447 310.35 186.34 310.47 186.234 310.587 186.183 310.743 186.2 310.9 186.315 312.11 185.428 313.183 184.218 313.299 184.012 313.318 183.804 313.309 183.6 313.27 183.31 313.202 183.019 313.383 182.951 313.673 182.946 313.695 182.942 313.717 182.94 313.74 182.878 314.17 182.686 314.572 182.39 314.89 181.579 315.787 180.194 315.857 179.297 315.046 179.295 315.044 179.292 315.042 179.29 315.04L178 313.93C177.587 313.552 177.011 313.409 176.47 313.55 173.47 314.35 170.77 314.02 169.41 312.42 167.21 309.83 169.41 304.9 174.25 301.42 183.71 294.65 182.64 295.85 191 303.44Z" stroke="#4C5054" stroke-width="2" stroke-miterlimit="10" fill="#FFFFFF"/><path d="M80.68 224.68C82.3494 227.73 84.2729 230.633 86.43 233.36 87.7809 235.091 89.3392 236.649 91.07 238L91.07 252.89 106.56 253.42 106.56 244C106.56 244 118.56 246.3 124.16 240.29 129.76 234.28 130.43 222.83 128.82 208.59 127.21 194.35 127.38 202.32 127.38 202.32" stroke="#4C5054" stroke-width="2" stroke-miterlimit="10" fill="none"/><path d="M31.21 324.18 21.57 417 24.53 417 41.87 325.62 31.21 324.18Z" stroke="#4C5054" stroke-width="2" stroke-miterlimit="10" fill="#FFFFFF"/><path d="M252.82 324.18 263.52 417 260.56 417 242.4 323.11 252.82 324.18Z" stroke="#4C5054" stroke-width="2" stroke-miterlimit="10" fill="#FFFFFF"/><path d="M187.09 324.41 190.77 417 187.81 417 179 324.01 187.09 324.41Z" stroke="#4C5054" stroke-width="2" stroke-miterlimit="10" fill="#FFFFFF"/><path d="M124 227.92C123.672 228.372 123.157 228.651 122.6 228.68 121.04 228.68 119.77 226.07 119.77 222.84 119.77 219.61 121 217 122.55 217" stroke="#4C5054" stroke-width="2" stroke-miterlimit="10" fill="none"/><rect x="22.34" y="314.33" width="244.56" height="13.03" stroke="#4C5054" stroke-width="2" stroke-miterlimit="10" fill="#FFFFFF"/><path d="M95.24 343.43 155.36 343.43C157.37 343.43 159 345.06 159 347.07L159 394.77" stroke="#4C5054" stroke-width="17" stroke-miterlimit="10" fill="none"/><path d="M90.12 255.46C90.12 255.46 70 258.62 68.59 262.09 65.59 269.39 64.95 282.27 67.28 291.22 69.61 300.17 86.39 302.39 84.6 318.82 84.6 318.82 79.35 330.14 78.94 335.11 78.6721 337.491 78.6253 339.891 78.8 342.28L115.72 341.84C119.034 341.81 121.695 339.099 121.665 335.786 121.665 335.717 121.663 335.649 121.66 335.58 121.39 329.04 120.99 319.06 120.9 314.49 120.75 307.49 122.85 294.77 122.85 294.77 122.85 294.77 130.12 264.96 126.73 262.25 123.34 259.54 110.22 255.95 105.61 255.81 101 255.67 90.12 255.46 90.12 255.46Z" stroke="#4C5054" stroke-width="2" stroke-miterlimit="10" fill="#FFFFFF"/><path d="M263.19 230.23 260.53 233.12 221.73 207.25 224.4 204.36 263.19 230.23Z" stroke="#4C5054" stroke-width="2" stroke-miterlimit="10" fill="#FFFFFF"/><rect x="236.87" y="306.2" width="2.71" height="5.06" stroke="#4C5054" stroke-width="2" stroke-miterlimit="10" fill="#FFFFFF"/><line x1="46.37" y1="359.09" x2="35.2" y2="417" stroke="#4C5054" stroke-width="2" stroke-miterlimit="10" fill="#FFFFFF"/><path d="M36.9 417 33.5 417 44.67 358.76 48.07 359.43 36.9 417Z" stroke="#4C5054" stroke-width="2" stroke-miterlimit="10" fill="#FFFFFF"/><line x1="89.86" y1="358.61" x2="94.42" y2="417" stroke="#4C5054" stroke-width="2" stroke-miterlimit="10" fill="#FFFFFF"/><path d="M92.7 417 88.13 358.75 91.58 358.48 96.15 417 92.7 417Z" stroke="#4C5054" stroke-width="2" stroke-miterlimit="10" fill="#FFFFFF"/><path d="M82.67 417 79.27 417C79.36 416.54 88.06 369.61 89.37 363.42 90.82 356.56 93.56 355.57 94.37 355.42L94.55 355.42C94.89 355.42 128.25 353.05 132.3 352.81 133.792 352.645 135.279 353.159 136.35 354.21 137.406 355.428 137.944 357.011 137.85 358.62L141.32 417 137.87 417 134.38 358.59 134.38 358.47C134.426 357.807 134.239 357.149 133.85 356.61 133.75 356.51 133.44 356.21 132.48 356.26 128.65 356.48 98.41 358.6 95.07 358.84 94.75 359.07 93.58 360.17 92.74 364.14 91.45 370.3 82.76 416.54 82.67 417Z" stroke="#4C5054" stroke-width="2" stroke-miterlimit="10" fill="#FFFFFF"/><path d="M133 352.88C133 352.88 135.88 352.25 137.32 357.03 138.52 361.03 141.99 358.94 141.5 356.8 141.23 355.6 139.85 349.32 135.2 347.93 133.883 347.675 132.539 347.584 131.2 347.66L95.28 349.26C95.28 349.26 90.83 350.78 90.46 353.05 90.09 355.32 91.05 356.61 92.27 356.2 93.7144 355.624 95.2326 355.254 96.78 355.1 98.9 354.89 133 352.88 133 352.88Z" stroke="#4C5054" stroke-width="2" stroke-miterlimit="10" fill="#FFFFFF"/><path d="M127 262.57 142.28 298.43 173.38 298.43 173.38 314.86 140.91 314.86C135.478 314.841 130.527 311.74 128.14 306.86L116.94 283.74" stroke="#4C5054" stroke-width="2" stroke-miterlimit="10" fill="#FFFFFF"/><path d="M88.06 256.17 87.19 249.61 110.11 249.61 109 257C109 257 105.44 258.5 97.53 258.18 89.62 257.86 88.06 256.17 88.06 256.17Z" fill="#4C5054"/><circle cx="171.11" cy="264.61" r="0.68" fill="#FFFFFF"/><circle cx="173.22" cy="264.71" r="0.68" fill="#FFFFFF"/><circle cx="175.39" cy="264.73" r="0.68" fill="#FFFFFF"/><line x1="169.34" y1="270.6" x2="174.21" y2="270.68" stroke="#D60000" stroke-width="0.86" stroke-miterlimit="10" fill="none"/><line x1="168.83" y1="273.25" x2="173.69" y2="273.33" stroke="#D60000" stroke-width="0.86" stroke-miterlimit="10" fill="none"/><line x1="168.38" y1="275.9" x2="173.25" y2="275.98" stroke="#D60000" stroke-width="0.86" stroke-miterlimit="10" fill="none"/><line x1="167.86" y1="278.55" x2="172.73" y2="278.63" stroke="#D60000" stroke-width="0.86" stroke-miterlimit="10" fill="none"/><line x1="167.28" y1="281.2" x2="172.15" y2="281.28" stroke="#D60000" stroke-width="0.86" stroke-miterlimit="10" fill="none"/><path d="M220.18 241.11 221.97 212.32 228.58 202.81 215.85 193.96 209.24 203.48 185.03 218.56 220.18 241.11Z" stroke="#4C5054" stroke-width="2" stroke-miterlimit="10" fill="#FFFFFF"/><line x1="208.78" y1="203.37" x2="222.13" y2="212.64" stroke="#4C5054" stroke-width="2" stroke-miterlimit="10" fill="#FFFFFF"/><path d="M240.54 305.45 236.72 304.15 261.17 227.87 264.99 229.17 240.54 305.45Z" stroke="#4C5054" stroke-width="2" stroke-miterlimit="10" fill="#FFFFFF"/><circle cx="262.4" cy="231.38" r="6" stroke="#4C5054" stroke-width="2" stroke-miterlimit="10" fill="#FFFFFF"/><circle cx="238.61" cy="304.34" r="2.94" stroke="#4C5054" stroke-width="2" stroke-miterlimit="10" fill="#FFFFFF"/><rect x="222.6" y="310.45" width="28.72" height="3.79" stroke="#4C5054" stroke-width="2" stroke-miterlimit="10" fill="#FFFFFF"/><line x1="194.69" y1="264.82" x2="198.76" y2="264.85" stroke="#FFFFFF" stroke-width="0.86" stroke-miterlimit="10" fill="none"/><line x1="187.11" y1="264.78" x2="191.14" y2="264.8" stroke="#FFFFFF" stroke-width="0.86" stroke-miterlimit="10" fill="none"/><line x1="179.56" y1="264.73" x2="183.54" y2="264.76" stroke="#FFFFFF" stroke-width="0.86" stroke-miterlimit="10" fill="none"/><line x1="178.13" y1="270.85" x2="199.35" y2="271.12" stroke="#C0C0C0" stroke-width="2" stroke-miterlimit="10" fill="#FFFFFF"/><line x1="177.41" y1="274.21" x2="191.28" y2="274.42" stroke="#C0C0C0" stroke-width="2" stroke-miterlimit="10" fill="#FFFFFF"/><line x1="176.87" y1="277.43" x2="205.26" y2="277.87" stroke="#C0C0C0" stroke-width="2" stroke-miterlimit="10" fill="#FFFFFF"/><line x1="176.44" y1="280.85" x2="197.66" y2="281.11" stroke="#C0C0C0" stroke-width="2" stroke-miterlimit="10" fill="#FFFFFF"/><line x1="175.72" y1="284.21" x2="189.59" y2="284.42" stroke="#C0C0C0" stroke-width="2" stroke-miterlimit="10" fill="#FFFFFF"/><line x1="175.18" y1="287.42" x2="203.57" y2="287.87" stroke="#C0C0C0" stroke-width="2" stroke-miterlimit="10" fill="#FFFFFF"/><line x1="174.58" y1="290.84" x2="195.8" y2="291.11" stroke="#C0C0C0" stroke-width="2" stroke-miterlimit="10" fill="#FFFFFF"/><line x1="173.85" y1="294.21" x2="187.72" y2="294.41" stroke="#C0C0C0" stroke-width="2" stroke-miterlimit="10" fill="#FFFFFF"/><path d="M83.72 239C87.3511 239.601 91.063 239.509 94.66 238.73 104.73 236.91 110.92 222.37 117.66 214.95 119.78 212.62 119.28 213.27 120.48 211.89 120.97 211.42 121.02 211.42 121.3 211.46 122.222 211.617 123.027 212.174 123.5 212.98 124.55 215.041 125.269 217.255 125.63 219.54 125.63 219.65 125.72 219.74 125.83 219.74 125.94 219.74 126.03 219.65 126.03 219.54 126.74 211.98 125.59 209.99 125.59 208.72 125.59 208.53 129.59 201.65 130.04 200.46 130.605 198.871 130.975 197.219 131.14 195.54 131.89 188.98 130.59 183.46 125.87 178.69 125.476 178.286 125.221 177.768 125.14 177.21L125.14 177.21C124.99 175.023 124.557 172.865 123.85 170.79 122.712 167.485 120.672 164.565 117.96 162.36 113.61 158.81 107.26 157.91 103.43 157.78 105.85 159.39 110.6 162.05 111.65 168.6 100 159.51 91.92 155 84.31 156.09 90.0545 158.512 94.3832 163.418 96.07 169.42 93.27 167.94 90.63 166.17 86.36 164.97 82.57 163.91 76.98 162.53 73.55 164.46 76.75 164.66 82.01 167.2 84.55 173.04 79.6122 171.579 74.3252 171.833 69.55 173.76 65.13 175.37 58.45 182.66 57.63 187.29 58.57 186.48 62.99 182.94 68.13 184.67 64.1698 187.573 61.4773 191.887 60.61 196.72 60.1779 199.845 60.3339 203.023 61.07 206.09 63.28 216.56 72.47 236.61 83.72 239Z" fill="#4C5054"/><path d="M61.12 194.26C61.12 194.26 57.87 206.26 60.92 214.16 63.97 222.06 65.7 219.54 65.7 219.54 65.7 219.54 63.82 222.54 68.05 228.2 70.29 231.2 78.34 237.98 82.21 238.8 86.08 239.62 93.21 234.72 93.32 232.38 93.43 230.04 91.69 221.17 89.55 217.29 87.41 213.41 84.46 209.04 82.72 208.12 80.98 207.2 68 199.66 68 199.25 68 198.84 61.12 194.26 61.12 194.26Z" fill="#4C5054"/><path d="M129.38 268.23 117.57 272.09C116.253 272.508 114.868 272.671 113.49 272.57L65.92 272.57" stroke="#4C5054" stroke-width="9.51" stroke-miterlimit="10" fill="none"/><path d="M137 286.5 122.64 292.24C121.121 292.826 119.517 293.164 117.89 293.24L56.89 293.24" stroke="#4C5054" stroke-width="9.51" stroke-miterlimit="10" fill="none"/><line x1="121.17" y1="312.1" x2="56.92" y2="312.13" stroke="#4C5054" stroke-width="9.51" stroke-miterlimit="10" fill="none"/><line x1="121.08" y1="330.36" x2="57.13" y2="331.28" stroke="#4C5054" stroke-width="9.51" stroke-miterlimit="10" fill="none"/><path d="M29.76 289.48C30.1103 290.284 30.8842 290.822 31.76 290.87 34.29 291.1 41.52 293.34 43.98 311.24 46.98 333.07 46.79 343.46 45.32 348.24 43.32 354.7 41.25 354.38 39.61 356.07 38.6647 356.868 38.5454 358.281 39.3435 359.227 39.5143 359.429 39.7197 359.599 39.95 359.73L88.16 359.73C88.16 359.73 102.64 356.9 97.3 322.73 91.96 288.56 90.18 288.19 79.97 286.73 78.89 286.58 38.04 286.42 31.77 286.4 31.1475 286.406 30.5635 286.702 30.19 287.2 29.659 287.833 29.4961 288.697 29.76 289.48Z" stroke="#4C5054" stroke-width="2" stroke-miterlimit="10" fill="#FFFFFF"/><path d="M85.63 355.8C85.63 355.8 98.63 353.52 93.28 322.32 87.93 291.12 87.12 291.86 76.91 290.53" stroke="#4C5054" stroke-width="2" stroke-miterlimit="10" fill="#FFFFFF"/><path d="M86.16 359.78C85.0418 359.781 84.123 358.897 84.08 357.78 84.0524 356.676 84.9252 355.758 86.0294 355.731 86.0462 355.73 86.0631 355.73 86.08 355.73" stroke="#4C5054" stroke-width="2" stroke-miterlimit="10" fill="none"/><line x1="30.25" y1="290.58" x2="77.75" y2="290.76" stroke="#4C5054" stroke-width="2" stroke-miterlimit="10" fill="none"/><line x1="85.52" y1="355.87" x2="39.46" y2="355.87" stroke="#4C5054" stroke-width="2" stroke-miterlimit="10" fill="none"/><path d="M78.2 290.75C77.0789 290.75 76.17 289.841 76.17 288.72 76.17 287.599 77.0789 286.69 78.2 286.69" stroke="#4C5054" stroke-width="2" stroke-miterlimit="10" fill="none"/><path d="M66 277.68 63.27 277.68 65.27 271.94C65.3348 272.698 65.4383 273.452 65.58 274.2 65.7 274.36 66 277.68 66 277.68Z" fill="#4C5054"/><g clip-path="url(#a)"><line x1="148.83" y1="292.13" x2="130.83" y2="317.3" stroke="#4C5054" stroke-width="9.51" stroke-miterlimit="10" fill="none"/><line x1="159.97" y1="293.27" x2="159.68" y2="319.65" stroke="#4C5054" stroke-width="9.51" stroke-miterlimit="10" fill="none"/></g><path d="M138.83 290.88 142.3 298.43 173.4 298.43 173.4 314.86 139.82 314.86C139.82 314.86 132.32 314.46 128.53 307.86 126.499 304.428 124.766 300.828 123.35 297.1Z" stroke="#4C5054" stroke-width="2" stroke-miterlimit="10" fill="none"/><path d="M338.66 52.17 305.45 52.17 305.45 24.5 166.18 24.5 166.18 75.81 223.65 75.81 223.65 37.6 143.07 37.6 143.07 111.15 180.21 111.15 180.21 167.04 208.41 167.04 208.41 138.11 168.61 138.11 168.61 251.64" stroke="#CBD0D1" stroke-miterlimit="10" fill="none"/><path d="M332.96 46.45 341.96 52.45 332.96 58.45 332.96 46.45Z" fill="#CBD0D1"/><path d="M137.3 88.36 143.3 79.45 149.3 88.36 137.3 88.36Z" fill="#CBD0D1"/><path d="M162.97 195.6 168.97 186.69 174.97 195.6 162.97 195.6Z" fill="#CBD0D1"/><path d="M233.6 376.77 233.6 416.98 215.76 416.98 215.76 390.62 269.23 390.62 269.23 406.84 324.45 406.84 324.45 381.63 352.08 381.63" stroke="#FFFFFF" stroke-width="5" stroke-miterlimit="10" fill="none"/><path d="M233.6 376.77 233.6 416.98 215.76 416.98 215.76 390.62 269.23 390.62 269.23 406.84 324.45 406.84 324.45 381.63 352.08 381.63" stroke="#D60000" stroke-miterlimit="10" fill="none"/><path d="M233.7 352.73 233.7 342.66 326.14 342.66 326.14 245.94 278.22 245.94 278.22 298.88 315.24 298.88 315.24 273.15 229.82 273.15" stroke="#FFFFFF" stroke-width="5" stroke-miterlimit="10" fill="none"/><path d="M233.7 352.73 233.7 342.66 326.14 342.66 326.14 245.94 278.22 245.94 278.22 298.88 315.24 298.88 315.24 273.15 235.82 273.15" stroke="#D60000" stroke-miterlimit="10" fill="none"/><rect x="195.32" y="352.5" rx="11.43" width="131.36" height="24.27" stroke="#D60000" stroke-miterlimit="10" fill="#EDD6D6"/><text fill="#D60000" font-family="Arial-BoldMT,Arial" font-weight="700" font-size="14" transform="translate(222.93 368.91)">sensitive data</text><path d="M211.08 358.62 210.6 363 215.01 361.77 215.4 364.77 211.4 365.06 214.03 368.56 211.35 370 209.51 366.31 207.89 369.98 205.1 368.57 207.71 365.07 203.71 364.76 204.17 361.76 208.48 362.99 208 358.6Z" fill="#D60000"/><path d="M285.15 413.03 276.37 407.08 285.15 401.04 285.15 413.03Z" fill="#D60000"/><path d="M320.14 316.53 326.09 307.75 332.13 316.53 320.14 316.53Z" fill="#D60000"/><path d="M237.46 278.9 228.68 272.95 237.46 266.91 237.46 278.9Z" fill="#D60000"/><text fill="#4C5054" font-family="Courier-Bold,Courier" font-weight="700" transform="translate(416.08 221.41)">root:x:0:0:root:/root:/bin/bash</text><text fill="#4C5054" font-family="Courier-Bold,Courier" font-weight="700" transform="translate(416.08 235.23)">daemon:x:1:1:daemon:/usr/sbin:/bin/sh</text><text fill="#4C5054" font-family="Courier-Bold,Courier" font-weight="700" transform="translate(416.08 249.05)">bin:x:2:2:bin:/bin:/bin/sh</text><text fill="#4C5054" font-family="Courier-Bold,Courier" font-weight="700" transform="translate(416.08 262.87)">sys:x:3:3:sys:/dev:/bin/sh</text><text fill="#4C5054" font-family="Courier-Bold,Courier" font-weight="700" transform="translate(416.08 276.68)">sync:x:4:65534:sync:/bin:/bin/sync</text><text fill="#4C5054" font-family="Courier-Bold,Courier" font-weight="700" transform="translate(416.08 290.5)">games:x:5:60:games:/usr/games:/bin/sh</text><text fill="#4C5054" font-family="Courier-Bold,Courier" font-weight="700" transform="translate(416.08 304.31)">man:x:6:12:man:/var/cache/man:/bin/sh</text><text fill="#4C5054" font-family="Courier-Bold,Courier" font-weight="700" transform="translate(416.08 318.14)">lp:x:7:7:lp:/var/spool/lpd:/bin/sh</text><text fill="#4C5054" font-family="Courier-Bold,Courier" font-weight="700" transform="translate(416.08 331.95)">mail:x:8:8:mail:/var/mail:/bin/sh</text><text fill="#4C5054" font-family="Courier-Bold,Courier" font-weight="700" transform="translate(416.08 345.77)">news:x:9:9:news:/var/spool/news:/bin/sh</text><text fill="#4C5054" font-family="Courier-Bold,Courier" font-weight="700" transform="translate(416.08 359.58)">uucp:x:10:10:uucp:/var/spool/uucp:/bin/sh</text><text fill="#4C5054" font-family="Courier-Bold,Courier" font-weight="700" transform="translate(416.08 373.4)">proxy:x:13:13:proxy:/bin:/bin/sh</text><text fill="#4C5054" font-family="Courier-Bold,Courier" font-weight="700" transform="translate(416.08 387.23)">www-data:x:33:33:www-data:/var/www:/bin/sh</text><text fill="#4C5054" font-family="Courier-Bold,Courier" font-weight="700" transform="translate(416.08 401.04)">backup:x:34:34:backup:/var/backups:/bin/sh</text><rect x="352.97" y="196.56" width="45.56" height="223.72" fill="#EDD6D6"/><circle cx="366.18" cy="181.96" r="3.2" fill="#FFFFFF"/><circle cx="376.16" cy="181.96" r="3.2" fill="#FFFFFF"/><circle cx="386.42" cy="181.96" r="3.2" fill="#FFFFFF"/><line x1="362.09" y1="213.84" x2="388.55" y2="213.84" stroke="#D60000" stroke-width="2" stroke-miterlimit="10" fill="none"/><line x1="362.09" y1="224.69" x2="388.55" y2="224.69" stroke="#D60000" stroke-width="2" stroke-miterlimit="10" fill="none"/><line x1="362.09" y1="235.54" x2="388.55" y2="235.54" stroke="#D60000" stroke-width="2" stroke-miterlimit="10" fill="none"/><line x1="362.09" y1="246.4" x2="388.55" y2="246.4" stroke="#D60000" stroke-width="2" stroke-miterlimit="10" fill="none"/><line x1="362.09" y1="257.25" x2="388.55" y2="257.25" stroke="#D60000" stroke-width="2" stroke-miterlimit="10" fill="none"/><rect x="539.44" y="-19.03" width="28.58" height="403.3" fill="#D60000" transform="matrix(6.12323e-17 1 -1 6.12323e-17 736.35 -371.11)"/><circle cx="365.73" cy="182.41" r="3.2" fill="#FFFFFF"/><circle cx="375.72" cy="182.41" r="3.2" fill="#FFFFFF"/><circle cx="385.97" cy="182.41" r="3.2" fill="#FFFFFF"/><line x1="410.92" y1="183.11" x2="445.23" y2="183.11" stroke="#FFFFFF" stroke-width="2" stroke-miterlimit="10" fill="none"/><line x1="455.82" y1="183.11" x2="490.13" y2="183.11" stroke="#FFFFFF" stroke-width="2" stroke-miterlimit="10" fill="none"/><line x1="500.72" y1="183.11" x2="535.02" y2="183.11" stroke="#FFFFFF" stroke-width="2" stroke-miterlimit="10" fill="none"/><rect x="352.29" y="168.15" width="403.22" height="253.16" stroke="#D60000" stroke-miterlimit="10" fill="none"/><rect x="352.29" y="15.03" width="403.22" height="131.83" stroke="#70D16D" stroke-miterlimit="10" fill="none"/><path d="M291.91 132.81C292.011 131.302 291.149 129.895 289.76 129.3 288.958 129.294 288.158 129.364 287.37 129.51 287.37 129.51 286.29 129.68 285.37 129.88 284.45 130.08 284.25 130.79 284.62 132.77 285.16 134.814 287.106 136.163 289.21 135.95 291.25 135.75 291.66 134.55 291.91 132.81Z" fill="#FFFFFF"/><path d="M283.6 134.79C283.6 134.79 282.37 135.05 282.07 137.26 281.77 139.47 281.71 140.26 281.93 140.26 282.15 140.26 282.62 139.52 282.93 139.11 283.24 138.7 283.36 138.45 283.7 138.45 284.04 138.45 284.8 139.64 285.04 139.88 285.28 140.12 285.19 140.14 285.42 140.11 285.65 140.08 285.42 137.79 285 136.61 284.58 135.43 284.08 134.79 283.6 134.79Z" fill="#FFFFFF"/><path d="M302.76 142.8C301.62 141.89 298.82 142.17 296.86 141.8 295.06 141.44 290.86 140 290.18 139.8 290.292 139.611 290.442 139.448 290.62 139.32 291.522 138.667 292.324 137.885 293 137L295.46 136.13C297.317 135.442 299.241 134.95 301.2 134.66 302.333 134.574 303.255 133.714 303.42 132.59 303.482 131.987 303.184 131.404 302.66 131.1 302.674 130.854 302.674 130.606 302.66 130.36 302.644 129.875 302.394 129.428 301.99 129.16 301.27 128.663 300.306 128.712 299.64 129.28 298.8 130.114 297.875 130.858 296.88 131.5 296.31 131.83 294.81 132.5 293.99 132.89 293.983 131.931 294.088 130.975 294.3 130.04 294.828 128.209 295.235 126.345 295.52 124.46 295.77 122.37 295.77 120.36 292.77 118.73 289.655 116.9 286.031 116.128 282.44 116.53L282.11 116.53C280.25 116.63 277.27 117.03 275.35 118.45 272.35 120.63 271.81 122.29 271.99 124.45 272.17 126.61 272.99 130.2 273.12 131.3 273.175 131.878 273.198 132.459 273.19 133.04 272.36 132.67 270.91 132.04 270.35 131.67 269.531 131.14 268.784 130.504 268.13 129.78 267.462 129.215 266.498 129.17 265.78 129.67 265.378 129.937 265.126 130.378 265.1 130.86 265.1 131.32 265.1 131.6 265.1 131.6 264.574 131.903 264.273 132.485 264.33 133.09 264.496 134.218 265.423 135.078 266.56 135.16 268.335 135.319 270.083 135.706 271.76 136.31 273.83 137.03 274.23 137.18 274.31 137.21 274.875 138.11 275.664 138.847 276.6 139.35 276.993 139.559 277.348 139.832 277.65 140.16 275.481 141.07 273.261 141.852 271 142.5 269 142.89 266.63 142.59 265.49 143.5 264.643 144.014 264.324 145.086 264.75 145.98 264.868 146.533 265.238 146.999 265.75 147.24L266.05 147.36C265.902 148.124 266.21 148.904 266.84 149.36 267.91 150.04 268.84 150.21 270.19 148.56 271.704 146.86 273.589 145.532 275.7 144.68 277.53 143.86 278.82 143.3 279.24 143.12 280.32 144.072 281.701 144.61 283.14 144.64L283.63 144.64C284.63 144.64 286.99 144.52 288.22 143.11 288.36 142.95 288.48 142.78 288.61 142.62 289.02 142.8 290.31 143.36 292.14 144.18 294.254 145.032 296.14 146.364 297.65 148.07 299 149.71 300.22 149.64 301.28 148.95 301.888 148.479 302.102 147.657 301.8 146.95 301.8 146.95 301.8 146.89 302.09 146.77 302.702 146.598 303.196 146.145 303.42 145.55 303.901 144.595 303.622 143.433 302.76 142.8ZM294 133.51C294 133.51 296.66 132.34 297.3 131.97 298.159 131.457 298.934 130.817 299.6 130.07 300.103 129.486 300.965 129.373 301.6 129.81 301.886 130.157 302.029 130.601 302 131.05 301.884 131.461 301.695 131.847 301.44 132.19 301.684 131.986 301.887 131.739 302.04 131.46 302.531 131.639 302.801 132.167 302.66 132.67 302.51 133.29 302.28 133.67 300.09 134.05 298.262 134.412 296.473 134.951 294.75 135.66L293.47 136.13C293.47 136.13 293.47 136.01 293.56 135.84 293.693 135.52 293.784 135.184 293.83 134.84 293.878 134.639 293.911 134.435 293.93 134.23 294 133.59 294 133.51 294 133.51ZM272.41 135.88C270.671 135.246 268.876 134.774 267.05 134.47 264.86 134.12 265 133.82 264.85 133.2 264.705 132.701 264.992 132.18 265.491 132.035 265.497 132.033 265.504 132.032 265.51 132.03 265.659 132.305 265.86 132.549 266.1 132.75 265.847 132.406 265.658 132.02 265.54 131.61 265.509 131.164 265.653 130.723 265.94 130.38 266.222 129.905 266.835 129.748 267.31 130.03 267.423 130.097 267.521 130.185 267.6 130.29 268.263 131.039 269.039 131.68 269.9 132.19 270.5 132.53 272.9 133.58 273.17 133.71L273.17 134C273.17 134.12 273.17 134.27 273.23 134.43L273.23 134.43C273.322 135.08 273.476 135.719 273.69 136.34ZM273.19 145.05C271.77 145.787 270.518 146.808 269.51 148.05 268.8 148.8 267.69 149.5 266.7 148.49 265.71 147.48 266.96 145.93 266.92 145.95 266.663 146.176 266.44 146.439 266.26 146.73 265.952 146.625 265.674 146.447 265.45 146.21 264.974 145.602 264.974 144.748 265.45 144.14 265.93 143.43 267.57 143.34 270.45 142.97 272.984 142.427 275.442 141.578 277.77 140.44 277.77 140.44 277.95 140.85 278.13 141.21 278.31 141.57 278.78 142.42 278.78 142.42 278.78 142.42 275.34 143.92 273.18 145.05ZM287.79 140.89 287.72 140.97C287.61 140.97 287.52 140.97 287.54 141.17 287.67 141.637 287.523 142.138 287.16 142.46 286.71 142.79 286.63 141.85 286.63 141.85L286.55 141.85C286.55 141.85 286.69 142.79 286.27 142.91 285.85 143.03 285.91 142.05 285.91 142.05L285.77 142.05C285.77 142.05 286.04 143.16 285.42 143.33 284.8 143.5 284.98 142.2 284.98 142.2L284.72 142.2C284.72 142.2 285.06 143.57 284.18 143.6 283.3 143.63 283.61 142.29 283.61 142.29L283.26 142.29C283.26 142.29 283.6 143.64 282.69 143.66 281.78 143.68 282.14 142.26 282.14 142.26L281.8 142.26C281.8 142.26 281.96 143.45 281.4 143.46 280.84 143.47 281 142.12 281 142.12L280.88 142.12C280.88 142.12 280.88 142.42 280.79 142.72 280.7 143.02 280.45 143.14 280.3 142.93 280.198 142.607 280.164 142.267 280.2 141.93L280.14 141.93C280.14 141.93 280.14 141.93 280.14 142.18 280.14 142.43 280.04 142.7 279.67 142.65 279.3 142.6 279.32 141.65 279.31 141.27 279.31 141.19 279.31 141.14 279.31 141.14 279.31 141.14 278.71 140.14 278.38 139.43 278.05 138.72 277.43 138.75 276.38 138.25 275.33 137.75 273.91 137.14 273.78 133.63 273.782 133.593 273.782 133.557 273.78 133.52L273.78 133.36 273.78 133.36C273.78 133.01 273.78 132.64 273.78 132.24 273.86 130.88 275.11 129.24 275.24 126.59 275.37 123.94 274.71 123.59 274.61 123.76 274.51 123.93 274.06 127.09 273.81 128.4 273.696 129.084 273.511 129.754 273.26 130.4 273.26 130.4 271.8 124.4 273 122.62 274.099 120.786 275.742 119.339 277.7 118.48 279.411 117.93 281.168 117.535 282.95 117.3 284.741 117.252 286.529 117.499 288.24 118.03 291.13 118.97 294.3 121.83 294.38 123.59 294.445 125.113 294.259 126.637 293.83 128.1 293.39 130.03 293.25 130.66 293.25 130.66 293.25 130.66 291.85 125.08 291.68 124.33 291.51 123.58 291.02 123.53 290.88 124.39 290.696 125.996 290.955 127.621 291.63 129.09 292.54 131.21 293.42 133 292.87 135.09 292.32 137.18 290.61 138.01 289.43 138.78 288.702 139.324 288.133 140.052 287.78 140.89ZM302.35 145.74C302.125 145.973 301.847 146.148 301.54 146.25 301.357 145.961 301.135 145.698 300.88 145.47 300.88 145.47 302.1 147.01 301.1 148.02 300.1 149.03 299 148.32 298.29 147.57 297.28 146.331 296.028 145.31 294.61 144.57 292.51 143.48 289.22 142.03 289.05 141.95 289.351 141.443 289.621 140.919 289.86 140.38 292.292 141.307 294.802 142.013 297.36 142.49 300.24 142.86 301.88 142.95 302.36 143.67 302.83 144.283 302.821 145.137 302.34 145.74Z" fill="#FFFFFF"/><path d="M281.64 129.88C280.74 129.68 279.64 129.51 279.64 129.51 278.852 129.364 278.052 129.294 277.25 129.3 275.863 129.897 275.002 131.303 275.1 132.81 275.35 134.55 275.76 135.75 277.78 135.95 279.884 136.163 281.83 134.814 282.37 132.77 282.76 130.79 282.55 130.09 281.64 129.88Z" fill="#FFFFFF"/></svg>