<?xml version="1.0" encoding="utf-8"?>
<!-- Generator: Adobe Illustrator 24.3.0, SVG Export Plug-In . SVG Version: 6.00 Build 0)  -->
<svg version="1.1" id="Art" xmlns="http://www.w3.org/2000/svg" xmlns:xlink="http://www.w3.org/1999/xlink" x="0px" y="0px"
	 viewBox="0 0 1024 772" style="enable-background:new 0 0 1024 772;" xml:space="preserve">
<style type="text/css">
	.st0{fill:#F1F1F1;}
	.st1{fill:#CCCCCC;}
	.st2{fill:none;stroke:#CCCCCC;stroke-width:5;stroke-linecap:round;stroke-miterlimit:10;}
	.st3{fill:none;stroke:#326CE5;stroke-width:5;stroke-linecap:round;stroke-miterlimit:10;stroke-dasharray:1.999000e-02,10.4928;}
	.st4{fill:#343434;}
	.st5{fill:none;stroke:#666666;stroke-width:2;stroke-linecap:round;stroke-linejoin:round;}
	.st6{fill:none;stroke:#666666;stroke-width:2;stroke-linecap:round;stroke-miterlimit:10;}
	.st7{fill:#CCCCCC;stroke:#CCCCCC;stroke-width:5.3041;stroke-linecap:round;stroke-miterlimit:10;}
	.st8{fill:#FFFFFF;stroke:#666666;stroke-width:3;stroke-miterlimit:10;}
	.st9{fill:none;stroke:#666666;stroke-width:2.25;stroke-linecap:round;stroke-miterlimit:10;}
	.st10{fill:none;stroke:#666666;stroke-width:2.25;stroke-linejoin:round;}
	.st11{fill:none;stroke:#666666;stroke-width:2.25;stroke-linecap:round;stroke-linejoin:round;}
	.st12{fill:#FFFFFF;stroke:#666666;stroke-width:2.25;stroke-linecap:round;stroke-linejoin:round;}
	.st13{fill:#FFFFFF;}
	.st14{fill:none;stroke:#666666;stroke-width:2.5;stroke-miterlimit:10;}
	.st15{fill:#E6E6E6;}
	.st16{fill:none;stroke:#E6E6E6;stroke-width:3;stroke-linecap:round;stroke-miterlimit:10;}
	.st17{fill:none;stroke:#666666;stroke-width:3;stroke-linecap:round;stroke-miterlimit:10;stroke-dasharray:1.991000e-02,7;}
	.st18{fill:#009639;}
	.st19{fill:#666666;}
	.st20{fill:#FFFFFF;stroke:#666666;stroke-width:2;stroke-linecap:round;stroke-linejoin:round;}
	.st21{fill:none;stroke:#666666;stroke-width:2.5;stroke-linecap:round;stroke-linejoin:round;}
</style>
<rect x="1" class="st0" width="1024" height="772"/>
<path class="st1" d="M522,40h442c5.5,0,10,4.5,10,10v672.5c0,5.5-4.5,10-10,10H522c-5.5,0-10-4.5-10-10V50C512,44.5,516.5,40,522,40
	z"/>
<path class="st2" d="M522,40h442c5.5,0,10,4.5,10,10v672.5c0,5.5-4.5,10-10,10H522c-5.5,0-10-4.5-10-10V50C512,44.5,516.5,40,522,40
	z"/>
<path class="st1" d="M522,40h442c5.5,0,10,4.5,10,10v672.5c0,5.5-4.5,10-10,10H522c-5.5,0-10-4.5-10-10V50C512,44.5,516.5,40,522,40
	z"/>
<path class="st3" d="M522,40h442c5.5,0,10,4.5,10,10v672.5c0,5.5-4.5,10-10,10H522c-5.5,0-10-4.5-10-10V50C512,44.5,516.5,40,522,40
	z"/>
<path class="st4" d="M537.3,68.2l-1,1.6v4.1h-2.9V59.2h2.9v6.7l4.1-6.7h3.4l-4.7,6.9l5,7.8h-3.5L537.3,68.2z"/>
<path class="st4" d="M550.9,72.6c-0.7,1-1.9,1.6-3.1,1.6c-1.4,0.2-2.7-0.8-2.8-2.2c0-0.2,0-0.4,0-0.7v-8h2.6v7
	c0,1.1,0.5,1.5,1.4,1.5c0.8-0.1,1.6-0.6,1.9-1.3v-7.3h2.6v10.6h-2.6L550.9,72.6L550.9,72.6z"/>
<path class="st4" d="M556,59.2h2.6v5.4c0.5-1,1.6-1.6,2.7-1.6c2.4,0,3.9,2.2,3.9,5.6c0,3.5-1.6,5.6-3.9,5.6c-1.1,0-2.1-0.6-2.7-1.6
	v1.3H556V59.2z M560.4,71.8c1.3,0,2-1.4,2-3.2c0-1.9-0.7-3.3-2-3.3c-0.8,0.1-1.5,0.6-1.8,1.3v4C558.9,71.3,559.7,71.8,560.4,71.8z"
	/>
<path class="st4" d="M571.2,63c2.9,0,4.6,2.4,4.6,5.7v0.7h-6.7c0,1.4,1.1,2.6,2.5,2.6h0.1c0.9,0,1.7-0.4,2.3-1l1.2,1.6
	c-1,1-2.4,1.6-3.8,1.6c-3,0-5-2.2-5-5.6C566.5,65.5,568.3,63,571.2,63z M569.2,67.6h4.1c0-1.1-0.5-2.5-2.1-2.5
	C569.7,65.1,569.2,66.5,569.2,67.6z"/>
<path class="st4" d="M577.6,63.3h2.6v1.5c0.6-1,1.7-1.7,2.9-1.7v2.6c-0.2,0-0.4-0.1-0.6-0.1c-0.9,0.1-1.7,0.5-2.3,1.3V74h-2.6
	L577.6,63.3L577.6,63.3z"/>
<path class="st4" d="M590.6,66.9c0-1.1-0.5-1.6-1.4-1.6c-0.8,0.1-1.6,0.6-1.9,1.3v7.2h-2.6V63.3h2.6v1.4c0.7-1,1.9-1.6,3.1-1.7
	c1.4-0.2,2.7,0.9,2.8,2.3c0,0.2,0,0.4,0,0.6v8h-2.6L590.6,66.9L590.6,66.9z"/>
<path class="st4" d="M599.8,63c2.9,0,4.6,2.4,4.6,5.7v0.7h-6.7c0,1.4,1.1,2.6,2.5,2.6h0.1c0.9,0,1.7-0.4,2.3-1l1.2,1.6
	c-1,1-2.4,1.6-3.8,1.6c-3,0-5-2.2-5-5.6C595.1,65.5,596.9,63,599.8,63z M597.7,67.6h4.1c0-1.1-0.5-2.5-2.1-2.5
	C598.3,65.1,597.8,66.5,597.7,67.6z"/>
<path class="st4" d="M606.6,71.3v-5.8h-1.4v-2.3h1.4v-2.9h2.6v2.9h1.8v2.3h-1.8v5.1c0,0.7,0.3,1.1,0.8,1.1c0.3,0,0.6-0.1,0.8-0.3
	l0.5,2c-0.6,0.4-1.3,0.7-2,0.6C607.5,74.2,606.6,73.2,606.6,71.3z"/>
<path class="st4" d="M616.9,63c2.9,0,4.6,2.4,4.6,5.7v0.7h-6.7c0,1.4,1.1,2.6,2.5,2.6h0.1c0.9,0,1.7-0.4,2.3-1l1.2,1.6
	c-1,1-2.4,1.6-3.8,1.6c-3,0-5-2.2-5-5.6C612.2,65.5,614,63,616.9,63z M614.8,67.6h4.1c0-1.1-0.5-2.5-2.1-2.5
	C615.4,65.1,614.9,66.5,614.8,67.6z"/>
<path class="st4" d="M623.6,70.8c0.8,0.8,1.8,1.3,2.9,1.3c1,0,1.6-0.4,1.6-1.1s-0.8-1-1.8-1.4c-1.5-0.5-3.4-1.1-3.4-3.4
	c0-1.7,1.4-3.2,3.9-3.2c1.4,0,2.7,0.5,3.7,1.4l-1.1,1.8c-0.7-0.7-1.6-1.1-2.6-1.1c-0.8,0-1.4,0.4-1.4,1s0.7,0.9,1.7,1.3
	c1.5,0.5,3.6,1.1,3.6,3.6c0,1.9-1.6,3.3-4,3.3c-1.5,0.1-3-0.5-4.1-1.5L623.6,70.8z"/>
<path class="st4" d="M533.3,81.2h8.4v2.6h-5.5v3.4h5.3v2.6h-5.3v3.6h5.5V96h-8.4V81.2z"/>
<path class="st4" d="M549.7,88.9c0-1.1-0.5-1.6-1.4-1.6c-0.8,0.1-1.6,0.6-1.9,1.3v7.2h-2.6V85.3h2.6v1.4c0.7-1,1.9-1.6,3.1-1.7
	c1.4-0.2,2.7,0.9,2.8,2.3c0,0.2,0,0.4,0,0.6v8h-2.6L549.7,88.9L549.7,88.9z"/>
<path class="st4" d="M553.5,85.3h2.8l2.1,7.5l2.2-7.5h2.8l-3.5,10.6h-2.8L553.5,85.3z"/>
<path class="st4" d="M564.3,82.1c0-0.9,0.7-1.6,1.6-1.6c0.9,0,1.6,0.7,1.6,1.6l0,0c0,0.9-0.7,1.6-1.6,1.6S564.3,83,564.3,82.1z
	 M564.6,85.3h2.6v10.6h-2.6V85.3z"/>
<path class="st4" d="M569.6,85.3h2.6v1.5c0.6-1,1.7-1.7,2.9-1.7v2.6c-0.2,0-0.4-0.1-0.6-0.1c-0.9,0.1-1.8,0.5-2.3,1.3V96h-2.6
	L569.6,85.3L569.6,85.3z"/>
<path class="st4" d="M576.1,90.6c0-3,1.7-5.6,4.8-5.6c3.2,0,4.8,2.6,4.8,5.6s-1.7,5.6-4.8,5.6S576.1,93.6,576.1,90.6z M583,90.6
	c0-1.7-0.6-3.2-2.1-3.2c-1.4,0-2,1.5-2,3.2c0,1.8,0.6,3.3,2,3.3C582.3,93.8,583,92.3,583,90.6z"/>
<path class="st4" d="M593.5,88.9c0-1.1-0.5-1.6-1.4-1.6c-0.8,0.1-1.6,0.6-1.9,1.3v7.2h-2.6V85.3h2.6v1.4c0.7-1,1.9-1.6,3.1-1.7
	c1.4-0.2,2.7,0.9,2.8,2.3c0,0.2,0,0.4,0,0.6v8h-2.6L593.5,88.9z"/>
<path class="st4" d="M609.9,88.7c0-0.9-0.4-1.4-1.2-1.4c-0.8,0.1-1.5,0.6-1.8,1.3v7.2h-2.6v-7.2c0-0.9-0.4-1.4-1.2-1.4
	c-0.8,0.1-1.5,0.6-1.8,1.3v7.2h-2.6V85.3h2.6v1.4c0.7-1,1.8-1.6,3-1.7s2.3,0.7,2.6,1.8c0.7-1.1,1.8-1.8,3.1-1.8
	c1.6,0,2.7,0.9,2.7,2.8v8.1h-2.6L609.9,88.7z"/>
<path class="st4" d="M619.1,85c2.9,0,4.6,2.4,4.6,5.7v0.7H617c0,1.4,1.1,2.6,2.5,2.6h0.1c0.9,0,1.7-0.4,2.3-1l1.2,1.6
	c-1,1-2.4,1.6-3.8,1.6c-3,0-5-2.2-5-5.6C614.3,87.5,616.1,85,619.1,85z M617,89.6h4.1c0-1.1-0.5-2.5-2.1-2.5
	C617.6,87.1,617.1,88.5,617,89.6z"/>
<path class="st4" d="M631.4,88.9c0-1.1-0.5-1.6-1.4-1.6c-0.8,0.1-1.6,0.6-1.9,1.3v7.2h-2.6V85.3h2.6v1.4c0.7-1,1.9-1.6,3.1-1.7
	c1.4-0.2,2.7,0.9,2.8,2.3c0,0.2,0,0.4,0,0.6v8h-2.6L631.4,88.9L631.4,88.9z"/>
<path class="st4" d="M636.9,93.3v-5.8h-1.4v-2.3h1.4v-2.9h2.6v2.9h1.8v2.3h-1.8v5.1c0,0.7,0.3,1.1,0.8,1.1c0.3,0,0.6-0.1,0.8-0.3
	l0.5,2c-0.6,0.4-1.3,0.7-2,0.6C637.8,96.2,636.9,95.2,636.9,93.3z"/>
<line class="st5" x1="471" y1="386.3" x2="466" y2="381.3"/>
<line class="st5" x1="471" y1="386.3" x2="466" y2="391.2"/>
<line class="st5" x1="160" y1="386.3" x2="165" y2="381.3"/>
<line class="st5" x1="160" y1="386.3" x2="165" y2="391.2"/>
<line class="st6" x1="160" y1="386.3" x2="471" y2="386.3"/>
<rect x="512" y="346" class="st7" width="19.4" height="122.4"/>
<path class="st4" d="M485.3,427.3h2.2v13.3h-2.2V427.3z"/>
<path class="st4" d="M495.3,434c0-1.1-0.5-1.6-1.4-1.6c-0.8,0.1-1.6,0.6-2,1.3v6.8h-2V431h2v1.3c0.6-0.9,1.7-1.5,2.8-1.5
	c1.3-0.1,2.4,0.8,2.6,2c0,0.2,0,0.4,0,0.6v7.3h-2V434z"/>
<path class="st4" d="M500.4,441.8c0.6,0.7,1.5,1.1,2.5,1.1c1.2,0.1,2.2-0.8,2.3-2c0-0.1,0-0.3,0-0.4v-1.4c-0.5,0.9-1.4,1.5-2.5,1.6
	c-2.2,0-3.5-1.9-3.5-5s1.3-5,3.5-5c1,0,2,0.6,2.5,1.5V431h2v9.3c0,3.3-2.1,4.3-4.2,4.3c-1.3,0.1-2.5-0.4-3.4-1.2L500.4,441.8z
	 M505.2,433.8c-0.3-0.7-1.1-1.3-1.9-1.3c-1.4,0-2.1,1.3-2.1,3.2c0,1.8,0.7,3.2,2.1,3.2c0.8-0.1,1.5-0.6,1.9-1.3V433.8z"/>
<path class="st4" d="M509.5,431h2v1.4c0.5-1,1.6-1.6,2.7-1.6v2c-0.2,0-0.3-0.1-0.5-0.1c-0.9,0.1-1.7,0.6-2.1,1.3v6.6h-2V431H509.5z"
	/>
<path class="st4" d="M519.3,430.7c2.6,0,4,2.2,4,5.1v0.6h-6.1c0.1,1.6,1,2.8,2.5,2.8c0.8,0,1.6-0.4,2.2-1l1,1.2
	c-0.8,1-2.1,1.5-3.3,1.5c-2.7,0-4.3-2.1-4.3-5.1C515.2,433,516.8,430.7,519.3,430.7z M517.2,435h4.2c0-1.2-0.6-2.7-2.1-2.7
	C517.8,432.3,517.3,433.9,517.2,435z"/>
<path class="st4" d="M525.3,438.1c0.7,0.7,1.6,1.2,2.6,1.2s1.6-0.5,1.6-1.2c0-0.8-0.8-1.2-1.8-1.5c-1.4-0.5-3-1.1-3-3.1
	c0-1.5,1.2-2.8,3.3-2.8c1.2,0,2.3,0.4,3.2,1.2l-0.8,1.4c-0.6-0.7-1.4-1-2.3-1c-0.9,0-1.5,0.4-1.5,1.1s0.8,1.1,1.8,1.4
	c1.4,0.5,3,1.1,3,3.2c0,1.7-1.3,2.9-3.5,2.9c-1.3,0.1-2.6-0.4-3.5-1.4L525.3,438.1z"/>
<path class="st4" d="M533.3,438.1c0.7,0.7,1.6,1.2,2.6,1.2s1.6-0.5,1.6-1.2c0-0.8-0.8-1.2-1.8-1.5c-1.4-0.5-3-1.1-3-3.1
	c0-1.5,1.2-2.8,3.3-2.8c1.2,0,2.3,0.4,3.2,1.2l-0.8,1.4c-0.6-0.7-1.4-1-2.3-1c-0.9,0-1.5,0.4-1.5,1.1s0.8,1.1,1.8,1.4
	c1.4,0.5,3,1.1,3,3.2c0,1.7-1.3,2.9-3.5,2.9c-1.3,0.1-2.6-0.4-3.5-1.4L533.3,438.1z"/>
<path class="st4" d="M474.6,454c0-4,2.1-6.9,5.4-6.9c1.9,0,3.6,1.2,4.3,2.9l-1.8,0.8c-0.4-1.1-1.3-1.8-2.4-1.8
	c-1.9,0-3.1,2.1-3.1,4.9s1.2,4.9,3.1,4.9c1.2,0,2.2-0.8,2.5-2l1.8,0.8c-0.6,1.9-2.3,3.1-4.3,3.1C476.7,460.9,474.6,458,474.6,454z"
	/>
<path class="st4" d="M485.5,455.8c0-2.7,1.4-5.1,4.2-5.1c2.7,0,4.2,2.3,4.2,5.1s-1.4,5.1-4.2,5.1S485.5,458.5,485.5,455.8z
	 M491.8,455.8c0-1.7-0.7-3.3-2.1-3.3c-1.5,0-2.1,1.6-2.1,3.3s0.7,3.3,2.1,3.3C491.1,459.1,491.8,457.5,491.8,455.8z"/>
<path class="st4" d="M501.1,454c0-1.1-0.5-1.6-1.4-1.6c-0.8,0.1-1.6,0.6-2,1.3v6.8h-2V451h2v1.3c0.6-0.9,1.7-1.5,2.8-1.5
	c1.3-0.1,2.4,0.8,2.6,2c0,0.2,0,0.4,0,0.6v7.3h-2V454z"/>
<path class="st4" d="M505.8,458.5v-5.8h-1.3V451h1.3v-2.6h2v2.6h1.6v1.7h-1.6v5.3c0,0.7,0.2,1.1,0.7,1.1c0.3,0,0.6-0.1,0.8-0.3
	l0.5,1.5c-0.5,0.4-1.1,0.6-1.7,0.6C506.5,460.9,505.8,460.1,505.8,458.5z"/>
<path class="st4" d="M511.1,451h2v1.4c0.5-1,1.6-1.6,2.7-1.6v2c-0.2,0-0.3-0.1-0.5-0.1c-0.9,0.1-1.7,0.6-2.1,1.3v6.6h-2V451H511.1z"
	/>
<path class="st4" d="M516.8,455.8c0-2.7,1.4-5.1,4.2-5.1c2.7,0,4.2,2.3,4.2,5.1s-1.4,5.1-4.2,5.1S516.8,458.5,516.8,455.8z
	 M523.1,455.8c0-1.7-0.7-3.3-2.1-3.3c-1.5,0-2.1,1.6-2.1,3.3s0.7,3.3,2.1,3.3C522.4,459.1,523.1,457.5,523.1,455.8z"/>
<path class="st4" d="M527,447.3h2v13.3h-2V447.3z"/>
<path class="st4" d="M531.3,447.3h2v13.3h-2V447.3z"/>
<path class="st4" d="M539.4,450.7c2.6,0,4,2.2,4,5.1v0.6h-6.1c0.1,1.6,1,2.8,2.5,2.8c0.8,0,1.6-0.4,2.2-1l1,1.2
	c-0.8,1-2.1,1.5-3.3,1.5c-2.7,0-4.3-2.1-4.3-5.1C535.2,453,536.8,450.7,539.4,450.7z M537.2,455h4.2c0-1.2-0.6-2.7-2.1-2.7
	C537.9,452.3,537.3,453.9,537.2,455z"/>
<path class="st4" d="M545.2,451h2v1.4c0.5-1,1.6-1.6,2.7-1.6v2c-0.2,0-0.3-0.1-0.5-0.1c-0.9,0.1-1.7,0.6-2.1,1.3v6.6h-2V451H545.2z"
	/>
<circle class="st8" cx="100" cy="386.3" r="50"/>
<path class="st9" d="M88.4,364.2c-0.6-1.7-2.9-2.9-7.7-3l0,0c-4.4,0-9.2,2.6-9.2,9.5v6.3c0,4.7,2.2,8.8,5.3,10.7"/>
<path class="st10" d="M75.4,386.8v2.1c0,1.3,0.7,3.3-6.6,4.6c-3.8,0.7-6.8,3.5-7.7,7.3h17.2"/>
<line class="st11" x1="74.1" y1="391.9" x2="79.6" y2="399.1"/>
<path class="st9" d="M128.5,377v-6.3c0-6.9-4.9-9.5-9.2-9.5l0,0c0,0-4.4-0.3-7,2.1"/>
<path class="st10" d="M121.6,400.8h17.2c-0.9-3.7-3.9-6.6-7.7-7.3c-7.1-1.3-6.6-3.3-6.6-4.6v-2.1"/>
<line class="st11" x1="120.4" y1="399.1" x2="125.9" y2="391.8"/>
<path class="st9" d="M123.3,387.8c3.1-1.9,5.3-6,5.3-10.7"/>
<path class="st11" d="M92.3,393.9c-2,0.8-4.1,1.5-6.3,2c-4.3,1.1-7.7,4.4-9.1,8.6h46.4c-1.2-4.3-4.7-7.6-9.1-8.6
	c-2.2-0.4-4.3-1.1-6.3-2"/>
<polyline class="st11" points="92.3,393.9 100.1,404.5 107.9,393.8 "/>
<path class="st11" d="M113.7,392.7h-8.9c3.7-2.3,5.9-7,6.4-12.6c0.1-2.3,0-4.5-0.3-6.8c0,0-0.9-8.9-6.8-8.9c-5.8,0-8.1,4.8-15.9,5.4
	l-1.9,0.1c0.7,0,1.3,0,1.9-0.1l1.4-0.1c-0.3,1.6-0.5,3.3-0.5,4.9v1.6c0,5.6,2.4,14.1,6.1,16.4h-8.9c0,0-2.5,0.3-2.5-3.7v-3.7
	c-0.6-29.2,16.3-27.9,16.3-27.9c20-0.3,16.9,30.4,16.9,30.4S117.3,392.4,113.7,392.7z"/>
<path class="st12" d="M88.2,369.9l-1.9,0.1C87,370,87.6,369.9,88.2,369.9z"/>
<path class="st11" d="M71.5,372c7.9,0,7.2-6,15-5"/>
<path class="st11" d="M127.8,371.7c-6.9,0-6.3-5.3-13.2-4.4"/>
<path class="st13" d="M772.8,65h148.7c6.9,0,12.6,5.6,12.6,12.6l0,0v281.1c0,6.9-5.6,12.6-12.6,12.6l0,0H772.8
	c-6.9,0-12.6-5.6-12.6-12.6l0,0V77.6C760.2,70.6,765.8,65,772.8,65z"/>
<path class="st14" d="M772.8,65h148.7c6.9,0,12.6,5.6,12.6,12.6l0,0v281.1c0,6.9-5.6,12.6-12.6,12.6l0,0H772.8
	c-6.9,0-12.6-5.6-12.6-12.6l0,0V77.6C760.2,70.6,765.8,65,772.8,65z"/>
<path class="st4" d="M813.1,85.2c0.8,0.9,2,1.4,3.2,1.4c1.4,0,2.1-0.8,2.1-1.8c0-1.2-1.1-1.7-2.4-2.3c-1.7-0.7-3.6-1.5-3.6-4
	c0-2.1,1.6-3.7,4.1-3.7c1.4,0,2.8,0.5,3.8,1.4l-1.1,1.7c-0.7-0.7-1.8-1.2-2.8-1.1c-0.9-0.1-1.7,0.5-1.8,1.4c0,0.1,0,0.1,0,0.2
	c0,1,1.1,1.5,2.3,2.1c1.7,0.8,3.7,1.6,3.7,4.2c0,2.2-1.5,3.9-4.3,3.9c-1.6,0.1-3.2-0.5-4.3-1.7L813.1,85.2z"/>
<path class="st4" d="M826.1,78.4c2.6,0,4,2.2,4,5.1v0.6H824c0.1,1.6,1,2.8,2.5,2.8c0.8,0,1.6-0.4,2.2-1l1,1.2
	c-0.8,1-2.1,1.5-3.3,1.5c-2.7,0-4.3-2.1-4.3-5.1C822,80.7,823.6,78.4,826.1,78.4z M824,82.7h4.2c0-1.2-0.6-2.7-2.1-2.7
	C824.6,80.1,824.1,81.6,824,82.7z"/>
<path class="st4" d="M832,78.7h2v1.4c0.5-1,1.6-1.6,2.7-1.6v2c-0.2,0-0.3-0.1-0.5-0.1c-0.9,0.1-1.7,0.6-2.1,1.3v6.6h-2v-9.6H832z"/>
<path class="st4" d="M837,78.7h2.1l2.1,7.3l2.2-7.3h2.1l-3.2,9.7h-2.2L837,78.7z"/>
<path class="st4" d="M846.5,75.8c0-0.7,0.6-1.3,1.3-1.3s1.2,0.6,1.2,1.2s-0.6,1.2-1.2,1.2C847,77.1,846.5,76.5,846.5,75.8z
	 M846.7,78.7h2v9.7h-2V78.7z"/>
<path class="st4" d="M854.8,78.4c1.1-0.1,2.2,0.4,2.9,1.3l-1,1.4c-0.4-0.6-1-0.9-1.7-0.9c-1.5,0-2.4,1.5-2.4,3.3s0.9,3.3,2.4,3.3
	c0.7,0,1.3-0.3,1.7-0.9l1,1.4c-0.7,0.9-1.8,1.4-2.9,1.3c-2.6,0-4.2-2.2-4.2-5.1C850.6,80.6,852.3,78.4,854.8,78.4z"/>
<path class="st4" d="M863,78.4c2.6,0,4,2.2,4,5.1v0.6h-6.1c0.1,1.6,1,2.8,2.5,2.8c0.8,0,1.6-0.4,2.2-1l1,1.2c-0.8,1-2.1,1.5-3.3,1.5
	c-2.7,0-4.3-2.1-4.3-5.1C858.9,80.7,860.5,78.4,863,78.4z M860.9,82.7h4.2c0-1.2-0.6-2.7-2.1-2.7C861.5,80.1,861,81.6,860.9,82.7z"
	/>
<path class="st4" d="M879.6,85.7H875l-0.7,2.6H872l4-13.3h2.7l4,13.3h-2.3L879.6,85.7z M875.4,83.7h3.7l-1.8-6.8L875.4,83.7z"/>
<path class="st15" d="M804.9,285.4h84.4c2.8,0,5,2.2,5,5v60.9c0,2.8-2.2,5-5,5h-84.4c-2.8,0-5-2.2-5-5v-60.9
	C799.9,287.6,802.1,285.4,804.9,285.4z"/>
<path class="st16" d="M804.9,285.4h84.4c2.8,0,5,2.2,5,5v60.9c0,2.8-2.2,5-5,5h-84.4c-2.8,0-5-2.2-5-5v-60.9
	C799.9,287.6,802.1,285.4,804.9,285.4z"/>
<path class="st17" d="M804.9,285.4h84.4c2.8,0,5,2.2,5,5v60.9c0,2.8-2.2,5-5,5h-84.4c-2.8,0-5-2.2-5-5v-60.9
	C799.9,287.6,802.1,285.4,804.9,285.4z"/>
<path class="st13" d="M829.8,322.9c0.2,0.3,0.4,0.6,0.8,0.8l15.5,9l0,0c0.6,0.4,1.4,0.4,2.1,0l15.5-9c0.6-0.4,1-1,1-1.8V304l0,0
	c0-0.7-0.4-1.4-1-1.8l-15.5-9l0,0c-0.6-0.4-1.4-0.4-2.1,0l0,0l-15.5,9c-0.6,0.4-1,1-1,1.8l0,0v17.9
	C829.5,322.2,829.6,322.6,829.8,322.9"/>
<path class="st18" d="M848.1,313.5l16.6-9.6l0,0l0,0v17.9c0,0.7-0.4,1.4-1,1.8l-15.5,9L848.1,313.5L848.1,313.5z"/>
<path class="st19" d="M848.1,313.5l16.6-9.6l0,0l0,0v17.9c0,0.7-0.4,1.4-1,1.8l-15.5,9L848.1,313.5L848.1,313.5z"/>
<path class="st19" d="M847.1,311.7l-16.6-9.6l0,0l0,0l15.5-9c0.6-0.4,1.4-0.4,2.1,0l15.5,9L847.1,311.7z"/>
<path class="st19" d="M846.1,313.5l-16.6-9.6l0,0l0,0v17.9c0,0.7,0.4,1.4,1,1.8l15.5,9L846.1,313.5L846.1,313.5z"/>
<path class="st4" d="M836.3,337.9h3.6c1.8,0.1,3.2,1.7,3.1,3.5c-0.1,1.7-1.4,3.1-3.1,3.1H838v4h-1.8v-10.6H836.3z M839.7,339.4h-1.6
	v3.5h1.6c1-0.1,1.7-1,1.5-2C841.2,340.1,840.5,339.5,839.7,339.4z"/>
<path class="st4" d="M843.8,344.7c0-2.2,1.2-4,3.3-4c2.2,0,3.3,1.9,3.3,4c0,2.2-1.2,4.1-3.3,4.1
	C844.9,348.7,843.8,346.8,843.8,344.7z M848.8,344.7c0-1.4-0.5-2.6-1.7-2.6s-1.7,1.2-1.7,2.6s0.5,2.7,1.7,2.7
	C848.3,347.3,848.8,346.1,848.8,344.7z"/>
<path class="st4" d="M856.4,347.5c-0.4,0.7-1.2,1.2-2,1.2c-1.7,0-2.8-1.6-2.8-4s1.1-4.1,2.8-4.1c0.8,0,1.6,0.5,2,1.2v-4h1.6v10.7
	h-1.6V347.5z M856.4,343.1c-0.3-0.6-0.8-1-1.5-1.1c-1.1,0-1.6,1.2-1.6,2.7s0.5,2.6,1.6,2.6c0.7-0.1,1.2-0.5,1.5-1.1V343.1z"/>
<path class="st15" d="M804.9,103.5h84.4c2.8,0,5,2.2,5,5v60.9c0,2.8-2.2,5-5,5h-84.4c-2.8,0-5-2.2-5-5v-60.9
	C799.9,105.7,802.1,103.5,804.9,103.5z"/>
<path class="st16" d="M804.9,103.5h84.4c2.8,0,5,2.2,5,5v60.9c0,2.8-2.2,5-5,5h-84.4c-2.8,0-5-2.2-5-5v-60.9
	C799.9,105.7,802.1,103.5,804.9,103.5z"/>
<path class="st17" d="M804.9,103.5h84.4c2.8,0,5,2.2,5,5v60.9c0,2.8-2.2,5-5,5h-84.4c-2.8,0-5-2.2-5-5v-60.9
	C799.9,105.7,802.1,103.5,804.9,103.5z"/>
<path class="st13" d="M829.8,141c0.2,0.3,0.4,0.6,0.8,0.8l15.5,9l0,0c0.6,0.4,1.4,0.4,2.1,0l15.5-9c0.6-0.4,1-1,1-1.8v-18l0,0
	c0-0.7-0.4-1.4-1-1.8l-15.5-9l0,0c-0.6-0.4-1.4-0.4-2.1,0l0,0l-15.5,9c-0.6,0.4-1,1-1,1.8l0,0v17.9
	C829.5,140.3,829.6,140.7,829.8,141"/>
<path class="st18" d="M848.1,131.6l16.6-9.6l0,0l0,0v17.9c0,0.7-0.4,1.4-1,1.8l-15.5,9L848.1,131.6L848.1,131.6z"/>
<path class="st19" d="M848.1,131.6l16.6-9.6l0,0l0,0v17.9c0,0.7-0.4,1.4-1,1.8l-15.5,9L848.1,131.6L848.1,131.6z"/>
<path class="st19" d="M847.1,129.8l-16.6-9.6l0,0l0,0l15.5-9c0.6-0.4,1.4-0.4,2.1,0l15.5,9L847.1,129.8z"/>
<path class="st19" d="M846.1,131.6l-16.6-9.6l0,0l0,0v17.9c0,0.7,0.4,1.4,1,1.8l15.5,9L846.1,131.6L846.1,131.6z"/>
<path class="st4" d="M836.3,156h3.6c1.8,0.1,3.2,1.7,3.1,3.5c-0.1,1.7-1.4,3.1-3.1,3.1H838v4h-1.8V156H836.3z M839.7,157.5h-1.6v3.5
	h1.6c1-0.1,1.7-1,1.5-2C841.2,158.3,840.5,157.6,839.7,157.5z"/>
<path class="st4" d="M843.8,162.8c0-2.2,1.2-4,3.3-4c2.2,0,3.3,1.9,3.3,4c0,2.2-1.2,4.1-3.3,4.1C844.9,166.8,843.8,165,843.8,162.8z
	 M848.8,162.8c0-1.4-0.5-2.6-1.7-2.6s-1.7,1.2-1.7,2.6s0.5,2.7,1.7,2.7C848.3,165.4,848.8,164.2,848.8,162.8z"/>
<path class="st4" d="M856.4,165.6c-0.4,0.7-1.2,1.2-2,1.2c-1.7,0-2.8-1.6-2.8-4s1.1-4.1,2.8-4.1c0.8,0,1.6,0.5,2,1.2v-4h1.6v10.7
	h-1.6V165.6z M856.4,161.2c-0.3-0.6-0.8-1-1.5-1.1c-1.1,0-1.6,1.2-1.6,2.7s0.5,2.6,1.6,2.6c0.7-0.1,1.2-0.5,1.5-1.1V161.2z"/>
<path class="st15" d="M804.9,194.4h84.4c2.8,0,5,2.2,5,5v60.9c0,2.8-2.2,5-5,5h-84.4c-2.8,0-5-2.2-5-5v-60.9
	C799.9,196.7,802.1,194.4,804.9,194.4z"/>
<path class="st16" d="M804.9,194.4h84.4c2.8,0,5,2.2,5,5v60.9c0,2.8-2.2,5-5,5h-84.4c-2.8,0-5-2.2-5-5v-60.9
	C799.9,196.7,802.1,194.4,804.9,194.4z"/>
<path class="st17" d="M804.9,194.4h84.4c2.8,0,5,2.2,5,5v60.9c0,2.8-2.2,5-5,5h-84.4c-2.8,0-5-2.2-5-5v-60.9
	C799.9,196.7,802.1,194.4,804.9,194.4z"/>
<path class="st13" d="M829.8,231.9c0.2,0.3,0.4,0.6,0.8,0.8l15.5,9l0,0c0.6,0.4,1.4,0.4,2.1,0l15.5-9c0.6-0.4,1-1,1-1.8V213l0,0
	c0-0.7-0.4-1.4-1-1.8l-15.5-9l0,0c-0.6-0.4-1.4-0.4-2.1,0l0,0l-15.5,9c-0.6,0.4-1,1-1,1.8l0,0v17.9
	C829.5,231.3,829.6,231.6,829.8,231.9"/>
<path class="st18" d="M848.1,222.5l16.6-9.6l0,0l0,0v17.9c0,0.7-0.4,1.4-1,1.8l-15.5,9L848.1,222.5L848.1,222.5z"/>
<path class="st19" d="M848.1,222.5l16.6-9.6l0,0l0,0v17.9c0,0.7-0.4,1.4-1,1.8l-15.5,9L848.1,222.5L848.1,222.5z"/>
<path class="st19" d="M847.1,220.7l-16.6-9.6l0,0l0,0l15.5-9c0.6-0.4,1.4-0.4,2.1,0l15.5,9L847.1,220.7z"/>
<path class="st19" d="M846.1,222.5l-16.6-9.6l0,0l0,0v17.9c0,0.7,0.4,1.4,1,1.8l15.5,9L846.1,222.5L846.1,222.5z"/>
<path class="st4" d="M836.3,246.9h3.6c1.8,0.1,3.2,1.7,3.1,3.5c-0.1,1.7-1.4,3.1-3.1,3.1H838v4h-1.8v-10.6H836.3z M839.7,248.5h-1.6
	v3.5h1.6c1-0.1,1.7-1,1.5-2C841.2,249.2,840.5,248.6,839.7,248.5z"/>
<path class="st4" d="M843.8,253.7c0-2.2,1.2-4,3.3-4c2.2,0,3.3,1.9,3.3,4c0,2.2-1.2,4.1-3.3,4.1
	C844.9,257.8,843.8,255.9,843.8,253.7z M848.8,253.7c0-1.4-0.5-2.6-1.7-2.6s-1.7,1.2-1.7,2.6s0.5,2.7,1.7,2.7
	S848.8,255.1,848.8,253.7z"/>
<path class="st4" d="M856.4,256.6c-0.4,0.7-1.2,1.2-2,1.2c-1.7,0-2.8-1.6-2.8-4s1.1-4.1,2.8-4.1c0.8,0,1.6,0.5,2,1.2v-4h1.6v10.7
	h-1.6V256.6z M856.4,252.1c-0.3-0.6-0.8-1-1.5-1.1c-1.1,0-1.6,1.2-1.6,2.7s0.5,2.6,1.6,2.6c0.7-0.1,1.2-0.5,1.5-1.1V252.1z"/>
<path class="st13" d="M772.8,401.3h148.7c6.9,0,12.6,5.6,12.6,12.6V695c0,6.9-5.6,12.6-12.6,12.6H772.8c-6.9,0-12.6-5.6-12.6-12.6
	V413.8C760.2,406.9,765.8,401.3,772.8,401.3z"/>
<path class="st14" d="M772.8,401.3h148.7c6.9,0,12.6,5.6,12.6,12.6V695c0,6.9-5.6,12.6-12.6,12.6H772.8c-6.9,0-12.6-5.6-12.6-12.6
	V413.8C760.2,406.9,765.8,401.3,772.8,401.3z"/>
<path class="st4" d="M813.1,421.4c0.8,0.9,2,1.4,3.2,1.4c1.4,0,2.1-0.8,2.1-1.8c0-1.2-1.1-1.7-2.4-2.3c-1.7-0.7-3.6-1.5-3.6-4
	c0-2.1,1.6-3.7,4.1-3.7c1.4,0,2.8,0.5,3.8,1.4l-1.1,1.7c-0.7-0.7-1.8-1.2-2.8-1.1c-0.9-0.1-1.7,0.5-1.8,1.4c0,0.1,0,0.1,0,0.2
	c0,1,1.1,1.5,2.3,2.1c1.7,0.8,3.7,1.6,3.7,4.2c0,2.2-1.5,3.9-4.3,3.9c-1.6,0.1-3.2-0.5-4.3-1.7L813.1,421.4z"/>
<path class="st4" d="M826.1,414.7c2.6,0,4,2.2,4,5.1v0.6H824c0.1,1.6,1,2.8,2.5,2.8c0.8,0,1.6-0.4,2.2-1l1,1.2
	c-0.8,1-2.1,1.5-3.3,1.5c-2.7,0-4.3-2.1-4.3-5.1C822,417,823.5,414.7,826.1,414.7z M824,419h4.2c0-1.2-0.6-2.7-2.1-2.7
	C824.6,416.3,824,417.8,824,419z"/>
<path class="st4" d="M831.9,414.9h2v1.4c0.5-1,1.6-1.6,2.7-1.6v2c-0.2,0-0.3-0.1-0.5-0.1c-0.9,0.1-1.7,0.6-2.1,1.3v6.6h-2v-9.6
	H831.9z"/>
<path class="st4" d="M836.9,414.9h2.1l2.1,7.3l2.2-7.3h2.1l-3.2,9.7H840L836.9,414.9z"/>
<path class="st4" d="M846.4,412.1c0-0.7,0.6-1.3,1.3-1.3s1.2,0.6,1.2,1.2s-0.6,1.2-1.2,1.2C847,413.3,846.4,412.8,846.4,412.1z
	 M846.7,414.9h2v9.7h-2V414.9z"/>
<path class="st4" d="M854.8,414.7c1.1-0.1,2.2,0.4,2.9,1.3l-1,1.4c-0.4-0.6-1-0.9-1.7-0.9c-1.5,0-2.4,1.5-2.4,3.3s0.9,3.3,2.4,3.3
	c0.7,0,1.3-0.3,1.7-0.9l1,1.4c-0.7,0.9-1.8,1.4-2.9,1.3c-2.6,0-4.2-2.2-4.2-5.1C850.6,416.8,852.2,414.7,854.8,414.7z"/>
<path class="st4" d="M863,414.7c2.6,0,4,2.2,4,5.1v0.6h-6.1c0.1,1.6,1,2.8,2.5,2.8c0.8,0,1.6-0.4,2.2-1l1,1.2
	c-0.8,1-2.1,1.5-3.3,1.5c-2.7,0-4.3-2.1-4.3-5.1C858.9,417,860.4,414.7,863,414.7z M860.9,419h4.2c0-1.2-0.6-2.7-2.1-2.7
	C861.5,416.3,860.9,417.8,860.9,419z"/>
<path class="st4" d="M873.2,411.3h5c1.8-0.1,3.3,1.2,3.4,2.9c0,0.2,0,0.3,0,0.5c0.1,1.4-0.8,2.7-2.1,3.1c1.5,0.4,2.4,1.8,2.3,3.3
	c0.2,1.8-1.1,3.4-2.9,3.6c-0.2,0-0.4,0-0.6,0h-5.2L873.2,411.3L873.2,411.3z M877.7,416.8c1.1,0,1.6-0.7,1.6-1.8
	c0.1-0.9-0.5-1.7-1.4-1.8c-0.1,0-0.2,0-0.3,0h-2.3v3.6L877.7,416.8L877.7,416.8z M877.8,422.6c1.2,0,1.8-0.7,1.8-1.9
	c0.1-0.9-0.6-1.8-1.5-1.9c-0.1,0-0.2,0-0.3,0h-2.4v3.9h2.4V422.6z"/>
<path class="st15" d="M804.9,621.6h84.4c2.8,0,5,2.2,5,5v60.9c0,2.8-2.2,5-5,5h-84.4c-2.8,0-5-2.2-5-5v-60.9
	C799.9,623.9,802.1,621.6,804.9,621.6z"/>
<path class="st16" d="M804.9,621.6h84.4c2.8,0,5,2.2,5,5v60.9c0,2.8-2.2,5-5,5h-84.4c-2.8,0-5-2.2-5-5v-60.9
	C799.9,623.9,802.1,621.6,804.9,621.6z"/>
<path class="st17" d="M804.9,621.6h84.4c2.8,0,5,2.2,5,5v60.9c0,2.8-2.2,5-5,5h-84.4c-2.8,0-5-2.2-5-5v-60.9
	C799.9,623.9,802.1,621.6,804.9,621.6z"/>
<path class="st13" d="M829.8,659.1c0.2,0.3,0.4,0.6,0.8,0.8l15.5,9l0,0c0.6,0.4,1.4,0.4,2.1,0l15.5-9c0.6-0.4,1-1,1-1.8v-17.9l0,0
	c0-0.7-0.4-1.4-1-1.8l-15.5-9l0,0c-0.6-0.4-1.4-0.4-2.1,0l0,0l-15.5,9c-0.6,0.4-1,1-1,1.8l0,0v17.9
	C829.5,658.5,829.6,658.8,829.8,659.1"/>
<path class="st18" d="M848.1,649.7l16.6-9.6l0,0l0,0V658c0,0.7-0.4,1.4-1,1.8l-15.5,9L848.1,649.7L848.1,649.7z"/>
<path class="st19" d="M848.1,649.7l16.6-9.6l0,0l0,0V658c0,0.7-0.4,1.4-1,1.8l-15.5,9L848.1,649.7L848.1,649.7z"/>
<path class="st19" d="M847.1,647.9l-16.6-9.6l0,0l0,0l15.5-9c0.6-0.4,1.4-0.4,2.1,0l15.5,9L847.1,647.9z"/>
<path class="st19" d="M846.1,649.7l-16.6-9.6l0,0l0,0V658c0,0.7,0.4,1.4,1,1.8l15.5,9L846.1,649.7L846.1,649.7z"/>
<path class="st4" d="M836.3,674.1h3.6c1.8,0.1,3.2,1.7,3.1,3.5c-0.1,1.7-1.4,3.1-3.1,3.1H838v4h-1.8v-10.6H836.3z M839.7,675.7h-1.6
	v3.5h1.6c1-0.1,1.7-1,1.5-2C841.2,676.4,840.5,675.8,839.7,675.7z"/>
<path class="st4" d="M843.8,680.9c0-2.2,1.2-4,3.3-4c2.2,0,3.3,1.9,3.3,4c0,2.2-1.2,4.1-3.3,4.1C844.9,685,843.8,683.1,843.8,680.9z
	 M848.8,680.9c0-1.4-0.5-2.6-1.7-2.6s-1.7,1.2-1.7,2.6s0.5,2.7,1.7,2.7C848.3,683.6,848.8,682.3,848.8,680.9z"/>
<path class="st4" d="M856.4,683.8c-0.4,0.7-1.2,1.2-2,1.2c-1.7,0-2.8-1.6-2.8-4s1.1-4.1,2.8-4.1c0.8,0,1.6,0.5,2,1.2v-4h1.6v10.7
	h-1.6V683.8z M856.4,679.3c-0.3-0.6-0.8-1-1.5-1.1c-1.1,0-1.6,1.2-1.6,2.7s0.5,2.6,1.6,2.6c0.7-0.1,1.2-0.5,1.5-1.1V679.3z"/>
<path class="st15" d="M804.9,439.7h84.4c2.8,0,5,2.2,5,5v60.9c0,2.8-2.2,5-5,5h-84.4c-2.8,0-5-2.2-5-5v-60.9
	C799.9,442,802.1,439.7,804.9,439.7z"/>
<path class="st16" d="M804.9,439.7h84.4c2.8,0,5,2.2,5,5v60.9c0,2.8-2.2,5-5,5h-84.4c-2.8,0-5-2.2-5-5v-60.9
	C799.9,442,802.1,439.7,804.9,439.7z"/>
<path class="st17" d="M804.9,439.7h84.4c2.8,0,5,2.2,5,5v60.9c0,2.8-2.2,5-5,5h-84.4c-2.8,0-5-2.2-5-5v-60.9
	C799.9,442,802.1,439.7,804.9,439.7z"/>
<path class="st13" d="M829.8,477.2c0.2,0.3,0.4,0.6,0.8,0.8l15.5,9l0,0c0.6,0.4,1.4,0.4,2.1,0l15.5-9c0.6-0.4,1-1,1-1.8v-17.9l0,0
	c0-0.7-0.4-1.4-1-1.8l-15.5-9l0,0c-0.6-0.4-1.4-0.4-2.1,0l0,0l-15.5,9c-0.6,0.4-1,1-1,1.8l0,0v17.9
	C829.5,476.6,829.6,476.9,829.8,477.2"/>
<path class="st18" d="M848.1,467.8l16.6-9.6l0,0l0,0v17.9c0,0.7-0.4,1.4-1,1.8l-15.5,9L848.1,467.8L848.1,467.8z"/>
<path class="st19" d="M848.1,467.8l16.6-9.6l0,0l0,0v17.9c0,0.7-0.4,1.4-1,1.8l-15.5,9L848.1,467.8L848.1,467.8z"/>
<path class="st19" d="M847.1,466l-16.6-9.6l0,0l0,0l15.5-9c0.6-0.4,1.4-0.4,2.1,0l15.5,9L847.1,466z"/>
<path class="st19" d="M846.1,467.8l-16.6-9.6l0,0l0,0v17.9c0,0.7,0.4,1.4,1,1.8l15.5,9L846.1,467.8L846.1,467.8z"/>
<path class="st4" d="M836.3,492.2h3.6c1.8,0.1,3.2,1.7,3.1,3.5c-0.1,1.7-1.4,3.1-3.1,3.1H838v4h-1.8v-10.6H836.3z M839.7,493.8h-1.6
	v3.5h1.6c1-0.1,1.7-1,1.5-2C841.2,494.5,840.5,493.9,839.7,493.8z"/>
<path class="st4" d="M843.8,499c0-2.2,1.2-4,3.3-4c2.2,0,3.3,1.9,3.3,4c0,2.2-1.2,4.1-3.3,4.1C844.9,503.1,843.8,501.2,843.8,499z
	 M848.8,499c0-1.4-0.5-2.6-1.7-2.6s-1.7,1.2-1.7,2.6s0.5,2.7,1.7,2.7S848.8,500.4,848.8,499z"/>
<path class="st4" d="M856.4,501.9c-0.4,0.7-1.2,1.2-2,1.2c-1.7,0-2.8-1.6-2.8-4s1.1-4.1,2.8-4.1c0.8,0,1.6,0.5,2,1.2v-4h1.6v10.7
	h-1.6V501.9z M856.4,497.4c-0.3-0.6-0.8-1-1.5-1.1c-1.1,0-1.6,1.2-1.6,2.7s0.5,2.6,1.6,2.6c0.7-0.1,1.2-0.5,1.5-1.1V497.4z"/>
<path class="st15" d="M804.9,530.7h84.4c2.8,0,5,2.2,5,5v60.9c0,2.8-2.2,5-5,5h-84.4c-2.8,0-5-2.2-5-5v-60.9
	C799.9,532.9,802.1,530.7,804.9,530.7z"/>
<path class="st16" d="M804.9,530.7h84.4c2.8,0,5,2.2,5,5v60.9c0,2.8-2.2,5-5,5h-84.4c-2.8,0-5-2.2-5-5v-60.9
	C799.9,532.9,802.1,530.7,804.9,530.7z"/>
<path class="st17" d="M804.9,530.7h84.4c2.8,0,5,2.2,5,5v60.9c0,2.8-2.2,5-5,5h-84.4c-2.8,0-5-2.2-5-5v-60.9
	C799.9,532.9,802.1,530.7,804.9,530.7z"/>
<path class="st13" d="M829.8,568.2c0.2,0.3,0.4,0.6,0.8,0.8l15.5,9l0,0c0.6,0.4,1.4,0.4,2.1,0l15.5-9c0.6-0.4,1-1,1-1.8v-17.9l0,0
	c0-0.7-0.4-1.4-1-1.8l-15.5-9l0,0c-0.6-0.4-1.4-0.4-2.1,0l0,0l-15.5,9c-0.6,0.4-1,1-1,1.8l0,0v17.9
	C829.5,567.5,829.6,567.9,829.8,568.2"/>
<path class="st18" d="M848.1,558.8l16.6-9.6l0,0l0,0v17.9c0,0.7-0.4,1.4-1,1.8l-15.5,9L848.1,558.8L848.1,558.8z"/>
<path class="st19" d="M848.1,558.8l16.6-9.6l0,0l0,0v17.9c0,0.7-0.4,1.4-1,1.8l-15.5,9L848.1,558.8L848.1,558.8z"/>
<path class="st19" d="M847.1,557l-16.6-9.6l0,0l0,0l15.5-9c0.6-0.4,1.4-0.4,2.1,0l15.5,9L847.1,557z"/>
<path class="st19" d="M846.1,558.8l-16.6-9.6l0,0l0,0v17.9c0,0.7,0.4,1.4,1,1.8l15.5,9L846.1,558.8z"/>
<path class="st4" d="M836.3,583.2h3.6c1.8,0.1,3.2,1.7,3.1,3.5c-0.1,1.7-1.4,3.1-3.1,3.1H838v4h-1.8v-10.6H836.3z M839.7,584.7h-1.6
	v3.5h1.6c1-0.1,1.7-1,1.5-2C841.2,585.5,840.5,584.8,839.7,584.7z"/>
<path class="st4" d="M843.8,590c0-2.2,1.2-4,3.3-4c2.2,0,3.3,1.9,3.3,4c0,2.2-1.2,4.1-3.3,4.1C844.9,594,843.8,592.2,843.8,590z
	 M848.8,590c0-1.4-0.5-2.6-1.7-2.6s-1.7,1.2-1.7,2.6s0.5,2.7,1.7,2.7C848.3,592.6,848.8,591.4,848.8,590z"/>
<path class="st4" d="M856.4,592.8c-0.4,0.7-1.2,1.2-2,1.2c-1.7,0-2.8-1.6-2.8-4s1.1-4.1,2.8-4.1c0.8,0,1.6,0.5,2,1.2v-4h1.6v10.7
	h-1.6V592.8z M856.4,588.4c-0.3-0.6-0.8-1-1.5-1.1c-1.1,0-1.6,1.2-1.6,2.7s0.5,2.6,1.6,2.6c0.7-0.1,1.2-0.5,1.5-1.1V588.4z"/>
<line class="st6" x1="654" y1="386.3" x2="588.9" y2="386.3"/>
<path class="st6" d="M669,233.1c0-8.3,6.7-15,15-15l0,0"/>
<path class="st6" d="M669,371.3c0,8.3-6.7,15-15,15"/>
<line class="st6" x1="669" y1="371.3" x2="669" y2="233.1"/>
<line class="st5" x1="750.2" y1="218.1" x2="745.2" y2="213.2"/>
<line class="st5" x1="750.2" y1="218.1" x2="745.2" y2="223.1"/>
<line class="st6" x1="684" y1="218.1" x2="750.2" y2="218.1"/>
<path class="st6" d="M669,539.4c0,8.3,6.7,15,15,15l0,0"/>
<path class="st6" d="M669,401.3c0-8.3-6.7-15-15-15"/>
<line class="st6" x1="669" y1="401.3" x2="669" y2="539.4"/>
<line class="st5" x1="750.2" y1="554.4" x2="745.2" y2="559.3"/>
<line class="st5" x1="750.2" y1="554.4" x2="745.2" y2="549.4"/>
<line class="st6" x1="684" y1="554.4" x2="750.2" y2="554.4"/>
<path class="st20" d="M559.9,419.4v-9.3c0-2.4,1.9-4.3,4.3-4.3h9.3c2.4,0,4.3,1.9,4.3,4.3v9.3c0,2.4-1.9,4.3-4.3,4.3h-9.3
	C561.8,423.8,559.9,421.8,559.9,419.4z"/>
<path class="st20" d="M559.9,390.9v-9.3c0-2.4,1.9-4.3,4.3-4.3h9.3c2.4,0,4.3,1.9,4.3,4.3v9.3c0,2.4-1.9,4.3-4.3,4.3h-9.3
	C561.8,395.2,559.9,393.3,559.9,390.9z"/>
<path class="st20" d="M559.9,362.4v-9.3c0-2.4,1.9-4.3,4.3-4.3h9.3c2.4,0,4.3,1.9,4.3,4.3v9.3c0,2.4-1.9,4.3-4.3,4.3h-9.3
	C561.8,366.7,559.9,364.7,559.9,362.4z"/>
<line class="st5" x1="544.1" y1="386.3" x2="559.9" y2="386.3"/>
<line class="st5" x1="543.3" y1="393.7" x2="561" y2="407.2"/>
<line class="st5" x1="543.3" y1="378.8" x2="561" y2="365.3"/>
<path class="st13" d="M488.8,355.2h46.4c4.3,0,7.8,3.5,7.8,7.8v46.4c0,4.3-3.5,7.8-7.8,7.8h-46.4c-4.3,0-7.8-3.5-7.8-7.8V363
	C481,358.7,484.5,355.2,488.8,355.2z"/>
<path class="st21" d="M488.8,355.2h46.4c4.3,0,7.8,3.5,7.8,7.8v46.4c0,4.3-3.5,7.8-7.8,7.8h-46.4c-4.3,0-7.8-3.5-7.8-7.8V363
	C481,358.7,484.5,355.2,488.8,355.2z"/>
</svg>
