<?xml version="1.0" encoding="utf-8"?>
<!-- Generator: Adobe Illustrator 24.3.0, SVG Export Plug-In . SVG Version: 6.00 Build 0)  -->
<svg version="1.1" id="Art" xmlns="http://www.w3.org/2000/svg" xmlns:xlink="http://www.w3.org/1999/xlink" x="0px" y="0px"
	 viewBox="0 0 1024 520" style="enable-background:new 0 0 1024 520;" xml:space="preserve">
<style type="text/css">
	.st0{fill:#F1F1F1;}
	.st1{fill:#CCCCCC;}
	.st2{fill:none;stroke:#CCCCCC;stroke-width:5;stroke-linecap:round;stroke-miterlimit:10;}
	.st3{fill:none;stroke:#326CE5;stroke-width:5;stroke-linecap:round;stroke-miterlimit:10;stroke-dasharray:2.002000e-02,10.6095;}
	.st4{fill:#FFFFFF;}
	.st5{fill:none;stroke:#666666;stroke-width:2.5;stroke-miterlimit:10;}
	.st6{fill:#343434;}
	.st7{fill:none;stroke:#666666;stroke-width:2;stroke-linecap:round;stroke-miterlimit:10;}
	.st8{fill:none;stroke:#666666;stroke-width:2;stroke-linecap:round;stroke-linejoin:round;}
	.st9{fill:#CCCCCC;stroke:#CCCCCC;stroke-width:5;stroke-linecap:round;stroke-miterlimit:10;}
	.st10{fill:#FFFFFF;stroke:#666666;stroke-width:2;stroke-linecap:round;stroke-linejoin:round;}
	.st11{fill:none;stroke:#666666;stroke-width:2.5;stroke-linecap:round;stroke-linejoin:round;}
	.st12{fill:#FFFFFF;stroke:#666666;stroke-width:3;stroke-miterlimit:10;}
	.st13{fill:none;stroke:#666666;stroke-width:2.25;stroke-linecap:round;stroke-miterlimit:10;}
	.st14{fill:none;stroke:#666666;stroke-width:2.25;stroke-linejoin:round;}
	.st15{fill:none;stroke:#666666;stroke-width:2.25;stroke-linecap:round;stroke-linejoin:round;}
	.st16{fill:#FFFFFF;stroke:#666666;stroke-width:2.25;stroke-linecap:round;stroke-linejoin:round;}
	.st17{fill:#FFFFFF;stroke:#666666;stroke-width:2;stroke-linejoin:round;}
	.st18{fill:#E6E6E6;}
	.st19{fill:none;stroke:#666666;stroke-width:2;stroke-miterlimit:10;}
</style>
<rect class="st0" width="1024" height="520"/>
<path class="st1" d="M522,40h442c5.5,0,10,4.5,10,10v419.5c0,5.5-4.5,10-10,10H522c-5.5,0-10-4.5-10-10V50C512,44.5,516.5,40,522,40
	z"/>
<path class="st2" d="M522,40h442c5.5,0,10,4.5,10,10v419.5c0,5.5-4.5,10-10,10H522c-5.5,0-10-4.5-10-10V50C512,44.5,516.5,40,522,40
	z"/>
<path class="st1" d="M522,40h442c5.5,0,10,4.5,10,10v419.5c0,5.5-4.5,10-10,10H522c-5.5,0-10-4.5-10-10V50C512,44.5,516.5,40,522,40
	z"/>
<path class="st3" d="M522,40h442c5.5,0,10,4.5,10,10v419.5c0,5.5-4.5,10-10,10H522c-5.5,0-10-4.5-10-10V50C512,44.5,516.5,40,522,40
	z"/>
<path class="st4" d="M676.6,65h244.9c6.9,0,12.6,5.6,12.6,12.6V442c0,6.9-5.6,12.6-12.6,12.6H676.6c-6.9,0-12.6-5.6-12.6-12.6V77.6
	C664,70.6,669.6,65,676.6,65z"/>
<path class="st5" d="M676.6,65h244.9c6.9,0,12.6,5.6,12.6,12.6V442c0,6.9-5.6,12.6-12.6,12.6H676.6c-6.9,0-12.6-5.6-12.6-12.6V77.6
	C664,70.6,669.6,65,676.6,65z"/>
<path class="st6" d="M537.3,68.2l-1,1.6v4.1h-2.9V59.2h2.9v6.7l4.1-6.7h3.4l-4.7,6.9l5,7.8h-3.5L537.3,68.2z"/>
<path class="st6" d="M550.9,72.6c-0.7,1-1.9,1.6-3.1,1.6c-1.4,0.2-2.7-0.8-2.8-2.2c0-0.2,0-0.4,0-0.7v-8h2.6v7
	c0,1.1,0.5,1.5,1.4,1.5c0.8-0.1,1.6-0.6,1.9-1.3v-7.3h2.6v10.6h-2.6L550.9,72.6L550.9,72.6z"/>
<path class="st6" d="M556,59.2h2.6v5.4c0.5-1,1.6-1.6,2.7-1.6c2.4,0,3.9,2.2,3.9,5.6c0,3.5-1.6,5.6-3.9,5.6c-1.1,0-2.1-0.6-2.7-1.6
	v1.3H556V59.2z M560.4,71.8c1.3,0,2-1.4,2-3.2c0-1.9-0.7-3.3-2-3.3c-0.8,0.1-1.5,0.6-1.8,1.3v4C558.9,71.3,559.7,71.8,560.4,71.8z"
	/>
<path class="st6" d="M571.2,63c2.9,0,4.6,2.4,4.6,5.7v0.7h-6.7c0,1.4,1.1,2.6,2.5,2.6h0.1c0.9,0,1.7-0.4,2.3-1l1.2,1.6
	c-1,1-2.4,1.6-3.8,1.6c-3,0-5-2.2-5-5.6C566.5,65.5,568.3,63,571.2,63z M569.2,67.6h4.1c0-1.1-0.5-2.5-2.1-2.5
	C569.7,65.1,569.2,66.5,569.2,67.6z"/>
<path class="st6" d="M577.6,63.3h2.6v1.5c0.6-1,1.7-1.7,2.9-1.7v2.6c-0.2,0-0.4-0.1-0.6-0.1c-0.9,0.1-1.8,0.5-2.3,1.3V74h-2.6
	L577.6,63.3L577.6,63.3z"/>
<path class="st6" d="M590.6,66.9c0-1.1-0.5-1.6-1.4-1.6c-0.8,0.1-1.6,0.6-1.9,1.3v7.2h-2.6V63.3h2.6v1.4c0.7-1,1.9-1.6,3.1-1.7
	c1.4-0.2,2.7,0.9,2.8,2.3c0,0.2,0,0.4,0,0.6v8h-2.6L590.6,66.9L590.6,66.9z"/>
<path class="st6" d="M599.8,63c2.9,0,4.6,2.4,4.6,5.7v0.7h-6.7c0,1.4,1.1,2.6,2.5,2.6h0.1c0.9,0,1.7-0.4,2.3-1l1.2,1.6
	c-1,1-2.4,1.6-3.8,1.6c-3,0-5-2.2-5-5.6C595.1,65.5,596.9,63,599.8,63z M597.7,67.6h4.1c0-1.1-0.5-2.5-2.1-2.5
	C598.3,65.1,597.8,66.5,597.7,67.6z"/>
<path class="st6" d="M606.6,71.3v-5.8h-1.4v-2.3h1.4v-2.9h2.6v2.9h1.8v2.3h-1.8v5.1c0,0.7,0.3,1.1,0.8,1.1c0.3,0,0.6-0.1,0.8-0.3
	l0.5,2c-0.6,0.4-1.3,0.7-2,0.6C607.5,74.2,606.6,73.2,606.6,71.3z"/>
<path class="st6" d="M616.9,63c2.9,0,4.6,2.4,4.6,5.7v0.7h-6.7c0,1.4,1.1,2.6,2.5,2.6h0.1c0.9,0,1.7-0.4,2.3-1l1.2,1.6
	c-1,1-2.4,1.6-3.8,1.6c-3,0-5-2.2-5-5.6C612.2,65.5,614,63,616.9,63z M614.8,67.6h4.1c0-1.1-0.5-2.5-2.1-2.5
	C615.4,65.1,614.9,66.5,614.8,67.6z"/>
<path class="st6" d="M623.6,70.8c0.8,0.8,1.8,1.3,2.9,1.3c1,0,1.6-0.4,1.6-1.1s-0.8-1-1.8-1.4c-1.5-0.5-3.4-1.1-3.4-3.4
	c0-1.7,1.4-3.2,3.9-3.2c1.4,0,2.7,0.5,3.7,1.4l-1.1,1.8c-0.7-0.7-1.6-1.1-2.6-1.1c-0.8,0-1.4,0.4-1.4,1s0.7,0.9,1.7,1.3
	c1.5,0.5,3.6,1.1,3.6,3.6c0,1.9-1.6,3.3-4,3.3c-1.5,0.1-3-0.5-4.1-1.5L623.6,70.8z"/>
<path class="st6" d="M533.3,81.2h8.4v2.6h-5.5v3.4h5.3v2.6h-5.3v3.6h5.5V96h-8.4V81.2z"/>
<path class="st6" d="M549.7,88.9c0-1.1-0.5-1.6-1.4-1.6c-0.8,0.1-1.6,0.6-1.9,1.3v7.2h-2.6V85.3h2.6v1.4c0.7-1,1.9-1.6,3.1-1.7
	c1.4-0.2,2.7,0.9,2.8,2.3c0,0.2,0,0.4,0,0.6v8h-2.6L549.7,88.9L549.7,88.9z"/>
<path class="st6" d="M553.5,85.3h2.8l2.1,7.5l2.2-7.5h2.8l-3.5,10.6h-2.8L553.5,85.3z"/>
<path class="st6" d="M564.3,82.1c0-0.9,0.7-1.6,1.6-1.6c0.9,0,1.6,0.7,1.6,1.6l0,0c0,0.9-0.7,1.6-1.6,1.6S564.3,83,564.3,82.1z
	 M564.6,85.3h2.6v10.6h-2.6V85.3z"/>
<path class="st6" d="M569.6,85.3h2.6v1.5c0.6-1,1.7-1.7,2.9-1.7v2.6c-0.2,0-0.4-0.1-0.6-0.1c-0.9,0.1-1.8,0.5-2.3,1.3V96h-2.6
	L569.6,85.3L569.6,85.3z"/>
<path class="st6" d="M576.1,90.6c0-3,1.7-5.6,4.8-5.6c3.2,0,4.8,2.6,4.8,5.6s-1.7,5.6-4.8,5.6S576.1,93.6,576.1,90.6z M583,90.6
	c0-1.7-0.6-3.2-2.1-3.2c-1.4,0-2,1.5-2,3.2c0,1.8,0.6,3.3,2,3.3C582.3,93.8,583,92.3,583,90.6z"/>
<path class="st6" d="M593.5,88.9c0-1.1-0.5-1.6-1.4-1.6c-0.8,0.1-1.6,0.6-1.9,1.3v7.2h-2.6V85.3h2.6v1.4c0.7-1,1.9-1.6,3.1-1.7
	c1.4-0.2,2.7,0.9,2.8,2.3c0,0.2,0,0.4,0,0.6v8h-2.6L593.5,88.9z"/>
<path class="st6" d="M609.9,88.7c0-0.9-0.4-1.4-1.2-1.4c-0.8,0.1-1.5,0.6-1.8,1.3v7.2h-2.6v-7.2c0-0.9-0.4-1.4-1.2-1.4
	c-0.8,0.1-1.5,0.6-1.8,1.3v7.2h-2.6V85.3h2.6v1.4c0.7-1,1.8-1.6,3-1.7s2.3,0.7,2.6,1.8c0.7-1.1,1.8-1.8,3.1-1.8
	c1.6,0,2.7,0.9,2.7,2.8v8.1h-2.6L609.9,88.7z"/>
<path class="st6" d="M619.1,85c2.9,0,4.6,2.4,4.6,5.7v0.7H617c0,1.4,1.1,2.6,2.5,2.6h0.1c0.9,0,1.7-0.4,2.3-1l1.2,1.6
	c-1,1-2.4,1.6-3.8,1.6c-3,0-5-2.2-5-5.6C614.3,87.5,616.1,85,619.1,85z M617,89.6h4.1c0-1.1-0.5-2.5-2.1-2.5
	C617.6,87.1,617.1,88.5,617,89.6z"/>
<path class="st6" d="M631.4,88.9c0-1.1-0.5-1.6-1.4-1.6c-0.8,0.1-1.6,0.6-1.9,1.3v7.2h-2.6V85.3h2.6v1.4c0.7-1,1.9-1.6,3.1-1.7
	c1.4-0.2,2.7,0.9,2.8,2.3c0,0.2,0,0.4,0,0.6v8h-2.6L631.4,88.9L631.4,88.9z"/>
<path class="st6" d="M636.9,93.3v-5.8h-1.4v-2.3h1.4v-2.9h2.6v2.9h1.8v2.3h-1.8v5.1c0,0.7,0.3,1.1,0.8,1.1c0.3,0,0.6-0.1,0.8-0.3
	l0.5,2c-0.6,0.4-1.3,0.7-2,0.6C637.8,96.2,636.9,95.2,636.9,93.3z"/>
<line class="st7" x1="605.9" y1="271.5" x2="587.8" y2="271.5"/>
<line class="st8" x1="454.3" y1="271.5" x2="449.3" y2="266.5"/>
<line class="st8" x1="454.3" y1="271.5" x2="449.3" y2="276.4"/>
<line class="st7" x1="160" y1="271.5" x2="454.3" y2="271.5"/>
<rect x="512" y="234" class="st9" width="19.4" height="133.3"/>
<path class="st6" d="M485.3,312.5h2.2v13.3h-2.2V312.5z"/>
<path class="st6" d="M495.3,319.2c0-1.1-0.5-1.6-1.4-1.6c-0.8,0.1-1.6,0.6-2,1.3v6.8h-2V316h2v1.3c0.6-0.9,1.7-1.5,2.8-1.5
	c1.3-0.1,2.4,0.8,2.6,2c0,0.2,0,0.4,0,0.6v7.3h-2V319.2z"/>
<path class="st6" d="M500.4,327c0.6,0.7,1.5,1.1,2.5,1.1c1.2,0.1,2.2-0.8,2.3-2c0-0.1,0-0.3,0-0.4v-1.4c-0.5,0.9-1.4,1.5-2.5,1.6
	c-2.2,0-3.5-1.9-3.5-5s1.3-5,3.5-5c1,0,2,0.6,2.5,1.5v-1.3h2v9.3c0,3.3-2.1,4.3-4.2,4.3c-1.3,0.1-2.5-0.4-3.4-1.2L500.4,327z
	 M505.2,319c-0.3-0.7-1.1-1.3-1.9-1.3c-1.4,0-2.1,1.3-2.1,3.2c0,1.8,0.7,3.2,2.1,3.2c0.8-0.1,1.5-0.6,1.9-1.3V319z"/>
<path class="st6" d="M509.5,316.2h2v1.4c0.5-1,1.6-1.6,2.7-1.6v2c-0.2,0-0.3-0.1-0.5-0.1c-0.9,0.1-1.7,0.6-2.1,1.3v6.6h-2v-9.6
	H509.5z"/>
<path class="st6" d="M519.3,315.9c2.6,0,4,2.2,4,5.1v0.6h-6.1c0.1,1.6,1,2.8,2.5,2.8c0.8,0,1.6-0.4,2.2-1l1,1.2
	c-0.8,1-2.1,1.5-3.3,1.5c-2.7,0-4.3-2.1-4.3-5.1C515.2,318.2,516.8,315.9,519.3,315.9z M517.2,320.2h4.2c0-1.2-0.6-2.7-2.1-2.7
	C517.8,317.5,517.3,319.1,517.2,320.2z"/>
<path class="st6" d="M525.3,323.3c0.7,0.7,1.6,1.2,2.6,1.2s1.6-0.5,1.6-1.2c0-0.8-0.8-1.2-1.8-1.5c-1.4-0.5-3-1.1-3-3.1
	c0-1.5,1.2-2.8,3.3-2.8c1.2,0,2.3,0.4,3.2,1.2l-0.8,1.4c-0.6-0.7-1.4-1-2.3-1c-0.9,0-1.5,0.4-1.5,1.1s0.8,1.1,1.8,1.4
	c1.4,0.5,3,1.1,3,3.2c0,1.7-1.3,2.9-3.5,2.9c-1.3,0.1-2.6-0.4-3.5-1.4L525.3,323.3z"/>
<path class="st6" d="M533.3,323.3c0.7,0.7,1.6,1.2,2.6,1.2s1.6-0.5,1.6-1.2c0-0.8-0.8-1.2-1.8-1.5c-1.4-0.5-3-1.1-3-3.1
	c0-1.5,1.2-2.8,3.3-2.8c1.2,0,2.3,0.4,3.2,1.2l-0.8,1.4c-0.6-0.7-1.4-1-2.3-1c-0.9,0-1.5,0.4-1.5,1.1s0.8,1.1,1.8,1.4
	c1.4,0.5,3,1.1,3,3.2c0,1.7-1.3,2.9-3.5,2.9c-1.3,0.1-2.6-0.4-3.5-1.4L533.3,323.3z"/>
<path class="st6" d="M474.6,339.2c0-4,2.1-6.9,5.4-6.9c1.9,0,3.6,1.2,4.3,2.9l-1.8,0.8c-0.4-1.1-1.3-1.8-2.4-1.8
	c-1.9,0-3.1,2.1-3.1,4.9s1.2,4.9,3.1,4.9c1.2,0,2.2-0.8,2.5-2l1.8,0.8c-0.6,1.9-2.3,3.1-4.3,3.1
	C476.7,346.1,474.6,343.2,474.6,339.2z"/>
<path class="st6" d="M485.5,341c0-2.7,1.4-5.1,4.2-5.1c2.7,0,4.2,2.3,4.2,5.1s-1.4,5.1-4.2,5.1S485.5,343.7,485.5,341z M491.8,341
	c0-1.7-0.7-3.3-2.1-3.3c-1.5,0-2.1,1.6-2.1,3.3s0.7,3.3,2.1,3.3C491.1,344.3,491.8,342.7,491.8,341L491.8,341z"/>
<path class="st6" d="M501.1,339.2c0-1.1-0.5-1.6-1.4-1.6c-0.8,0.1-1.6,0.6-2,1.3v6.8h-2V336h2v1.3c0.6-0.9,1.7-1.5,2.8-1.5
	c1.3-0.1,2.4,0.8,2.6,2c0,0.2,0,0.4,0,0.6v7.3h-2V339.2z"/>
<path class="st6" d="M505.8,343.7v-5.8h-1.3v-1.7h1.3v-2.6h2v2.6h1.6v1.7h-1.6v5.3c0,0.7,0.2,1.1,0.7,1.1c0.3,0,0.6-0.1,0.8-0.3
	l0.5,1.5c-0.5,0.4-1.1,0.6-1.7,0.6C506.5,346.1,505.8,345.2,505.8,343.7z"/>
<path class="st6" d="M511.1,336.2h2v1.4c0.5-1,1.6-1.6,2.7-1.6v2c-0.2,0-0.3-0.1-0.5-0.1c-0.9,0.1-1.7,0.6-2.1,1.3v6.6h-2v-9.6
	H511.1z"/>
<path class="st6" d="M516.8,341c0-2.7,1.4-5.1,4.2-5.1s4.2,2.3,4.2,5.1s-1.4,5.1-4.2,5.1S516.8,343.7,516.8,341z M523.1,341
	c0-1.7-0.7-3.3-2.1-3.3s-2.1,1.6-2.1,3.3s0.7,3.3,2.1,3.3S523.1,342.7,523.1,341z"/>
<path class="st6" d="M527,332.5h2v13.3h-2V332.5z"/>
<path class="st6" d="M531.3,332.5h2v13.3h-2V332.5z"/>
<path class="st6" d="M539.4,335.9c2.6,0,4,2.2,4,5.1v0.6h-6.1c0.1,1.6,1,2.8,2.5,2.8c0.8,0,1.6-0.4,2.2-1l1,1.2
	c-0.8,1-2.1,1.5-3.3,1.5c-2.7,0-4.3-2.1-4.3-5.1C535.2,338.2,536.8,335.9,539.4,335.9z M537.2,340.2h4.2c0-1.2-0.6-2.7-2.1-2.7
	C537.8,337.5,537.3,339.1,537.2,340.2z"/>
<path class="st6" d="M545.2,336.2h2v1.4c0.5-1,1.6-1.6,2.7-1.6v2c-0.2,0-0.3-0.1-0.5-0.1c-0.9,0.1-1.7,0.6-2.1,1.3v6.6h-2v-9.6
	H545.2z"/>
<path class="st6" d="M482.9,358.7l-1.9,7.1h-2.1l-2.6-9.7h2.1l1.7,7l1.8-7h1.8l1.9,7l1.7-7h2.1l-2.6,9.7h-2.1L482.9,358.7z"/>
<path class="st6" d="M490.4,353.3c0-0.7,0.6-1.3,1.3-1.3c0.7,0,1.2,0.6,1.2,1.2s-0.6,1.2-1.2,1.2C491,354.6,490.4,354,490.4,353.3z
	 M490.7,356.2h2v9.7h-2V356.2z"/>
<path class="st6" d="M495.4,363.7v-5.8h-1.3v-1.7h1.3v-2.6h2v2.6h1.6v1.7h-1.6v5.3c0,0.7,0.2,1.1,0.7,1.1c0.3,0,0.6-0.1,0.8-0.3
	l0.5,1.5c-0.5,0.4-1.1,0.6-1.7,0.6C496.1,366.1,495.4,365.2,495.4,363.7z"/>
<path class="st6" d="M506.1,359.2c0-1.1-0.5-1.5-1.4-1.5c-0.8,0.1-1.6,0.6-2,1.3v6.8h-2v-13.3h2v5c0.6-0.9,1.7-1.5,2.8-1.5
	c1.7,0,2.5,0.9,2.5,2.6v7.3h-2v-6.7H506.1z"/>
<path class="st6" d="M520.9,356.2l-1.9,9.6h-2.3l-3-13.3h2.4l1.9,10l2.1-10h1.8l2.1,10l1.9-10h2.4l-3,13.3H523L520.9,356.2z"/>
<path class="st6" d="M535.5,363.2h-4.6l-0.7,2.6h-2.3l4-13.3h2.7l4,13.3h-2.3L535.5,363.2z M531.4,361.2h3.7l-1.8-6.8L531.4,361.2z"
	/>
<path class="st6" d="M539.8,352.5h7.3v1.9H542v3.6h4.9v2H542v5.8h-2.2V352.5z"/>
<path class="st10" d="M559.9,304.7v-9.3c0-2.4,1.9-4.3,4.3-4.3h9.3c2.4,0,4.3,1.9,4.3,4.3v9.3c0,2.4-1.9,4.3-4.3,4.3h-9.3
	C561.8,309,559.9,307.1,559.9,304.7z"/>
<path class="st10" d="M559.9,276.1v-9.3c0-2.4,1.9-4.3,4.3-4.3h9.3c2.4,0,4.3,1.9,4.3,4.3v9.3c0,2.4-1.9,4.3-4.3,4.3h-9.3
	C561.8,280.5,559.9,278.5,559.9,276.1z"/>
<path class="st10" d="M559.9,247.6v-9.3c0-2.4,1.9-4.3,4.3-4.3h9.3c2.4,0,4.3,1.9,4.3,4.3v9.3c0,2.4-1.9,4.3-4.3,4.3h-9.3
	C561.8,251.9,559.9,250,559.9,247.6z"/>
<line class="st8" x1="544.1" y1="271.5" x2="559.9" y2="271.5"/>
<line class="st8" x1="543.3" y1="278.9" x2="561" y2="292.4"/>
<line class="st8" x1="543.3" y1="264.1" x2="561" y2="250.5"/>
<path class="st4" d="M488.8,240.5h46.4c4.3,0,7.8,3.5,7.8,7.8v46.4c0,4.3-3.5,7.8-7.8,7.8h-46.4c-4.3,0-7.8-3.5-7.8-7.8v-46.4
	C481,244,484.5,240.5,488.8,240.5z"/>
<path class="st11" d="M488.8,240.5h46.4c4.3,0,7.8,3.5,7.8,7.8v46.4c0,4.3-3.5,7.8-7.8,7.8h-46.4c-4.3,0-7.8-3.5-7.8-7.8v-46.4
	C481,244,484.5,240.5,488.8,240.5z"/>
<path class="st7" d="M620.9,160.5c0-8.3,6.7-15,15-15l0,0"/>
<path class="st7" d="M620.9,256.5c0,8.3-6.7,15-15,15"/>
<line class="st8" x1="654" y1="145.5" x2="649" y2="140.5"/>
<line class="st8" x1="654" y1="145.5" x2="649" y2="150.4"/>
<line class="st7" x1="635.9" y1="145.5" x2="654" y2="145.5"/>
<line class="st7" x1="620.9" y1="160.5" x2="620.9" y2="257.3"/>
<path class="st7" d="M620.9,382.5c0,8.3,6.7,15,15,15"/>
<path class="st7" d="M620.9,286.5c0-8.3-6.7-15-15-15"/>
<line class="st8" x1="654" y1="397.5" x2="649" y2="402.4"/>
<line class="st8" x1="654" y1="397.5" x2="649" y2="392.5"/>
<line class="st7" x1="635.9" y1="397.5" x2="654" y2="397.5"/>
<line class="st7" x1="620.9" y1="382.5" x2="620.9" y2="285.7"/>
<line class="st8" x1="160" y1="271.5" x2="165" y2="266.5"/>
<line class="st8" x1="160" y1="271.5" x2="165" y2="276.4"/>
<circle class="st12" cx="100" cy="271.5" r="50"/>
<path class="st13" d="M88.4,249.4c-0.6-1.7-2.9-2.9-7.7-3l0,0c-4.4,0-9.2,2.6-9.2,9.5v6.3c0,4.7,2.2,8.8,5.3,10.7"/>
<path class="st14" d="M75.4,272v2.1c0,1.3,0.7,3.3-6.6,4.6c-3.8,0.7-6.8,3.5-7.7,7.3h17.2"/>
<line class="st15" x1="74.1" y1="277.1" x2="79.6" y2="284.4"/>
<path class="st13" d="M128.5,262.3V256c0-6.9-4.9-9.5-9.2-9.5l0,0c0,0-4.4-0.3-7,2.1"/>
<path class="st14" d="M121.6,286.1h17.2c-0.9-3.7-3.9-6.6-7.7-7.3c-7.1-1.3-6.6-3.3-6.6-4.6v-2.1"/>
<line class="st15" x1="120.4" y1="284.4" x2="125.9" y2="277.1"/>
<path class="st13" d="M123.3,273c3.1-1.9,5.3-6,5.3-10.7"/>
<path class="st15" d="M92.3,279.1c-2,0.8-4.1,1.5-6.3,2c-4.3,1.1-7.7,4.4-9.1,8.6h46.4c-1.2-4.3-4.7-7.6-9.1-8.6
	c-2.2-0.4-4.3-1.1-6.3-2"/>
<polyline class="st15" points="92.3,279.1 100.1,289.7 107.9,279.1 "/>
<path class="st15" d="M113.7,277.9h-8.9c3.7-2.3,5.9-7,6.4-12.6c0.1-2.3,0-4.5-0.3-6.8c0,0-0.9-8.9-6.8-8.9c-5.8,0-8.1,4.8-15.9,5.4
	l-1.9,0.1c0.7,0,1.3,0,1.9-0.1l1.4-0.1c-0.3,1.6-0.5,3.3-0.5,4.9v1.6c0,5.6,2.4,14.1,6.1,16.4h-8.9c0,0-2.5,0.3-2.5-3.7v-3.7
	c-0.6-29.2,16.3-27.9,16.3-27.9c20-0.3,16.9,30.4,16.9,30.4S117.3,277.6,113.7,277.9z"/>
<path class="st16" d="M88.2,255.1l-1.9,0.1C87,255.2,87.6,255.2,88.2,255.1z"/>
<path class="st15" d="M71.5,257.2c7.9,0,7.2-6,15-5"/>
<path class="st15" d="M127.8,256.9c-6.9,0-6.3-5.3-13.2-4.4"/>
<path class="st6" d="M749.7,85.2c0.8,0.9,2,1.4,3.2,1.4c1.4,0,2.1-0.8,2.1-1.8c0-1.2-1.1-1.7-2.4-2.3c-1.7-0.7-3.6-1.5-3.6-4
	c0-2.1,1.6-3.7,4.1-3.7c1.4,0,2.8,0.5,3.8,1.4l-1.1,1.7c-0.7-0.7-1.8-1.2-2.8-1.1c-0.9-0.1-1.7,0.5-1.8,1.4c0,0.1,0,0.1,0,0.2
	c0,1,1.1,1.5,2.3,2.1c1.7,0.8,3.7,1.6,3.7,4.2c0,2.2-1.5,3.9-4.3,3.9c-1.6,0.1-3.2-0.5-4.3-1.7L749.7,85.2z"/>
<path class="st6" d="M762.7,78.4c2.6,0,4,2.2,4,5.1v0.6h-6.1c0.1,1.6,1,2.8,2.5,2.8c0.8,0,1.6-0.4,2.2-1l1,1.2
	c-0.8,1-2.1,1.5-3.3,1.5c-2.7,0-4.3-2.1-4.3-5.1C758.5,80.7,760.1,78.4,762.7,78.4z M760.5,82.7h4.2c0-1.2-0.6-2.7-2.1-2.7
	C761.1,80.1,760.6,81.6,760.5,82.7z"/>
<path class="st6" d="M768.5,78.7h2v1.4c0.5-1,1.6-1.6,2.7-1.6v2c-0.2,0-0.3-0.1-0.5-0.1c-0.9,0.1-1.7,0.6-2.1,1.3v6.6h-2v-9.6H768.5
	z"/>
<path class="st6" d="M773.5,78.7h2.1l2.1,7.3l2.2-7.3h2.1l-3.2,9.7h-2.2L773.5,78.7z"/>
<path class="st6" d="M783,75.8c0-0.7,0.6-1.3,1.3-1.3s1.2,0.6,1.2,1.2s-0.6,1.2-1.2,1.2C783.6,77.1,783,76.5,783,75.8z M783.2,78.7
	h2v9.7h-2V78.7z"/>
<path class="st6" d="M791.4,78.4c1.1-0.1,2.2,0.4,2.9,1.3l-1,1.4c-0.4-0.6-1-0.9-1.7-0.9c-1.5,0-2.4,1.5-2.4,3.3s0.9,3.3,2.4,3.3
	c0.7,0,1.3-0.3,1.7-0.9l1,1.4c-0.7,0.9-1.8,1.4-2.9,1.3c-2.6,0-4.2-2.2-4.2-5.1C787.1,80.6,788.8,78.4,791.4,78.4z"/>
<path class="st6" d="M799.6,78.4c2.6,0,4,2.2,4,5.1v0.6h-6.1c0.1,1.6,1,2.8,2.5,2.8c0.8,0,1.6-0.4,2.2-1l1,1.2
	c-0.8,1-2.1,1.5-3.3,1.5c-2.7,0-4.3-2.1-4.3-5.1C795.4,80.7,797,78.4,799.6,78.4z M797.4,82.7h4.2c0-1.2-0.6-2.7-2.1-2.7
	C798,80.1,797.5,81.6,797.4,82.7z"/>
<path class="st6" d="M819.2,78.6l-3.2,9.7h-0.9l-3.2-9.7v9.7h-2.2V75h3l2.9,8.6l2.9-8.6h3v13.3h-2.2L819.2,78.6L819.2,78.6z"/>
<path class="st6" d="M827.5,78.4c2.6,0,4,2.2,4,5.1v0.6h-6.1c0.1,1.6,1,2.8,2.5,2.8c0.8,0,1.6-0.4,2.2-1l1,1.2
	c-0.8,1-2.1,1.5-3.3,1.5c-2.7,0-4.3-2.1-4.3-5.1C823.4,80.7,825,78.4,827.5,78.4z M825.4,82.7h4.2c0-1.2-0.6-2.7-2.1-2.7
	C826,80.1,825.5,81.6,825.4,82.7z"/>
<path class="st6" d="M833.5,85.8c0.7,0.7,1.6,1.2,2.6,1.2s1.6-0.5,1.6-1.2c0-0.8-0.8-1.2-1.8-1.5c-1.4-0.5-3-1.1-3-3.1
	c0-1.5,1.2-2.8,3.3-2.8c1.2,0,2.3,0.4,3.2,1.2l-0.8,1.4c-0.6-0.7-1.4-1-2.3-1c-0.9,0-1.5,0.4-1.5,1.1s0.8,1.1,1.8,1.4
	c1.4,0.5,3,1.1,3,3.2c0,1.7-1.3,2.9-3.5,2.9c-1.3,0.1-2.6-0.4-3.5-1.4L833.5,85.8z"/>
<path class="st6" d="M846.7,81.7c0-1.1-0.5-1.5-1.4-1.5c-0.8,0.1-1.6,0.6-2,1.3v6.8h-2V75h2v5c0.6-0.9,1.7-1.5,2.8-1.5
	c1.7,0,2.5,0.9,2.5,2.6v7.3h-2v-6.7H846.7z"/>
<path class="st17" d="M481,291.2c6.7,0,17-12.2,17-24.6c0-4.1,0-6.1,0-11.2c-5.6-0.3-13.2-1.9-17-4.2c-3.9,2.4-11.4,4-17,4.2
	c0,5,0,7.1,0,11.2C464,279.1,474.3,291.2,481,291.2z"/>
<polyline class="st8" points="472.5,270.8 479.2,277.5 492.1,264.6 "/>
<path class="st18" d="M825,103.5h74c2.8,0,5,2.2,5,5v74c0,2.8-2.2,5-5,5h-74c-2.8,0-5-2.2-5-5v-74C820,105.7,822.2,103.5,825,103.5z
	"/>
<path class="st5" d="M825,103.5h74c2.8,0,5,2.2,5,5v74c0,2.8-2.2,5-5,5h-74c-2.8,0-5-2.2-5-5v-74C820,105.7,822.2,103.5,825,103.5z"
	/>
<path class="st6" d="M831.4,148.6c0.7,0.8,1.8,1.3,2.9,1.3c1.2,0,1.9-0.7,1.9-1.6c0-1.1-1-1.5-2.2-2.1c-1.5-0.6-3.2-1.4-3.2-3.6
	c0-1.9,1.6-3.4,3.5-3.4c0.1,0,0.2,0,0.3,0c1.3,0,2.5,0.4,3.5,1.3l-1,1.5c-0.7-0.7-1.6-1-2.5-1c-0.8-0.1-1.5,0.5-1.6,1.3
	c0,0.1,0,0.1,0,0.2c0,0.9,1,1.4,2.1,1.9c1.5,0.7,3.3,1.5,3.3,3.8c0,2-1.3,3.5-3.9,3.5c-1.4,0.1-2.9-0.5-3.9-1.5L831.4,148.6z"/>
<path class="st6" d="M843.1,142.5c2.4,0,3.6,2,3.6,4.6v0.5h-5.5c-0.1,1.3,0.9,2.4,2.1,2.5h0.1c0.8,0,1.5-0.4,2-0.9l0.9,1.1
	c-0.8,0.9-1.9,1.3-3,1.3c-2.4,0-3.9-1.9-3.9-4.6C839.4,144.5,840.8,142.5,843.1,142.5z M841.2,146.4h3.8c0-1.1-0.5-2.4-1.9-2.4
	C841.8,144,841.2,145.3,841.2,146.4z"/>
<path class="st6" d="M848.4,142.7h1.8v1.3c0.5-0.9,1.4-1.4,2.4-1.5v1.8c-0.2,0-0.3-0.1-0.5-0.1c-0.8,0.1-1.5,0.5-1.9,1.2v6h-1.8
	V142.7z"/>
<path class="st6" d="M852.9,142.7h1.9l1.9,6.6l1.9-6.6h1.9l-2.9,8.7h-1.9L852.9,142.7z"/>
<path class="st6" d="M861.4,140.2c0-0.6,0.5-1.1,1.1-1.1s1.1,0.5,1.1,1.1s-0.5,1.1-1.1,1.1S861.4,140.8,861.4,140.2z M861.6,142.7
	h1.8v8.7h-1.8V142.7z"/>
<path class="st6" d="M869,142.5c1-0.1,2,0.4,2.6,1.2l-0.9,1.2c-0.3-0.5-0.9-0.8-1.5-0.8c-1.4,0-2.1,1.3-2.1,3s0.8,3,2.1,3
	c0.6,0,1.2-0.3,1.5-0.8l0.9,1.2c-0.6,0.8-1.6,1.2-2.6,1.2c-2.3,0-3.8-1.9-3.8-4.6S866.6,142.5,869,142.5z"/>
<path class="st6" d="M876.3,142.5c2.4,0,3.6,2,3.6,4.6v0.5h-5.5c-0.1,1.3,0.9,2.4,2.1,2.5h0.1c0.8,0,1.5-0.4,2-0.9l0.9,1.1
	c-0.8,0.9-1.9,1.3-3,1.3c-2.4,0-3.9-1.9-3.9-4.6C872.6,144.5,874,142.5,876.3,142.5z M874.4,146.4h3.8c0-1.1-0.5-2.4-1.9-2.4
	C875,144,874.5,145.3,874.4,146.4z"/>
<path class="st6" d="M891.2,149.1h-4.1l-0.6,2.4h-2.1l3.6-12h2.4l3.6,12h-2.1L891.2,149.1z M887.5,147.3h3.3l-1.7-6.1L887.5,147.3z"
	/>
<path class="st18" d="M699,103.5h74c2.8,0,5,2.2,5,5v74c0,2.8-2.2,5-5,5h-74c-2.8,0-5-2.2-5-5v-74C694,105.7,696.2,103.5,699,103.5z
	"/>
<path class="st5" d="M699,103.5h74c2.8,0,5,2.2,5,5v74c0,2.8-2.2,5-5,5h-74c-2.8,0-5-2.2-5-5v-74C694,105.7,696.2,103.5,699,103.5z"
	/>
<path class="st6" d="M716.2,139.4h4.1c2.1,0.1,3.6,1.9,3.5,3.9c-0.1,1.9-1.6,3.4-3.5,3.5h-2.1v4.5h-2V139.4z M720,141.2h-1.9v4h1.9
	c1.1-0.1,1.9-1.1,1.7-2.2C721.7,142,720.9,141.3,720,141.2z"/>
<path class="st6" d="M729.5,150.5c-0.5,0.7-1.4,1.1-2.3,1.1c-1.5,0-2.7-1.2-2.7-2.7c0-0.1,0-0.1,0-0.2c-0.1-1.4,0.9-2.7,2.4-2.8
	c0.1,0,0.2,0,0.3,0c0.9,0,1.7,0.4,2.3,1v-1.3c0.1-0.8-0.5-1.6-1.4-1.7c-0.1,0-0.2,0-0.3,0c-0.8,0-1.6,0.4-2.2,1l-0.7-1.3
	c0.9-0.8,2-1.3,3.2-1.3c1.8,0,3.2,0.8,3.2,3v5.9h-1.8V150.5z M729.5,148.1c-0.3-0.6-1-1-1.6-1c-0.9,0.1-1.6,0.8-1.5,1.7
	c0.1,0.8,0.7,1.5,1.5,1.5c0.7,0,1.3-0.4,1.6-1V148.1z"/>
<path class="st6" d="M734.1,152.5c0.6,0.6,1.4,1,2.3,1c1.1,0.1,2-0.7,2.1-1.8c0-0.1,0-0.3,0-0.4V150c-0.4,0.8-1.3,1.4-2.2,1.4
	c-1.9,0-3.2-1.7-3.2-4.5s1.2-4.5,3.2-4.5c0.9,0,1.8,0.6,2.2,1.4v-1.2h1.8v8.4c0,3-1.9,3.8-3.7,3.8c-1.1,0.1-2.2-0.3-3.1-1.1
	L734.1,152.5z M738.4,145.3c-0.3-0.7-1-1.1-1.7-1.2c-1.2,0-1.9,1.2-1.9,2.9s0.6,2.9,1.9,2.9c0.7-0.1,1.4-0.5,1.7-1.2V145.3z"/>
<path class="st6" d="M745.6,142.5c2.4,0,3.6,2,3.6,4.6v0.5h-5.5c-0.1,1.3,0.9,2.4,2.1,2.5h0.1c0.8,0,1.5-0.4,2-0.9l0.9,1.1
	c-0.8,0.9-1.9,1.3-3,1.3c-2.4,0-3.9-1.9-3.9-4.6C741.8,144.5,743.3,142.5,745.6,142.5z M743.7,146.4h3.8c0-1.1-0.5-2.4-1.9-2.4
	C744.2,144,743.7,145.3,743.7,146.4z"/>
<path class="st6" d="M750.9,149.1c0.6,0.7,1.4,1,2.3,1.1c0.9,0,1.4-0.4,1.4-1.1c0-0.7-0.8-1-1.6-1.4c-1.2-0.4-2.7-1-2.7-2.8
	c0-1.4,1.1-2.5,3-2.5c1.1,0,2.1,0.4,2.9,1.1l-0.8,1.2c-0.5-0.6-1.3-0.9-2.1-0.9s-1.3,0.4-1.3,1s0.7,1,1.6,1.3c1.2,0.5,2.7,1,2.7,2.9
	c0,1.5-1.2,2.6-3.1,2.6c-1.2,0.1-2.3-0.4-3.2-1.2L750.9,149.1z"/>
<line class="st19" x1="778" y1="145.5" x2="820" y2="145.5"/>
<line class="st19" x1="778" y1="271.5" x2="820" y2="271.5"/>
<line class="st19" x1="778" y1="397.5" x2="820" y2="397.5"/>
<line class="st19" x1="862" y1="229.5" x2="862" y2="187.5"/>
<line class="st19" x1="736" y1="229.5" x2="736" y2="187.5"/>
<line class="st19" x1="862" y1="355.5" x2="862" y2="313.5"/>
<line class="st19" x1="736" y1="355.5" x2="736" y2="313.5"/>
<path class="st18" d="M825,229.5h74c2.8,0,5,2.2,5,5v74c0,2.8-2.2,5-5,5h-74c-2.8,0-5-2.2-5-5v-74C820,231.7,822.2,229.5,825,229.5z
	"/>
<path class="st5" d="M825,229.5h74c2.8,0,5,2.2,5,5v74c0,2.8-2.2,5-5,5h-74c-2.8,0-5-2.2-5-5v-74C820,231.7,822.2,229.5,825,229.5z"
	/>
<path class="st6" d="M831.4,274.6c0.7,0.8,1.8,1.3,2.9,1.3c1.2,0,1.9-0.7,1.9-1.6c0-1.1-1-1.5-2.2-2.1c-1.5-0.6-3.2-1.4-3.2-3.6
	c0-1.9,1.6-3.4,3.5-3.4c0.1,0,0.2,0,0.3,0c1.3,0,2.5,0.4,3.5,1.3l-1,1.5c-0.7-0.7-1.6-1-2.5-1c-0.8-0.1-1.5,0.5-1.6,1.3
	c0,0.1,0,0.1,0,0.2c0,0.9,1,1.4,2.1,1.9c1.5,0.7,3.3,1.5,3.3,3.8c0,2-1.3,3.5-3.9,3.5c-1.4,0.1-2.9-0.5-3.9-1.5L831.4,274.6z"/>
<path class="st6" d="M843.1,268.5c2.4,0,3.6,2,3.6,4.6v0.5h-5.5c-0.1,1.3,0.9,2.4,2.1,2.5h0.1c0.8,0,1.5-0.4,2-0.9l0.9,1.1
	c-0.8,0.9-1.9,1.3-3,1.3c-2.4,0-3.9-1.9-3.9-4.6C839.4,270.6,840.8,268.5,843.1,268.5z M841.2,272.4h3.8c0-1.1-0.5-2.4-1.9-2.4
	C841.7,270,841.2,271.3,841.2,272.4z"/>
<path class="st6" d="M848.3,268.7h1.8v1.3c0.5-0.9,1.4-1.4,2.4-1.5v1.8c-0.2,0-0.3-0.1-0.5-0.1c-0.8,0.1-1.5,0.5-1.9,1.2v6h-1.8
	V268.7z"/>
<path class="st6" d="M852.8,268.7h1.9l1.9,6.6l1.9-6.6h1.9l-2.9,8.7h-1.9L852.8,268.7z"/>
<path class="st6" d="M861.4,266.2c0-0.6,0.5-1.1,1.1-1.1s1.1,0.5,1.1,1.1s-0.5,1.1-1.1,1.1C861.9,267.3,861.4,266.8,861.4,266.2z
	 M861.6,268.7h1.8v8.7h-1.8V268.7z"/>
<path class="st6" d="M868.9,268.5c1-0.1,2,0.4,2.6,1.2l-0.9,1.2c-0.3-0.5-0.9-0.8-1.5-0.8c-1.4,0-2.1,1.3-2.1,3s0.8,3,2.1,3
	c0.6,0,1.2-0.3,1.5-0.8l0.9,1.2c-0.6,0.8-1.6,1.2-2.6,1.2c-2.3,0-3.8-1.9-3.8-4.6S866.6,268.5,868.9,268.5z"/>
<path class="st6" d="M876.3,268.5c2.4,0,3.6,2,3.6,4.6v0.5h-5.5c-0.1,1.3,0.9,2.4,2.1,2.5h0.1c0.8,0,1.5-0.4,2-0.9l0.9,1.1
	c-0.8,0.9-1.9,1.3-3,1.3c-2.4,0-3.9-1.9-3.9-4.6C872.6,270.6,874,268.5,876.3,268.5z M874.4,272.4h3.8c0-1.1-0.5-2.4-1.9-2.4
	C874.9,270,874.4,271.3,874.4,272.4z"/>
<path class="st6" d="M885.4,265.4h4.5c1.6-0.1,3,1.1,3.1,2.7c0,0.1,0,0.3,0,0.4c0.1,1.2-0.7,2.4-1.9,2.8c1.3,0.4,2.2,1.6,2.1,3
	c0.2,1.6-1,3.1-2.6,3.2c-0.2,0-0.3,0-0.5,0h-4.7L885.4,265.4L885.4,265.4z M889.6,270.4c1,0,1.5-0.7,1.5-1.6
	c0.1-0.8-0.4-1.5-1.2-1.6c-0.1,0-0.2,0-0.3,0h-2.1v3.3L889.6,270.4L889.6,270.4z M889.6,275.7c1.1,0,1.6-0.6,1.6-1.7
	c0.1-0.9-0.5-1.6-1.4-1.7c-0.1,0-0.2,0-0.2,0h-2.2v3.5L889.6,275.7L889.6,275.7z"/>
<path class="st18" d="M699,229.5h74c2.8,0,5,2.2,5,5v74c0,2.8-2.2,5-5,5h-74c-2.8,0-5-2.2-5-5v-74C694,231.7,696.2,229.5,699,229.5z
	"/>
<path class="st5" d="M699,229.5h74c2.8,0,5,2.2,5,5v74c0,2.8-2.2,5-5,5h-74c-2.8,0-5-2.2-5-5v-74C694,231.7,696.2,229.5,699,229.5z"
	/>
<path class="st6" d="M716.2,265.4h4.1c2.1,0.1,3.6,1.9,3.5,3.9c-0.1,1.9-1.6,3.4-3.5,3.5h-2.1v4.5h-2V265.4z M720,267.2h-1.9v4h1.9
	c1.1-0.1,1.9-1.1,1.7-2.2C721.7,268,720.9,267.3,720,267.2z"/>
<path class="st6" d="M729.5,276.5c-0.5,0.7-1.4,1.1-2.3,1.1c-1.5,0-2.7-1.2-2.7-2.7c0-0.1,0-0.1,0-0.2c-0.1-1.4,0.9-2.7,2.4-2.8
	c0.1,0,0.2,0,0.3,0c0.9,0,1.7,0.4,2.3,1v-1.3c0.1-0.8-0.5-1.6-1.4-1.7c-0.1,0-0.2,0-0.3,0c-0.8,0-1.6,0.4-2.2,1l-0.7-1.3
	c0.9-0.8,2-1.3,3.2-1.3c1.8,0,3.2,0.8,3.2,3v5.9h-1.8V276.5z M729.5,274.1c-0.3-0.6-1-1-1.6-1c-0.9,0.1-1.6,0.8-1.5,1.7
	c0.1,0.8,0.7,1.5,1.5,1.5c0.7,0,1.3-0.4,1.6-1V274.1z"/>
<path class="st6" d="M734.1,278.5c0.6,0.6,1.4,1,2.3,1c1.1,0.1,2-0.7,2.1-1.8c0-0.1,0-0.3,0-0.4V276c-0.4,0.8-1.3,1.4-2.2,1.4
	c-1.9,0-3.2-1.7-3.2-4.5s1.2-4.5,3.2-4.5c0.9,0,1.8,0.6,2.2,1.4v-1.2h1.8v8.4c0,3-1.9,3.8-3.7,3.8c-1.1,0.1-2.2-0.3-3.1-1.1
	L734.1,278.5z M738.4,271.3c-0.3-0.7-1-1.1-1.7-1.2c-1.2,0-1.9,1.2-1.9,2.9c0,1.7,0.6,2.9,1.9,2.9c0.7-0.1,1.4-0.5,1.7-1.2V271.3z"
	/>
<path class="st6" d="M745.6,268.5c2.4,0,3.6,2,3.6,4.6v0.5h-5.5c-0.1,1.3,0.9,2.4,2.1,2.5h0.1c0.8,0,1.5-0.4,2-0.9l0.9,1.1
	c-0.8,0.9-1.9,1.3-3,1.3c-2.4,0-3.9-1.9-3.9-4.6C741.8,270.5,743.3,268.5,745.6,268.5z M743.7,272.4h3.8c0-1.1-0.5-2.4-1.9-2.4
	C744.2,270,743.7,271.3,743.7,272.4z"/>
<path class="st6" d="M750.9,275.1c0.6,0.7,1.4,1,2.3,1.1c0.9,0,1.4-0.4,1.4-1.1s-0.8-1-1.6-1.4c-1.2-0.4-2.7-1-2.7-2.8
	c0-1.4,1.1-2.5,3-2.5c1.1,0,2.1,0.4,2.9,1.1l-0.8,1.2c-0.5-0.6-1.3-0.9-2.1-0.9s-1.3,0.4-1.3,1s0.7,1,1.6,1.3c1.2,0.5,2.7,1,2.7,2.9
	c0,1.5-1.2,2.6-3.1,2.6c-1.2,0.1-2.3-0.4-3.2-1.2L750.9,275.1z"/>
<path class="st18" d="M825,355.5h74c2.8,0,5,2.2,5,5v74c0,2.8-2.2,5-5,5h-74c-2.8,0-5-2.2-5-5v-74C820,357.7,822.2,355.5,825,355.5z
	"/>
<path class="st5" d="M825,355.5h74c2.8,0,5,2.2,5,5v74c0,2.8-2.2,5-5,5h-74c-2.8,0-5-2.2-5-5v-74C820,357.7,822.2,355.5,825,355.5z"
	/>
<path class="st6" d="M831.3,400.6c0.7,0.8,1.8,1.3,2.9,1.3c1.2,0,1.9-0.7,1.9-1.6c0-1.1-1-1.5-2.2-2.1c-1.5-0.6-3.2-1.4-3.2-3.6
	c0-1.9,1.6-3.4,3.5-3.4c0.1,0,0.2,0,0.3,0c1.3,0,2.5,0.4,3.5,1.3l-1,1.5c-0.7-0.7-1.6-1-2.5-1c-0.8-0.1-1.5,0.5-1.6,1.3
	c0,0.1,0,0.1,0,0.2c0,0.9,1,1.4,2.1,1.9c1.5,0.7,3.3,1.5,3.3,3.8c0,2-1.3,3.5-3.9,3.5c-1.4,0.1-2.9-0.5-3.9-1.5L831.3,400.6z"/>
<path class="st6" d="M843,394.5c2.4,0,3.6,2,3.6,4.6v0.5h-5.5c-0.1,1.3,0.9,2.4,2.1,2.5h0.1c0.8,0,1.5-0.4,2-0.9l0.9,1.1
	c-0.8,0.9-1.9,1.3-3,1.3c-2.4,0-3.9-1.9-3.9-4.6C839.3,396.6,840.7,394.5,843,394.5z M841.1,398.4h3.8c0-1.1-0.5-2.4-1.9-2.4
	C841.7,396,841.2,397.3,841.1,398.4z"/>
<path class="st6" d="M848.3,394.7h1.8v1.3c0.5-0.9,1.4-1.4,2.4-1.5v1.8c-0.2,0-0.3-0.1-0.5-0.1c-0.8,0.1-1.5,0.5-1.9,1.2v6h-1.8
	V394.7z"/>
<path class="st6" d="M852.8,394.7h1.9l1.9,6.6l1.9-6.6h1.9l-2.9,8.7h-1.9L852.8,394.7z"/>
<path class="st6" d="M861.3,392.2c0-0.6,0.5-1.1,1.1-1.1s1.1,0.5,1.1,1.1s-0.5,1.1-1.1,1.1C861.8,393.3,861.3,392.8,861.3,392.2z
	 M861.6,394.7h1.8v8.7h-1.8V394.7z"/>
<path class="st6" d="M868.9,394.5c1-0.1,2,0.4,2.6,1.2l-0.9,1.2c-0.3-0.5-0.9-0.8-1.5-0.8c-1.4,0-2.1,1.3-2.1,3s0.8,3,2.1,3
	c0.6,0,1.2-0.3,1.5-0.8l0.9,1.2c-0.6,0.8-1.6,1.2-2.6,1.2c-2.3,0-3.8-1.9-3.8-4.6S866.5,394.5,868.9,394.5z"/>
<path class="st6" d="M876.2,394.5c2.4,0,3.6,2,3.6,4.6v0.5h-5.5c-0.1,1.3,0.9,2.4,2.1,2.5h0.1c0.8,0,1.5-0.4,2-0.9l0.9,1.1
	c-0.8,0.9-1.9,1.3-3,1.3c-2.4,0-3.9-1.9-3.9-4.6C872.5,396.6,873.9,394.5,876.2,394.5z M874.3,398.4h3.8c0-1.1-0.5-2.4-1.9-2.4
	C874.9,396,874.4,397.3,874.3,398.4z"/>
<path class="st6" d="M884.9,397.4c0-3.6,1.9-6.2,4.8-6.2c1.7,0,3.3,1,3.9,2.6l-1.7,0.7c-0.3-0.9-1.2-1.6-2.2-1.6
	c-1.7,0-2.8,1.9-2.8,4.4c0,2.6,1.1,4.4,2.8,4.4c1,0,1.9-0.8,2.2-1.8l1.7,0.7c-0.5,1.7-2.1,2.8-3.9,2.8
	C886.8,403.6,884.9,401,884.9,397.4z"/>
<path class="st18" d="M699,355.5h74c2.8,0,5,2.2,5,5v74c0,2.8-2.2,5-5,5h-74c-2.8,0-5-2.2-5-5v-74C694,357.7,696.2,355.5,699,355.5z
	"/>
<path class="st5" d="M699,355.5h74c2.8,0,5,2.2,5,5v74c0,2.8-2.2,5-5,5h-74c-2.8,0-5-2.2-5-5v-74C694,357.7,696.2,355.5,699,355.5z"
	/>
<path class="st6" d="M716.2,391.4h4.1c2.1,0.1,3.6,1.9,3.5,3.9c-0.1,1.9-1.6,3.4-3.5,3.5h-2.1v4.5h-2V391.4z M720,393.2h-1.9v4h1.9
	c1.1-0.1,1.9-1.1,1.7-2.2C721.7,394,720.9,393.3,720,393.2z"/>
<path class="st6" d="M729.5,402.5c-0.5,0.7-1.4,1.1-2.3,1.1c-1.5,0-2.7-1.2-2.7-2.7c0-0.1,0-0.1,0-0.2c-0.1-1.4,0.9-2.7,2.4-2.8
	c0.1,0,0.2,0,0.3,0c0.9,0,1.7,0.4,2.3,1v-1.3c0.1-0.8-0.5-1.6-1.4-1.7c-0.1,0-0.2,0-0.3,0c-0.8,0-1.6,0.4-2.2,1l-0.7-1.3
	c0.9-0.8,2-1.3,3.2-1.3c1.8,0,3.2,0.8,3.2,3v5.9h-1.8V402.5z M729.5,400.1c-0.3-0.6-1-1-1.6-1c-0.9,0.1-1.6,0.8-1.5,1.7
	c0.1,0.8,0.7,1.5,1.5,1.5c0.7,0,1.3-0.4,1.6-1V400.1z"/>
<path class="st6" d="M734.1,404.5c0.6,0.6,1.4,1,2.3,1c1.1,0.1,2-0.7,2.1-1.8c0-0.1,0-0.3,0-0.4V402c-0.4,0.8-1.3,1.4-2.2,1.4
	c-1.9,0-3.2-1.7-3.2-4.5s1.2-4.5,3.2-4.5c0.9,0,1.8,0.6,2.2,1.4v-1.2h1.8v8.4c0,3-1.9,3.8-3.7,3.8c-1.1,0.1-2.2-0.3-3.1-1.1
	L734.1,404.5z M738.4,397.3c-0.3-0.7-1-1.1-1.7-1.2c-1.2,0-1.9,1.2-1.9,2.9c0,1.7,0.6,2.9,1.9,2.9c0.7-0.1,1.4-0.5,1.7-1.2V397.3z"
	/>
<path class="st6" d="M745.6,394.5c2.4,0,3.6,2,3.6,4.6v0.5h-5.5c-0.1,1.3,0.9,2.4,2.1,2.5h0.1c0.8,0,1.5-0.4,2-0.9l0.9,1.1
	c-0.8,0.9-1.9,1.3-3,1.3c-2.4,0-3.9-1.9-3.9-4.6C741.8,396.5,743.3,394.5,745.6,394.5z M743.7,398.4h3.8c0-1.1-0.5-2.4-1.9-2.4
	C744.2,396,743.7,397.3,743.7,398.4z"/>
<path class="st6" d="M750.9,401.1c0.6,0.7,1.4,1,2.3,1.1c0.9,0,1.4-0.4,1.4-1.1s-0.8-1-1.6-1.4c-1.2-0.4-2.7-1-2.7-2.8
	c0-1.4,1.1-2.5,3-2.5c1.1,0,2.1,0.4,2.9,1.1l-0.8,1.2c-0.5-0.6-1.3-0.9-2.1-0.9s-1.3,0.4-1.3,1s0.7,1,1.6,1.3c1.2,0.5,2.7,1,2.7,2.9
	c0,1.5-1.2,2.6-3.1,2.6c-1.2,0.1-2.3-0.4-3.2-1.2L750.9,401.1z"/>
</svg>
